<?xml version="1.0" encoding="utf-8"?>
<!-- Generator: Adobe Illustrator 24.3.0, SVG Export Plug-In . SVG Version: 6.00 Build 0)  -->
<svg version="1.1" id="Layer_1" xmlns="http://www.w3.org/2000/svg" xmlns:xlink="http://www.w3.org/1999/xlink" x="0px" y="0px"
	 viewBox="0 0 512 512" style="enable-background:new 0 0 512 512;" xml:space="preserve">
<style type="text/css">
	.st0{fill:#8F8FB7;}
	.st1{fill:#6D6D93;}
	.st2{fill:#80AAFF;}
	.st3{fill:#99C0FF;}
	.st4{fill:#84A0A3;}
	.st5{fill:#B0B5CA;}
	.st6{fill:#E87187;}
	.st7{fill:#6D7486;}
	.st8{fill:#CCD3DF;}
	.st9{fill:#5FCDA4;}
	.st10{fill:#91B1C4;}
	.st11{fill:#ADF0E5;}
	.st12{fill:#6997E0;}
	.st13{fill:#7893A0;}
</style>
<path class="st0" d="M106.9,238.7c0-39,26.8-72,63.7-83.2l3.4-36.8l0,0c-73,3.7-131.1,63.2-131.1,136c0,51.4,29.9,97.2,72.7,120.4
	l70.5-9.5l0,0v-39.2C135.5,326.2,106.9,286.9,106.9,238.7z"/>
<path class="st1" d="M72.9,254.6c0-62.3,42.6-114.9,100.6-131l0.5-4.9l0,0c-73,3.7-131.1,63.1-131.1,136
	c0,51.4,29.9,97.2,72.7,120.4l24.3-3.3C100.3,347.6,72.9,303.7,72.9,254.6z"/>
<path class="st2" d="M447.4,42.8c45.4,25,62,82.1,37,127.5c-25,45.4-82.1,62-127.5,37c-45.4-25-61.9-82-37-127.5
	C344.9,34.4,402,17.8,447.4,42.8C447.4,42.8,447.4,42.8,447.4,42.8z"/>
<path class="st3" d="M439.4,211.1l-115.9,56.6l-13.5-124.5c10.1,50.8,59.5,83.9,110.4,73.7C427,215.8,433.3,213.8,439.4,211.1
	L439.4,211.1z"/>
<rect x="186.1" y="326.2" class="st4" width="136.9" height="28.2"/>
<polygon class="st5" points="220.4,384.1 195.4,384.1 195.5,401.5 229.9,401.5 "/>
<path class="st6" d="M432,110.6c12.4,0,22.5,10.1,22.5,22.5c0,12.4-10.1,22.5-22.5,22.5s-22.5-10.1-22.5-22.5l0,0
	C409.5,120.7,419.6,110.6,432,110.6z"/>
<path class="st6" d="M403,75.9c3.7,4.5,3,11.1-1.5,14.7l-17.8,14.5c-4.5,3.7-11.1,3-14.7-1.5c0,0,0,0,0,0l-5.2-6.4
	c-3.7-4.5-3-11.1,1.5-14.7c0,0,0,0,0,0L383,67.9c4.5-3.7,11.1-3,14.7,1.5L403,75.9z"/>
<circle class="st6" cx="363.5" cy="140.9" r="9"/>
<rect x="258.3" y="247.2" transform="matrix(0.5211 -0.8535 0.8535 0.5211 -86.9705 357.7951)" class="st7" width="34" height="18.4"/>
<polygon class="st8" points="250.1,227.8 238.9,247 261.8,261 261.8,261 273.2,242.3 "/>
<rect x="198.6" y="272.9" class="st5" width="43.7" height="19.3"/>
<rect x="198.6" y="28.9" class="st5" width="43.7" height="20.4"/>
<polygon class="st7" points="237.4,272.7 237.4,272.9 203.6,272.9 203.6,272.7 203.6,247 237.4,247 "/>
<rect x="203.6" y="49.2" class="st7" width="33.9" height="24.2"/>
<rect x="190.9" y="73.4" class="st5" width="59.3" height="173.6"/>
<polygon class="st7" points="218.6,144.9 170.6,145 170.6,145 170.6,193.4 218.6,193.4 218.6,144.9 "/>
<path class="st9" d="M220.7,134.6c0,14.4-11.7,26.1-26.1,26.1c-14.4,0-26.1-11.7-26.1-26.1c0-14.4,11.7-26.1,26.1-26.1c0,0,0,0,0,0
	c14.3-0.1,26,11.4,26.1,25.8C220.7,134.4,220.7,134.5,220.7,134.6z"/>
<path class="st9" d="M177.2,194.1c0-0.2,0-0.5,0-0.7c0.4-7.4,6.6-13.1,14-12.8c6.9,0.3,12.4,5.8,12.8,12.8c0,0.2,0,0.5,0,0.7
	c0,7.3-5.9,13.3-13.2,13.4c-0.1,0-0.2,0-0.2,0C183.2,207.5,177.2,201.6,177.2,194.1C177.2,194.1,177.2,194.1,177.2,194.1z"/>
<path class="st10" d="M197.5,401.5c1.2,16.6,15,29.5,31.7,29.5h44.4c28.8,0,52.2,23.4,52.2,52.2H43.6v-21.9c0-19.9,16.1-36,36-36
	c17.5,0,31.7-14.2,31.8-31.7c0-23.8,19.3-43,43-43c20.1,0,37.6,14,42,33.6c0.7,3.1,1,6.3,1,9.4v5.6
	C197.4,399.9,197.5,400.7,197.5,401.5z"/>
<path class="st11" d="M244.7,378.4c6.1,7.8,6.2,17.9,0.2,22.6c-4,3.2-9.8,3.1-15,0.4c-2.7-1.5-5.1-3.5-6.9-5.9
	c-2.6-3.3-4.2-7.2-4.6-11.4c-0.3-4.5,1.1-8.7,4.4-11.2C228.8,368.2,238.6,370.6,244.7,378.4z"/>
<path class="st12" d="M386.9,207.2c-45.4-25-62-82.1-37-127.5c13.9-25.3,38.7-42.8,67.3-47.4C366,24,317.8,58.8,309.5,110
	s26.4,99.4,77.6,107.7c9.9,1.6,20.1,1.6,30,0C406.5,215.9,396.3,212.4,386.9,207.2z"/>
<path class="st13" d="M109.6,425.3c17.5,0,31.7-14.2,31.7-31.7c0-18,11.2-34.1,28-40.3c-22.3-8.3-47,3-55.3,25.3
	c-1.8,4.8-2.7,9.9-2.7,15.1c0,17.5-14.2,31.7-31.8,31.7c-19.9,0-36,16.1-36,36v21.9h30v-21.9C73.6,441.4,89.7,425.3,109.6,425.3z"/>
<path class="st8" d="M404.3,184.5h-31.4c-3.3,0-6-2.7-6-6s2.7-6,6-6h31.4c3.3,0,6,2.7,6,6S407.6,184.5,404.3,184.5z"/>
<path class="st8" d="M451.4,91.6c-1.5,0-2.9-0.6-4-1.6l-23.3-21c-2.5-2.2-2.7-6-0.4-8.5c2.2-2.5,6-2.7,8.5-0.4l23.3,21
	c2.5,2.2,2.6,6,0.4,8.5C454.8,90.8,453.1,91.5,451.4,91.6z"/>
</svg>
