<?xml version="1.0" encoding="utf-8"?>
<!-- Generator: Adobe Illustrator 24.3.0, SVG Export Plug-In . SVG Version: 6.00 Build 0)  -->
<svg version="1.1" id="Layer_1" xmlns="http://www.w3.org/2000/svg" xmlns:xlink="http://www.w3.org/1999/xlink" x="0px" y="0px"
	 viewBox="0 0 512 512" style="enable-background:new 0 0 512 512;" xml:space="preserve">
<style type="text/css">
	.st0{fill:#5FCDA4;}
	.st1{fill:#D4E1F4;}
	.st2{fill:#8AB28E;}
	.st3{fill:#9AC5A1;}
	.st4{fill:#B7E2BD;}
</style>
<path id="XMLID_28_" class="st0" d="M219.5,374.7c0.2-0.2,0.4-0.5,0.6-0.7c1-1.3,2.1-2.8,2.9-4.3l-53.5-41.9
	c-1.3,1.2-2.4,2.4-3.5,3.8c-0.2,0.2-0.4,0.5-0.6,0.7c-1.2,1.7-2.3,3.4-3.1,5.2l52.9,41.4C216.8,377.7,218.2,376.3,219.5,374.7z"/>
<path id="XMLID_29_" class="st0" d="M359.8,196.1L359.8,196.1c1.4-1.7,2.4-3.4,3.3-5l-53.5-41.9c-1.4,1.3-2.7,2.7-4,4.3l-0.1,0.1
	c-1.3,1.7-2.4,3.4-3.3,5.2l53.4,41.8C357.1,199.2,358.5,197.7,359.8,196.1z"/>
<path id="XMLID_30_" class="st0" d="M293.1,279.8L239.8,238c-1.5,1.2-2.9,2.7-4.2,4.4c-1.3,1.7-2.4,3.4-3.2,5.1l53.3,41.7
	C288.8,286.6,291.3,283.4,293.1,279.8z"/>
<path id="XMLID_31_" class="st0" d="M227,352.6c0-2.7-0.4-5.5-1-8.5l-32.4-25.3c-3,0.2-5.7,0.5-8.3,1.1c-2.4,0.4-4.8,1.2-6.9,2.2
	l48.2,37.7C227,357.4,227.1,355,227,352.6z"/>
<path id="XMLID_32_" class="st0" d="M366.6,174.7c0-2.7-0.4-5.4-0.9-8.4l-32.9-25.8c-2.8,0.2-5.6,0.6-8.1,1.1
	c-2.5,0.4-4.8,1.2-7.1,2.2l48.6,38C366.6,179.7,366.7,177.2,366.6,174.7z"/>
<path id="XMLID_33_" class="st0" d="M296.6,263.7c-0.1-2.8-0.4-5.6-1-8.6l-32.4-25.4c-3,0.2-5.8,0.6-8.3,1.1
	c-2.4,0.5-4.8,1.2-6.9,2.2l48.2,37.7C296.6,268.5,296.7,266.1,296.6,263.7z"/>
<path id="XMLID_34_" class="st0" d="M199.9,386c2.6-0.5,5-1.2,7.2-2.1l-47.5-37.2c-0.3,2.4-0.5,4.8-0.3,7.4c0.2,2.7,0.5,5.5,1.1,8.5
	l31,24.3C194.4,386.8,197.3,386.5,199.9,386z"/>
<path id="XMLID_35_" class="st0" d="M300.1,184.9l30.5,23.9c3-0.2,5.9-0.4,8.6-0.9c2.5-0.4,4.9-1.1,7.2-1.9l-47.3-37.1
	c-0.3,2.3-0.3,4.8-0.3,7.3C299,179,299.4,181.8,300.1,184.9z"/>
<path id="XMLID_36_" class="st0" d="M229.9,272.2l32.8,25.7c2.8-0.2,5.5-0.5,8.1-1.1c2.4-0.5,4.8-1.3,7.1-2.4l-48.3-37.9
	c-0.4,2.3-0.6,4.8-0.5,7.3C229.1,266.5,229.4,269.2,229.9,272.2z"/>
<path class="st1" d="M308.9,103.5c-2.6-2-3.1-5.8-1-8.4c0.8-1,1.9-1.8,3.3-2.1c2.8-0.7,5.8-1.3,8.8-1.7c3.2-0.5,6.3,1.7,6.9,5
	c0.5,3.2-1.7,6.3-5,6.9l-0.1,0c-2.6,0.4-5.3,0.9-7.7,1.6C312.3,105.1,310.3,104.7,308.9,103.5z"/>
<path class="st1" d="M250.6,183.6c-1.3-1-2.2-2.6-2.3-4.3c-1.3-21.4,4.5-40.5,17.4-57c7.1-9.2,16.1-16.8,26.4-22.2
	c3-1.5,6.6-0.4,8.1,2.5c1.5,3,0.4,6.6-2.5,8.1c-8.8,4.7-16.5,11.1-22.5,19c-11.2,14.3-16.1,30.2-14.9,48.8c0.2,3.3-2.3,6.2-5.6,6.4
	C253.3,185,251.8,184.6,250.6,183.6L250.6,183.6z"/>
<path class="st2" d="M177.1,412.1l-9.7-26.7c-4.5-12.2-7.6-22.4-8.1-31.4c-0.4-8.1,1.4-15.2,6.3-21.8c0.2-0.2,0.4-0.5,0.6-0.7
	c4.7-6.2,11.6-10.4,19.2-11.8c9-2,20-1.4,33.4,0.1l28.2,3.1c23,1.6,46.3-1,63.1-22.5c16.8-21.5,13.7-44.6,6.7-66.6l-9.8-27
	c-4.4-11.9-7.4-22-7.9-30.7c-0.5-8.5,1.4-15.8,6.7-22.7l0.1-0.1c4.7-6.1,11.4-10.3,18.9-11.7c8.9-2,19.8-1.5,33.2,0l29,3.2
	c22.8,1.5,46-1.1,62.7-22.4c4.4-5.6,3.3-13.7-2.2-17.9c-5.6-4.4-13.6-3.4-18,2.2c-11,14.1-27.6,14.5-52.6,11.7l-28.1-3
	c-23-1.6-46.3,1-63.1,22.5s-13.7,44.6-6.7,66.6l9.7,26.7c4.8,12.7,7.9,23.3,8.2,32.6c0.6,15.9-10.3,29.9-25.9,33.1
	c-9,2-20.1,1.4-33.6-0.1l-28.6-3.1c-22.9-1.6-46,1.1-62.7,22.5c-16.8,21.5-13.7,44.6-6.6,66.6l9.8,26.6c8.7,23.6,12.3,39.7,1.3,53.8
	c-4.4,5.6-3.4,13.6,2.2,18c5.6,4.4,13.6,3.4,18-2.2C187.4,457.3,184.2,434.1,177.1,412.1z"/>
<path class="st3" d="M246.9,323.1l-9.6-26.6c-4.8-12.7-8.1-23.5-8.2-32.6c-0.2-7.9,1.7-14.9,6.7-21.4l0,0
	c5.1-6.5,11.5-9.9,19.2-11.7c9-2,20.1-1.4,33.6,0.2l28.2,3.1c23,1.6,46.3-1,63.1-22.5c16.8-21.4,13.7-44.6,6.7-66.5l-9.8-26.7
	c-8.7-23.6-12.3-39.7-1.3-53.8c4.3-5.7,3.2-13.7-2.3-18s-13.5-3.3-17.8,2.2c-16.8,21.5-13.7,44.6-6.7,66.6l9.7,26.4
	c4.8,12.9,8.1,23.7,8.4,33c0.2,7.9-1.7,14.8-6.7,21.3l-0.1,0.1c-5.4,6.8-12.1,10.3-20.6,11.8c-8.8,1.6-19.5,1-32.3-0.4l-28.1-3.1
	c-23-1.6-46.3,1-63.1,22.5c-16.8,21.4-13.7,44.6-6.7,66.5l9.8,26.7c4.7,12.7,7.9,23.2,8.1,32.4c0.4,7.7-2,15.4-6.9,21.4
	c-0.2,0.2-0.4,0.5-0.6,0.7c-5.2,6.3-11.7,9.8-19.6,11.3c-8.8,1.7-19.5,1.1-32.5-0.4l-28.2-3c-23-1.6-46.3,1-63,22.4
	c-4.4,5.6-3.4,13.6,2.2,18c5.6,4.4,13.6,3.4,18-2.2c11-14.1,27.6-14.5,52.6-11.7l28.1,3.1c23,1.6,46.3-1,63.1-22.5
	S254,345,246.9,323.1z"/>
<path class="st4" d="M294.6,216.7l28.1,3.1c12.9,1.4,23.5,2.1,32.3,0.4c8.4-1.6,15.2-5,20.6-11.8l0.1-0.1c5.1-6.5,6.9-13.4,6.7-21.3
	c-0.2-9.3-3.6-20.1-8.4-33l-9.7-26.4c-7.1-21.9-10.1-45.1,6.7-66.6c1.8-2.3,4.3-3.9,7.1-4.6c-0.2-7.1-5.9-12.7-13.1-12.7
	c-3.8,0-7.5,1.9-9.9,4.8c-16.8,21.5-13.7,44.6-6.7,66.6l9.7,26.4c4.8,12.9,8.1,23.7,8.4,33c0.2,7.9-1.7,14.8-6.7,21.3l-0.1,0.1
	c-5.4,6.8-12.1,10.3-20.6,11.8c-8.8,1.6-19.5,1-32.3-0.4l-28.1-3.1c-23-1.6-46.3,1-63.1,22.5c-16.8,21.4-13.7,44.6-6.7,66.5
	l9.8,26.7c4.7,12.7,7.9,23.2,8.1,32.4c0.4,7.7-2,15.4-6.9,21.4c-0.2,0.2-0.4,0.5-0.6,0.7c-5.2,6.3-11.7,9.8-19.6,11.3
	c-8.8,1.7-19.5,1.1-32.5-0.4l-28.2-3c-23-1.6-46.3,1-63,22.4c-4.4,5.6-3.3,13.7,2.3,18c3,2.3,7,3.2,10.8,2.3c0-2.9,0.9-5.7,2.7-8
	c16.8-21.4,40.2-23.9,63.1-22.4l28.2,3c13,1.4,23.7,2,32.5,0.4c7.9-1.5,14.3-5,19.6-11.3c0.2-0.2,0.4-0.5,0.6-0.7
	c4.9-6.1,7.3-13.7,6.9-21.4c-0.3-9.2-3.5-19.7-8.1-32.4l-9.8-26.7c-7-21.9-10.1-45,6.7-66.5S271.7,215.2,294.6,216.7z"/>
</svg>
