<svg id="Layer_1" data-name="Layer 1" xmlns="http://www.w3.org/2000/svg" viewBox="0 0 512 512"><path d="M247.44,84.63C236.68,6.54,198.04-.65,134.54,41.61,45.48,100.87,9.94,206.93,42.58,312.31l12.2,39.41.05-.02,36.55-13.68a260.121,260.121,0,0,0,73.05-41.51l84.95-191.82v-.01Q248.825,94.735,247.44,84.63Z" style="fill:#5fcda4"/><path d="M72.58,312.31c-32.64-105.38,2.9-211.44,91.96-270.7,17.643-11.742,33.364-19.659,47.1-23.306-19.029-6.851-44.859,1.847-77.1,23.306C45.48,100.87,9.94,206.93,42.58,312.31l12.2,39.41.05-.02,26.835-10.044Z" style="fill:#43a37c"/><path d="M174.341,105.13a6,6,0,0,0-8.017,2.782L130.466,181.9l-18.346-72.68a6,6,0,1,0-11.635,2.937l21.843,86.533L96.916,251.118,79.4,178.333a6,6,0,1,0-11.668,2.807l20.934,87L15.475,419.148a6,6,0,1,0,10.8,5.235L100.033,272.2l41.426-18.489a6,6,0,0,0-4.891-10.959l-28.408,12.68,68.963-142.286A6,6,0,0,0,174.341,105.13Z" style="fill:#c79a83"/><polygon points="329.095 303.528 319.923 311.267 361.521 362.453 370.692 354.715 329.095 303.528" style="fill:#b0b5ca"/><rect x="421.234" y="443.758" width="66.468" height="34.925" transform="translate(-190.319 401.932) rotate(-40.169)" style="fill:#4689d3"/><polygon points="399.58 344.65 468.6 426.44 417.81 469.31 348.78 387.51 361.11 350.58 399.58 344.65" style="fill:#5fa8ed"/><path d="M339.29,145.68A115.469,115.469,0,0,1,164.43,296.51c-.55-.62-1.1-1.26-1.64-1.9a115.469,115.469,0,0,1,176.5-148.93Z" style="fill:#adf0e5"/><polygon points="279.67 192.24 290.34 240.54 247.7 265.62 210.68 232.82 230.28 187.2 279.67 192.24" style="fill:#4ca987"/><path d="M194.43,296.51c-.55-.62-1.1-1.26-1.64-1.9a115.457,115.457,0,0,1,73.219-188.949,116.114,116.114,0,0,0-16.629-.971,115.434,115.434,0,0,0-86.59,189.92c.54.64,1.09,1.28,1.64,1.9A115.393,115.393,0,0,0,266.1,334.639,115.047,115.047,0,0,1,194.43,296.51Z" style="fill:#8dc6bb"/><path d="M190.737,362.116a5.975,5.975,0,0,1-3.128-.884c-2.257-1.383-4.494-2.856-6.646-4.378a6,6,0,1,1,6.928-9.8c1.938,1.37,3.952,2.7,5.986,3.941a6,6,0,0,1-3.14,11.118Z" style="fill:#d4e1f4"/><path d="M251.076,379.063A122.005,122.005,0,0,1,214,373.3a6,6,0,1,1,3.649-11.432,109.936,109.936,0,0,0,73.568-2.4,6,6,0,0,1,4.4,11.162A121.438,121.438,0,0,1,251.076,379.063Z" style="fill:#d4e1f4"/><path d="M338.343,237.965a6,6,0,0,0-8.309-1.725l-13.417,8.8-21.088-8.839-9.5-42.982L298.1,172.4l15.887-.445a6,6,0,0,0-.336-12l-15.233.428-6.253-13.9a6,6,0,1,0-10.943,4.924l6.63,14.736-11.437,19.721-42.511-4.333L220.69,159.069l6.987-14.423a6,6,0,1,0-10.8-5.231l-6.644,13.713-15.214-.857a6,6,0,1,0-.676,11.981l16,.9,13.217,22.472-16.939,39.42-25.138,1.493-9.564-12.829a6,6,0,1,0-9.621,7.172L171.41,235.1,163.635,248.2a6,6,0,1,0,10.32,6.123l8.191-13.808,26.409-1.567,32.767,29.026-3.2,23.244-14.3,7.494a6,6,0,0,0,5.569,10.629l13.5-7.073,11.719,9.741a6,6,0,1,0,7.67-9.229l-12.232-10.166,3.209-23.3,37.542-22.082,21.148,8.865,2.96,15.732A6,6,0,1,0,326.7,269.61l-2.818-14.976,12.741-8.361A6,6,0,0,0,338.343,237.965ZM248.42,258.234,217.9,231.2l16.149-37.582,40.693,4.148,8.8,39.809Z" style="fill:#5fcda4"/></svg>