<svg id="Layer_1" data-name="Layer 1" xmlns="http://www.w3.org/2000/svg" viewBox="0 0 512 512"><path d="M368,272.47c27.41-8.63,58.87-11.66,77.55-12.71,10.08-.58,16.44-.58,16.44-.58s46.71-2.66,30.65,45.39c-15.96,47.76-41.99,93.52-235.39,81.48a2.88,2.88,0,0,1-2.55-3.82c2.44-6.89,10.37-20.95,33.87-18.2h.04a311.645,311.645,0,0,0,69.56,3.76v-.01c-21.75.2-38.31-10.56-42.9-37.02C309.94,300.02,336.25,282.48,368,272.47Z" style="fill:#57b266"/><path d="M184.45,318.97A106.289,106.289,0,0,0,158,352.65a14.086,14.086,0,0,1-11.19,7.66l-55.78,5.47a13.36,13.36,0,0,1,10.89-14.54l37.07-6.73a7.153,7.153,0,0,0,4.2-6.39c.49-16.81,19.2-35.17,19.2-35.17C175.12,312.82,184.45,318.97,184.45,318.97Z" style="fill:#57b266"/><path d="M184.45,318.97s-9.33-6.15-22.06-16.02c-17.31-13.43-40.9-33.75-55.8-54.83-8.27-11.7-16.08-18.22-23.91-22.52,0,0,1.68-1.63,20.76-.86,30.5,1.22,43.63,21.39,70.89,11.85,9.14-3.2,11.85-9.12,10.62-15.49,0,0,19.51,3.26,64.95,27.02,30.44,15.92,91.68,3.4,118.1,24.35-31.75,10.01-58.06,27.55-52.73,58.29,4.59,26.46,21.15,37.22,42.9,37.02v.01a311.645,311.645,0,0,1-69.56-3.76h-.04c-41.57-6.89-68.48-19.63-68.48-19.63-14.78,13.28-34.5,24.83-46.54,30.54-16.11,7.66-63.55,4.86-82.4,3.38a6.287,6.287,0,0,1-3.49-11.15,6.231,6.231,0,0,1,3.37-1.39l55.78-5.47A14.086,14.086,0,0,0,158,352.65,106.289,106.289,0,0,1,184.45,318.97Z" style="fill:#81c83d"/><path d="M202.12,171.2c-25.63-26.15-66.38-27.73-67.18-27.76l-53.82-1.07c-.41.41-12.31,12.41-27.25,12.9-15.21.51-58.3,19.2-26.37,44.74,1.33,1.07,2.65,2.06,3.94,2.99,19.85,14.31,35.6,14.02,51.24,22.6,0,0,1.68-1.63,20.76-.86,30.5,1.22,43.63,21.39,70.89,11.85,9.14-3.2,11.85-9.12,10.62-15.49,0,0,19.51,3.26,64.95,27.02,30.44,15.92,91.68,3.4,118.1,24.35,27.41-8.63,58.87-11.66,77.55-12.71C383.56,170.92,234.12,203.85,202.12,171.2Z" style="fill:#50dd5a"/><path d="M112.68,225.6s.483-.469,3.876-.785c-3.393.316-3.876.785-3.876.785-15.64-8.58-31.39-8.29-51.24-22.6-1.29-.93-2.61-1.92-3.94-2.99-31.93-25.54,11.16-44.23,26.37-44.74,13.2-.433,24.018-9.844,26.646-12.316l-29.4-.584c-.41.41-12.31,12.41-27.25,12.9-15.21.51-58.3,19.2-26.37,44.74,1.33,1.07,2.65,2.06,3.94,2.99,19.85,14.31,35.6,14.02,51.24,22.6,0,0,1.68-1.63,20.76-.86a69.861,69.861,0,0,1,9.587,1.057C112.912,225.733,112.8,225.664,112.68,225.6Z" style="fill:#47ad4c"/><path d="M121.15,378.32a6.287,6.287,0,0,1-3.49-11.15,6.231,6.231,0,0,1,3.37-1.39l55.78-5.47A14.086,14.086,0,0,0,188,352.65a106.289,106.289,0,0,1,26.45-33.68s-9.33-6.15-22.06-16.02c-17.31-13.43-40.9-33.75-55.8-54.83-8.148-11.527-15.849-18.021-23.563-22.323a69.844,69.844,0,0,0-9.587-1.057c-19.08-.77-20.76.86-20.76.86,7.83,4.3,15.64,10.82,23.91,22.52,14.9,21.08,38.49,41.4,55.8,54.83,12.73,9.87,22.06,16.02,22.06,16.02A106.289,106.289,0,0,0,158,352.65a14.086,14.086,0,0,1-11.19,7.66l-55.78,5.47a6.324,6.324,0,0,0-5.41,4.4,6.3,6.3,0,0,0,5.53,8.14c11.853.931,35.007,2.381,54.571,1.427C135.936,379.387,127.112,378.788,121.15,378.32Z" style="fill:#699b35"/><path d="M134.94,143.44a28.579,28.579,0,1,1-53.82-1.07.01.01,0,0,1,.01-.01,28.6,28.6,0,0,1,53.8,1.08Z" style="fill:#978cac"/><path d="M107.08,143.1c5.72,0,10.37,3.78,10.37,8.45s-4.65,8.44-10.37,8.44-10.37-3.78-10.37-8.44S101.35,143.1,107.08,143.1Z" style="fill:#777087"/><path d="M358,367.78v.01c-1,.062-2.064.11-3.093.161A301.958,301.958,0,0,0,388,367.79v-.01c-22,.2-38.225-10.56-42.815-37.02-5.33-30.74,21.023-48.28,52.773-58.29,25.753-8.109,55.1-11.273,74.046-12.5a46.7,46.7,0,0,0-10.025-.793s-6.354,0-16.434.58c-18.68,1.05-50.138,4.08-77.548,12.71-31.75,10.01-58.143,27.55-52.813,58.29C319.774,357.22,336,367.98,358,367.78Z" style="fill:#468950"/><path d="M287.25,386.05a2.88,2.88,0,0,1-2.55-3.82,26.894,26.894,0,0,1,15.773-16.473c-4.072-.522-8.03-.757-11.863-1.757h-.04c-23.5-3-31.43,11.325-33.87,18.215a2.886,2.886,0,0,0,2.55,3.827c27.4,1.706,51.444,2.255,72.574,1.8C316.615,387.581,302.45,387,287.25,386.05Z" style="fill:#468950"/><path d="M74.335,208.886c29.922-5.933,72.881,10.19,73.31,10.352a6,6,0,1,0,4.269-11.215c-1.886-.718-46.588-17.512-79.913-10.909a108.668,108.668,0,0,1-39.275.025,6,6,0,0,0-6.034,2.2c.268.223.528.444.808.668,1.33,1.07,2.65,2.06,3.94,2.99a87.974,87.974,0,0,0,12.724,7.658A117.1,117.1,0,0,0,74.335,208.886Z" style="fill:#317c33"/><path d="M466.348,310.818a6,6,0,0,0-8.483-.23c-39.444,37.357-87.5,58.022-114.257,49.143-12.125-4.023-19.668-14.114-22.423-29.994-1.865-10.741.557-19.918,7.4-28.056,11.7-13.911,36.4-24.5,71.63-30.752a6.006,6.006,0,0,0,4.907-6.767h0a6,6,0,0,0-6.974-5.055c-38.542,6.822-65.016,18.532-78.741,34.842-9.139,10.862-12.521,23.593-10.05,37.84,4.447,25.628,19.024,35.534,30.469,39.332,36.416,12.082,90.991-18.392,126.288-51.82A6,6,0,0,0,466.348,310.818Z" style="fill:#306636"/></svg>