<?xml version="1.0" encoding="utf-8"?>
<!-- Generator: Adobe Illustrator 24.3.0, SVG Export Plug-In . SVG Version: 6.00 Build 0)  -->
<svg version="1.1" id="Layer_1" xmlns="http://www.w3.org/2000/svg" xmlns:xlink="http://www.w3.org/1999/xlink" x="0px" y="0px"
	 viewBox="0 0 64 64" enable-background="new 0 0 64 64" xml:space="preserve">
<path fill="#8CC63F" d="M16.7,59.3l0.2,0.1c4.6,1.1,9.4,0.3,13.4-2.1c11-6.7,20.3-15.9,27-27l0,0c2.4-4,3.2-8.8,2.1-13.4l-0.1-0.2
	C57.3,8.6,50.2,3,42,3C35.8,3,30,6.2,26.8,11.5C23,17.7,17.7,23,11.5,26.8C6.2,30,3,35.8,3,42C3,50.2,8.6,57.3,16.7,59.3z M9.2,34.6
	c0.7-1.1,2.2-1.2,3.1-0.3L19,41c1.2,1.2,3.3,1.1,4.3-0.4c0.8-1.1,0.5-2.7-0.4-3.7l-6-6c-0.9-0.9-0.8-2.3,0.2-3
	c3.2-2.3,6.1-5.1,8.7-8.1c0.8-0.9,2.1-0.9,2.9-0.1L35,26c1.2,1.2,3.3,1.1,4.3-0.4c0.8-1.1,0.5-2.7-0.4-3.7l-7.3-7.3
	c-0.7-0.7-0.8-1.9-0.1-2.7C34.1,8.8,37.9,7,42,7c6.4,0,11.9,4.4,13.4,10.6l0.1,0.2c0,0.2,0.1,0.3,0.1,0.5c0.4,1.9-2,3.2-3.4,1.8
	L48,16c-1.2-1.2-3.3-1.1-4.3,0.4c-0.8,1.1-0.5,2.7,0.4,3.7L52,28c0.7,0.7,0.8,1.7,0.3,2.5c-2.3,3.5-5,6.9-7.9,10
	c-0.8,0.8-2.1,0.8-2.9,0L32,31c-1.2-1.2-3.3-1.1-4.3,0.4c-0.8,1.1-0.5,2.7,0.4,3.7l9.3,9.3c0.8,0.8,0.8,2.2-0.1,2.9
	c-2.9,2.4-5.9,4.6-9.1,6.5c-0.1,0-0.1,0.1-0.2,0.1c-0.8,0.5-1.8,0.3-2.4-0.3l-6.5-6.5c-1-1-2.6-1.2-3.7-0.4c-1.5,1-1.6,3.1-0.4,4.3
	l0.5,0.9c0.7,1.2-0.7,2.6-1.9,1.9C9.6,51.3,7,46.9,7,42C7,39.3,7.8,36.7,9.2,34.6z"/>
<path fill="#85BD3C" d="M27,56.2c-1.1,0-2.1-0.4-2.8-1.2l-6.5-6.5c-0.2-0.2-0.5-0.3-0.7-0.3c-0.1,0-0.3,0-0.4,0.1
	c-0.3,0.2-0.4,0.4-0.4,0.6c0,0.1,0,0.4,0.2,0.7l0.2,0.2l0.7,1.1c0.6,1.1,0.6,2.3,0,3.4c-0.6,1.1-1.7,1.7-2.9,1.7
	c-0.6,0-1.2-0.2-1.7-0.5C7.9,52.6,5,47.6,5,42c0-3,0.9-5.9,2.5-8.5c0.7-1.1,2-1.8,3.3-1.8c1.1,0,2.1,0.4,2.8,1.2l6.7,6.7
	c0.2,0.2,0.5,0.2,0.6,0.2c0.2,0,0.5,0,0.7-0.4c0.2-0.3,0.1-0.8-0.2-1.2l-6-6c-0.8-0.8-1.2-2-1.2-3.1c0.1-1.2,0.7-2.2,1.6-2.9
	c3.1-2.2,5.9-4.9,8.3-7.8c0.8-0.9,1.9-1.4,3-1.4c1.1,0,2.1,0.4,2.8,1.2l6.3,6.3c0.2,0.2,0.5,0.2,0.6,0.2c0.2,0,0.5,0,0.7-0.4
	c0.2-0.3,0.1-0.8-0.2-1.2L30.2,16c-1.5-1.5-1.6-3.9-0.2-5.5C33,7,37.4,5,42,5c7.3,0,13.6,5,15.3,12.1l0.1,0.2c0,0.2,0.1,0.4,0.1,0.6
	c0.2,1.2-0.1,2.4-0.8,3.3c-0.8,0.9-1.9,1.5-3.1,1.5l0,0c-1.1,0-2-0.4-2.8-1.2l-4.1-4.1c-0.2-0.2-0.5-0.2-0.6-0.2
	c-0.2,0-0.5,0-0.7,0.4c-0.2,0.3-0.1,0.8,0.2,1.1l7.9,7.9c1.3,1.3,1.6,3.5,0.5,5c-2.4,3.6-5.1,7.1-8.1,10.3c-0.7,0.8-1.8,1.3-2.9,1.3
	c-1.1,0-2.1-0.4-2.8-1.2l-9.5-9.5c-0.2-0.2-0.5-0.2-0.6-0.2c-0.2,0-0.5,0-0.7,0.4c-0.2,0.3-0.1,0.8,0.2,1.1l9.3,9.3
	c0.8,0.8,1.2,1.9,1.2,3c-0.1,1.1-0.6,2.2-1.4,2.9c-2.9,2.5-6.1,4.7-9.3,6.7L29,55.6C28.4,56,27.7,56.2,27,56.2z"/>
<path fill="#AEDD3C" d="M55.5,18.3c0-0.2-0.1-0.3-0.1-0.5l-0.1-0.2C53.9,11.4,48.4,7,42,7c-4,0-7.9,1.8-10.5,4.8
	c-0.7,0.8-0.7,2,0.1,2.7l7.3,7.3c1,1,1.2,2.6,0.4,3.7c-1,1.5-3.1,1.6-4.3,0.4l-6.3-6.3c-0.8-0.8-2.2-0.8-2.9,0.1
	c-2.6,3-5.5,5.7-8.7,8.1c-1,0.7-1.1,2.1-0.2,3l6,6c1,1,1.2,2.6,0.4,3.7c-1,1.5-3.1,1.6-4.3,0.4l-6.7-6.7c-0.9-0.9-2.4-0.8-3.1,0.3
	C7.8,36.7,7,39.3,7,42c0,4.9,2.6,9.4,6.7,11.8c1.2,0.7,2.6-0.7,1.9-1.9L15,51c-1.2-1.2-1.1-3.3,0.4-4.3c1.1-0.8,2.7-0.5,3.7,0.4
	l6.5,6.5c0.6,0.6,1.6,0.8,2.4,0.3c0.1,0,0.1-0.1,0.2-0.1c3.2-1.9,6.2-4.1,9.1-6.5c0.9-0.7,0.9-2.1,0.1-2.9l-9.3-9.3
	c-1-1-1.2-2.6-0.4-3.7c1-1.5,3.1-1.6,4.3-0.4l9.5,9.5c0.8,0.8,2.1,0.8,2.9,0c2.9-3.1,5.5-6.5,7.9-10c0.5-0.8,0.4-1.8-0.3-2.5
	l-7.9-7.9c-1-1-1.2-2.6-0.4-3.7c1-1.5,3.1-1.6,4.3-0.4l4.1,4.1C53.5,21.5,55.9,20.3,55.5,18.3z"/>
<path fill="#D2F294" d="M20.5,45.7c-0.9-0.9-2.3-1.5-3.6-1.5c-1,0-1.9,0.3-2.7,0.8c-1.2,0.8-1.9,2.1-2.1,3.6c0,0.5,0,1.1,0.1,1.6
	C10.2,48,9,45.1,9,42c0-1.8,0.4-3.5,1.2-5.1c0.3-0.6,1.1-0.7,1.6-0.3l5.8,5.8c0.9,0.9,2.1,1.4,3.4,1.4c1.6,0,3.1-0.8,4-2.1
	c1.3-1.9,1.1-4.6-0.7-6.3l-5.2-5.2c-0.4-0.4-0.4-1.1,0.1-1.5c2.7-2,5.1-4.4,7.4-6.9c0.4-0.4,1-0.5,1.5-0.1l5.6,5.6
	c0.9,0.9,2.1,1.4,3.4,1.4c1.6,0,3.1-0.8,4-2.1c1.3-1.9,1.1-4.6-0.7-6.3l-6.6-6.6c-0.4-0.4-0.4-1,0-1.4c2.6-2.5,6.2-3.8,9.8-3.3
	c2.4,0.3,4.9,1.4,6.9,2.9c2.3,1.8,2.6,4,3.2,6.7l-4.2-4.1c-0.9-0.9-2.1-1.4-3.4-1.4c-1.6,0-3.1,0.8-4,2.1c-1.3,1.9-1,4.5,0.7,6.2
	l7.3,7.3c0.3,0.3,0.4,0.9,0.1,1.3c-1.9,2.9-4.1,5.7-6.5,8.3c-0.4,0.4-1.1,0.4-1.5,0l-8.8-8.8c-0.9-0.9-2.1-1.4-3.4-1.4
	c-1.6,0-3.1,0.8-4,2.1c-1.3,1.9-1,4.5,0.7,6.2l8.5,8.5c0.4,0.4,0.4,1.1-0.1,1.5c-2,1.6-5.9,4.2-7.4,5.2c-0.4,0.3-0.9,0.2-1.3-0.1
	L20.5,45.7z"/>
<circle opacity="0.6" fill="#FFFFFF" cx="44.5" cy="28.1" r="1.8"/>
<circle opacity="0.6" fill="#FFFFFF" cx="46.1" cy="31.1" r="0.9"/>
<circle opacity="0.6" fill="#FFFFFF" cx="26.8" cy="48" r="1.8"/>
<circle opacity="0.6" fill="#FFFFFF" cx="30" cy="46.9" r="0.9"/>
<path d="M16.4,60.2l0.2,0.1c1.5,0.3,2.9,0.5,4.4,0.5c3.4,0,6.8-0.9,9.7-2.7c11.1-6.8,20.5-16.2,27.3-27.3c2.6-4.3,3.4-9.3,2.2-14.1
	l-0.1-0.2C58.2,7.9,50.7,2,42,2c-6.5,0-12.6,3.4-16,9c-3.7,6.1-8.9,11.3-15,15c-5.5,3.4-9,9.5-9,16C2,50.7,7.9,58.2,16.4,60.2z
	 M12,27.7c6.3-3.9,11.8-9.3,15.6-15.6c3-5,8.5-8,14.3-8c7.8,0,14.5,5.3,16.3,12.9c0,0,0,0,0,0l0.1,0.2c1,4.3,0.3,8.8-2,12.6
	c-6.6,10.8-15.8,20-26.6,26.6c-3.8,2.3-8.3,3-12.6,2l-0.2-0.1C9.3,56.5,4,49.8,4,42C4,36.2,7.1,30.7,12,27.7z"/>
<path d="M13.1,54.6c0.9,0.6,2.1,0.4,2.9-0.4c0.8-0.8,0.9-1.9,0.4-2.9l-0.5-0.9c0-0.1-0.1-0.1-0.2-0.2c-0.4-0.4-0.6-0.9-0.5-1.5
	c0-0.5,0.3-1,0.8-1.4c0.7-0.5,1.7-0.4,2.4,0.3l6.5,6.5c0.6,0.6,1.4,0.9,2.1,0.9c0.5,0,1-0.1,1.5-0.4l0.2-0.1
	c3.2-1.9,6.3-4.2,9.2-6.6c0.6-0.5,1-1.3,1.1-2.1c0-0.8-0.3-1.7-0.9-2.3l-9.3-9.3c-0.7-0.7-0.8-1.7-0.3-2.4c0.3-0.5,0.8-0.7,1.4-0.8
	c0.5,0,1.1,0.1,1.5,0.5l9.5,9.5c0.6,0.6,1.4,0.9,2.2,0.9c0.8,0,1.6-0.3,2.1-0.9c2.9-3.1,5.6-6.6,8-10.1c0.8-1.2,0.6-2.8-0.4-3.8
	l-7.9-7.9c-0.7-0.7-0.8-1.7-0.3-2.4c0.3-0.5,0.8-0.7,1.4-0.8c0.5,0,1.1,0.1,1.5,0.5l4.1,4.1c1,1,2.3,1.2,3.5,0.5
	c1.2-0.6,1.8-1.9,1.5-3.2c0-0.2-0.1-0.4-0.1-0.6l-0.1-0.2C54.7,10.7,48.8,6,42,6c-4.3,0-8.4,1.9-11.2,5.2c-1,1.2-1,3,0.1,4.1
	l7.3,7.3c0.7,0.7,0.8,1.7,0.3,2.4c-0.3,0.5-0.8,0.7-1.4,0.8c-0.5,0-1.1-0.1-1.5-0.5L29.4,19c-0.6-0.6-1.4-0.9-2.2-0.9
	c-0.8,0-1.6,0.4-2.1,1c-2.5,3-5.4,5.6-8.5,7.9c-0.7,0.5-1.1,1.3-1.2,2.2c-0.1,0.9,0.3,1.7,0.9,2.3l6,6c0.7,0.7,0.8,1.7,0.3,2.4
	c-0.3,0.5-0.8,0.7-1.4,0.8c-0.5,0-1.1-0.1-1.5-0.5L13,33.6c-0.6-0.7-1.5-1-2.5-0.9c-0.9,0.1-1.7,0.6-2.2,1.3C6.8,36.4,6,39.2,6,42
	C6,47.2,8.7,51.9,13.1,54.6z M10,35.1c0.2-0.3,0.5-0.4,0.7-0.4c0.3,0,0.6,0.1,0.8,0.3l6.7,6.7c0.8,0.8,1.9,1.2,3,1.1
	c1.1-0.1,2.2-0.7,2.8-1.6c1-1.5,0.8-3.6-0.6-5l-6-6c-0.2-0.2-0.3-0.5-0.3-0.8c0-0.3,0.2-0.5,0.4-0.7c3.3-2.4,6.2-5.2,8.8-8.2
	c0.2-0.2,0.4-0.3,0.7-0.3c0.3,0,0.6,0.1,0.8,0.3l6.3,6.3c0.8,0.8,1.9,1.2,3,1.1c1.1-0.1,2.2-0.7,2.8-1.6c1-1.5,0.8-3.6-0.6-5
	l-7.3-7.3c-0.4-0.4-0.4-1,0-1.4C34.7,9.6,38.2,8,42,8c5.9,0,11,4,12.4,9.8l0.1,0.2c0,0.2,0.1,0.3,0.1,0.5c0,0,0,0,0,0
	c0.1,0.7-0.4,1-0.5,1.1c-0.2,0.1-0.7,0.3-1.2-0.2l-4.1-4.1c-0.8-0.8-1.9-1.2-3.1-1.1c-1.1,0.1-2.2,0.7-2.8,1.6c-1,1.5-0.8,3.6,0.6,5
	l7.9,7.9c0.3,0.3,0.4,0.9,0.1,1.3c-2.3,3.5-4.9,6.8-7.8,9.9c-0.2,0.2-0.4,0.3-0.7,0.3c-0.3,0-0.5-0.1-0.7-0.3l-9.5-9.5
	c-0.8-0.8-1.9-1.2-3.1-1.1c-1.1,0.1-2.2,0.7-2.8,1.6c-1,1.5-0.8,3.6,0.6,5l9.3,9.3c0.2,0.2,0.3,0.5,0.3,0.8c0,0.3-0.1,0.5-0.3,0.7
	c-2.8,2.4-5.9,4.5-9,6.4L27.5,53c-0.4,0.2-0.9,0.1-1.2-0.2l-6.5-6.5c-0.8-0.8-1.8-1.2-2.9-1.2c-0.7,0-1.5,0.2-2.1,0.7
	c-0.9,0.7-1.5,1.7-1.6,2.8c-0.1,1.1,0.3,2.2,1,3l0.5,0.8c0.1,0.2,0,0.4-0.1,0.4c-0.1,0.1-0.2,0.2-0.4,0.1C10.3,50.6,8,46.5,8,42
	C8,39.5,8.7,37.2,10,35.1z"/>
<path d="M21,28h-1c-0.6,0-1,0.4-1,1s0.4,1,1,1h1c0.6,0,1-0.4,1-1S21.6,28,21,28z"/>
<path d="M27,26h1c0.6,0,1-0.4,1-1s-0.4-1-1-1h-1c-0.6,0-1,0.4-1,1S26.4,26,27,26z"/>
<path d="M39,32h1c0.6,0,1-0.4,1-1s-0.4-1-1-1h-1c-0.6,0-1,0.4-1,1S38.4,32,39,32z"/>
<path d="M37,14h-1c-0.6,0-1,0.4-1,1s0.4,1,1,1h1c0.6,0,1-0.4,1-1S37.6,14,37,14z"/>
<path d="M24,46h1c0.6,0,1-0.4,1-1s-0.4-1-1-1h-1c-0.6,0-1,0.4-1,1S23.4,46,24,46z"/>
<path d="M31,47h1c0.6,0,1-0.4,1-1s-0.4-1-1-1h-1c-0.6,0-1,0.4-1,1S30.4,47,31,47z"/>
<path d="M13,41c0-0.6-0.4-1-1-1h-1c-0.6,0-1,0.4-1,1s0.4,1,1,1h1C12.6,42,13,41.6,13,41z"/>
<path d="M48,31h1c0.6,0,1-0.4,1-1s-0.4-1-1-1h-1c-0.6,0-1,0.4-1,1S47.4,31,48,31z"/>
<path d="M43,37h1c0.6,0,1-0.4,1-1s-0.4-1-1-1h-1c-0.6,0-1,0.4-1,1S42.4,37,43,37z"/>
<path d="M49,14h1c0.6,0,1-0.4,1-1s-0.4-1-1-1h-1c-0.6,0-1,0.4-1,1S48.4,14,49,14z"/>
<path d="M42,12c0.6,0,1-0.4,1-1s-0.4-1-1-1h-1c-0.6,0-1,0.4-1,1s0.4,1,1,1H42z"/>
</svg>
