<?xml version="1.0" encoding="utf-8"?>
<!-- Generator: Adobe Illustrator 24.3.0, SVG Export Plug-In . SVG Version: 6.00 Build 0)  -->
<svg version="1.1" id="Layer_1_1_" xmlns="http://www.w3.org/2000/svg" xmlns:xlink="http://www.w3.org/1999/xlink" x="0px" y="0px"
	 viewBox="0 0 64 64" style="enable-background:new 0 0 64 64;" xml:space="preserve">
<style type="text/css">
	.st0{fill:#5F0038;}
</style>
<text transform="matrix(1 0 0 1 512 512)" style="font-family:'MyriadPro-Regular'; font-size:12px;">Amines</text>
<text transform="matrix(1 0 0 1 512 512)" style="font-family:'MyriadPro-Regular'; font-size:12px;">Amines</text>
<text transform="matrix(1 0 0 1 512 512)" style="font-family:'MyriadPro-Regular'; font-size:12px;">Amines</text>
<text transform="matrix(1 0 0 1 512 512)" style="font-family:'MyriadPro-Regular'; font-size:12px;">Amines</text>
<text transform="matrix(1 0 0 1 512 512)" style="font-family:'MyriadPro-Regular'; font-size:12px;">Amines</text>
<path class="st0" d="M4,35.2l12.2,17.4c0.2,0.3,0.5,0.4,0.8,0.4h29v9h2v-9.7l13.8-19.7c0.1-0.2,0.2-0.4,0.2-0.6l0,0V22h-2v6.8
	l-8.8-12.6c1.1-1.1,1.8-2.6,1.8-4.3c0-3.3-2.7-6-6-6c-3,0-5.4,2.2-5.9,5H18V2h-2v9.7L2.2,31.4C2.1,31.6,2,31.8,2,32l0,0v10h2V35.2z
	 M47,8c2.2,0,4,1.8,4,4s-1.8,4-4,4s-4-1.8-4-4S44.8,8,47,8z M17.5,13h23.6c0.5,2.8,2.9,5,5.9,5c0.9,0,1.8-0.2,2.6-0.6L59.8,32
	L46.5,51H18v-9h-2v6.8L4.2,32L17.5,13z"/>
</svg>
