<?xml version="1.0"?><svg id="Flat" viewBox="0 0 512 512" xmlns="http://www.w3.org/2000/svg"><defs><style>.cls-1{fill:#d6f4fc;}.cls-2{fill:#fff;}.cls-3{fill:#e8f8fc;}.cls-4{fill:#bdeffc;}.cls-5{fill:#fe4f60;}.cls-6{fill:#e84857;}.cls-7{fill:#ff6d7a;}</style></defs><title/><g data-name="48. Coronavirus on Petri dish" id="_48._Coronavirus_on_Petri_dish"><path class="cls-1" d="M256,24c127.27,0,232,104.73,232,232S383.27,488,256,488,24,383.27,24,256,128.73,24,256,24Z"/><path class="cls-2" d="M256,69c102.59,0,187,84.41,187,187S358.59,443,256,443,69,358.59,69,256,153.41,69,256,69Z"/><path class="cls-3" d="M256,69c102.59,0,187,84.41,187,187S358.59,443,256,443,69,358.59,69,256,153.41,69,256,69Z"/><path class="cls-1" d="M289.94,72.13c16.27,3,13.92,27-2.63,26.87C183.68,98.28,98.28,183.71,99,287.31c.12,16.55-23.84,18.9-26.87,2.63C48.3,162.14,161.62,48.2,289.94,72.13Z"/><path class="cls-4" d="M289.94,72.13c16.27,3,13.92,27-2.63,26.87C183.68,98.28,98.28,183.71,99,287.31c.12,16.55-23.84,18.9-26.87,2.63C48.3,162.14,161.62,48.2,289.94,72.13Z"/><circle class="cls-5" cx="375" cy="256" r="24"/><path class="cls-5" d="M221,167a49,49,0,1,1-49,49A49.23,49.23,0,0,1,221,167Z"/><path class="cls-6" d="M229.79,139H212.21a8,8,0,0,1,0-16h17.58a8,8,0,0,1,0,16Z"/><path class="cls-6" d="M229.79,309H212.21a8,8,0,0,1,0-16h17.58a8,8,0,0,1,0,16Z"/><path class="cls-6" d="M136,232.79a8,8,0,0,1-8-8V207.21a8,8,0,0,1,16,0v17.58A8,8,0,0,1,136,232.79Z"/><path class="cls-6" d="M306,232.79a8,8,0,0,1-8-8V207.21a8,8,0,0,1,16,0v17.58A8,8,0,0,1,306,232.79Z"/><path class="cls-6" d="M149,167.77a8,8,0,0,1,0-11.32L161.45,144a8,8,0,1,1,11.32,11.32l-12.43,12.43A8,8,0,0,1,149,167.77Z"/><path class="cls-6" d="M269.23,288a8,8,0,0,1,0-11.32l12.43-12.43A8,8,0,1,1,293,275.55L280.55,288A8,8,0,0,1,269.23,288Z"/><path class="cls-6" d="M161.45,288,149,275.55a8,8,0,1,1,11.32-11.32l12.43,12.43A8,8,0,1,1,161.45,288Z"/><path class="cls-6" d="M281.66,167.77l-12.43-12.43A8,8,0,1,1,280.55,144L293,156.45a8,8,0,1,1-11.32,11.32Z"/><circle class="cls-6" cx="276" cy="351" r="12"/><path class="cls-7" d="M222.46,190.63a51.38,51.38,0,0,0-26.76,26.8c-5.43,12.7-25.1,8.38-23.39-6.94a49.14,49.14,0,0,1,44.11-43.28C230.29,165.92,235.27,185.15,222.46,190.63Z"/><path class="cls-6" d="M222.36,209.05a13,13,0,1,1-13-13A13,13,0,0,1,222.36,209.05Z"/><path class="cls-7" d="M376.13,243.68a25.11,25.11,0,0,0-13.45,13.46c-2.57,6.22-12.26,4.74-11.59-3.2A24.08,24.08,0,0,1,373.61,232C380.48,231.65,382.48,241.05,376.13,243.68Z"/></g></svg>