<?xml version="1.0" encoding="utf-8"?>
<!-- Generator: Adobe Illustrator 24.3.0, SVG Export Plug-In . SVG Version: 6.00 Build 0)  -->
<svg version="1.1" id="Layer_1" xmlns="http://www.w3.org/2000/svg" xmlns:xlink="http://www.w3.org/1999/xlink" x="0px" y="0px"
	 viewBox="0 0 800 800" style="enable-background:new 0 0 800 800;" xml:space="preserve">
<style type="text/css">
	.st0{fill:#E6E6E6;}
	.st1{fill:#E88158;}
	.st2{fill:#D37250;}
	.st3{fill:#F4BD64;}
	.st4{fill:#DDA758;}
	.st5{stroke:#000000;stroke-width:6;stroke-miterlimit:10;}
	.st6{font-family:'MyriadPro-Regular';}
	.st7{font-size:125px;}
	.st8{fill:#FFFFFF;stroke:#FFFFFF;stroke-width:3;stroke-miterlimit:10;}
	.st9{font-size:80px;}
</style>
<path class="st0" d="M240.6,15.5H623H696c33.4,0,60.6,27.1,60.6,60.6v648.6c0,33.5-27.1,60.6-60.6,60.6H623H240.6"/>
<path class="st1" d="M104.9,128.9V76.1c0-33.4,27.1-60.6,60.6-60.6H621c33.4,0,60.6,27.1,60.6,60.6v648.6
	c0,33.5-27.1,60.6-60.6,60.6H165.5c-33.4,0-60.6-27.1-60.6-60.6v-52.9C104.9,671.9,104.9,128.9,104.9,128.9z"/>
<path class="st2" d="M147.2,724.7v-52.9V128.9V76.1c0-33.4,27.1-60.6,60.6-60.6h-40.3c-33.4,0-60.6,27.1-60.6,60.6v52.9v542.9v52.9
	c0,33.5,27.1,60.6,60.6,60.6h40.3C174.3,785.3,147.2,758.2,147.2,724.7z"/>
<g>
	<path class="st3" d="M146.8,611.5H74.4c-16.7,0-30.2,13.5-30.2,30.2l0,0c0,16.7,13.5,30.2,30.2,30.2h72.5
		c16.7,0,30.2-13.5,30.2-30.2l0,0C177,625,163.5,611.5,146.8,611.5z"/>
	<path class="st3" d="M146.8,370.2H74.4c-16.7,0-30.2,13.5-30.2,30.2l0,0c0,16.7,13.5,30.2,30.2,30.2h72.5
		c16.7,0,30.2-13.5,30.2-30.2l0,0C177,383.7,163.5,370.2,146.8,370.2z"/>
	<path class="st3" d="M146.8,128.9H74.4c-16.7,0-30.2,13.5-30.2,30.2l0,0c0,16.7,13.5,30.2,30.2,30.2h72.5
		c16.7,0,30.2-13.5,30.2-30.2l0,0C177,142.4,163.5,128.9,146.8,128.9z"/>
	<path class="st3" d="M146.8,490.8H74.4c-16.7,0-30.2,13.5-30.2,30.2l0,0c0,16.7,13.5,30.2,30.2,30.2h72.5
		c16.7,0,30.2-13.5,30.2-30.2l0,0C177,504.4,163.5,490.8,146.8,490.8z"/>
	<path class="st3" d="M146.8,249.6H74.4c-16.7,0-30.2,13.5-30.2,30.2l0,0c0,16.7,13.5,30.2,30.2,30.2h72.5
		c16.7,0,30.2-13.5,30.2-30.2l0,0C177,263.1,163.5,249.6,146.8,249.6z"/>
</g>
<g>
	<path class="st4" d="M107.3,663c5.5,5.5,13,8.8,21.4,8.8H74.4c-8.4,0-15.9-3.4-21.4-8.8c-5.5-5.5-8.8-13-8.8-21.4
		c0-16.7,13.5-30.2,30.2-30.2h54.3c-16.7,0-30.2,13.5-30.2,30.2C98.5,650,101.9,657.5,107.3,663z"/>
	<path class="st4" d="M107.3,421.7c5.5,5.5,13,8.8,21.4,8.8H74.4c-8.4,0-15.9-3.4-21.4-8.8c-5.5-5.5-8.8-13-8.8-21.4
		c0-16.7,13.5-30.2,30.2-30.2h54.3c-16.7,0-30.2,13.5-30.2,30.2C98.5,408.7,101.9,416.3,107.3,421.7z"/>
	<path class="st4" d="M107.3,180.5c5.5,5.5,13,8.8,21.4,8.8H74.4c-8.4,0-15.9-3.4-21.4-8.8c-5.5-5.5-8.8-13-8.8-21.4
		c0-16.7,13.5-30.2,30.2-30.2h54.3c-16.7,0-30.2,13.5-30.2,30.2C98.5,167.5,101.9,175,107.3,180.5z"/>
	<path class="st4" d="M107.3,542.4c5.5,5.5,13,8.8,21.4,8.8H74.4c-8.4,0-15.9-3.4-21.4-8.8c-5.5-5.5-8.8-13-8.8-21.4
		c0-16.7,13.5-30.2,30.2-30.2h54.3c-16.7,0-30.2,13.5-30.2,30.2C98.5,529.4,101.9,536.9,107.3,542.4z"/>
	<path class="st4" d="M107.3,301.1c5.5,5.5,13,8.8,21.4,8.8H74.4c-8.4,0-15.9-3.4-21.4-8.8c-5.5-5.5-8.8-13-8.8-21.4
		c0-16.7,13.5-30.2,30.2-30.2h54.3c-16.7,0-30.2,13.5-30.2,30.2C98.5,288.1,101.9,295.6,107.3,301.1z"/>
</g>
<path d="M756.2,604.8c8.3,0,15.1-6.8,15.1-15.1V75.7c0-41.7-33.9-75.7-75.7-75.7H290.5c-8.3,0-15.1,6.8-15.1,15.1
	s6.8,15.1,15.1,15.1h332.1c25.1,0,45.5,20.4,45.5,45.5v648.6c0,25.1-20.4,45.5-45.5,45.5H167.1c-25.1,0-45.5-20.4-45.5-45.5v-37.8
	h24.8c25,0,45.3-20.3,45.3-45.3c0-25-20.3-45.3-45.3-45.3h-24.8v-30.1h24.8c25,0,45.3-20.3,45.3-45.3c0-25-20.3-45.3-45.3-45.3
	h-24.8v-30.1h24.8c25,0,45.3-20.3,45.3-45.3s-20.3-45.3-45.3-45.3h-24.8v-30.1h24.8c25,0,45.3-20.3,45.3-45.3s-20.3-45.3-45.3-45.3
	h-24.8V204h24.8c25,0,45.3-20.3,45.3-45.3s-20.3-45.3-45.3-45.3h-24.8V75.7c0-25.1,20.4-45.5,45.5-45.5h73.1
	c8.3,0,15.1-6.8,15.1-15.1S248.5,0,240.2,0h-73.1c-41.7,0-75.7,33.9-75.7,75.7v37.8H74c-25,0-45.3,20.3-45.3,45.3
	c0,25,20.3,45.3,45.3,45.3h17.5v30.1H74c-25,0-45.3,20.3-45.3,45.3c0,25,20.3,45.3,45.3,45.3h17.5v30.1H74
	c-25,0-45.3,20.3-45.3,45.3S49,445.3,74,445.3h17.5v30.1H74c-25,0-45.3,20.3-45.3,45.3c0,25,20.3,45.3,45.3,45.3h17.5V596H74
	c-25,0-45.3,20.3-45.3,45.3S49,686.6,74,686.6h17.5v37.8c0,41.7,33.9,75.7,75.7,75.7h528.5c41.7,0,75.7-33.9,75.7-75.7v-84.3
	c0-8.3-6.8-15.1-15.1-15.1c-8.3,0-15.1,6.8-15.1,15.1v84.3c0,25.1-20.4,45.5-45.5,45.5H683c9.6-12.7,15.2-28.4,15.2-45.5V75.7
	c0-17.1-5.7-32.8-15.2-45.5h12.6c25.1,0,45.5,20.4,45.5,45.5v514.1C741.1,598.1,747.9,604.8,756.2,604.8z M58.9,158.7
	c0-8.3,6.8-15.1,15.1-15.1h72.5c8.3,0,15.1,6.8,15.1,15.1c0,8.3-6.8,15.1-15.1,15.1H74C65.6,173.8,58.9,167,58.9,158.7z M58.9,279.4
	c0-8.3,6.8-15.1,15.1-15.1h72.5c8.3,0,15.1,6.8,15.1,15.1c0,8.3-6.8,15.1-15.1,15.1H74C65.6,294.5,58.9,287.7,58.9,279.4z M58.9,400
	c0-8.3,6.8-15.1,15.1-15.1h72.5c8.3,0,15.1,6.8,15.1,15.1c0,8.3-6.8,15.1-15.1,15.1H74C65.6,415.1,58.9,408.3,58.9,400z M58.9,520.6
	c0-8.3,6.8-15.1,15.1-15.1h72.5c8.3,0,15.1,6.8,15.1,15.1c0,8.3-6.8,15.1-15.1,15.1H74C65.6,535.7,58.9,529,58.9,520.6z M58.9,641.3
	c0-8.3,6.8-15.1,15.1-15.1h72.5c8.3,0,15.1,6.8,15.1,15.1c0,8.3-6.8,15.1-15.1,15.1H74C65.6,656.4,58.9,649.6,58.9,641.3z"/>
<text transform="matrix(1 0 0 1 217.23 294.4529)" class="st5 st6 st7">Biology</text>
<text transform="matrix(1 0 0 1 218.7738 415.0945)" class="st8 st6 st9">Classification</text>
</svg>
