<svg id="Layer_1" data-name="Layer 1" xmlns="http://www.w3.org/2000/svg" viewBox="0 0 512 512"><path d="M87.932,158.594A3.632,3.632,0,0,1,84.4,154.1l17.828-72.817a3.629,3.629,0,0,1,7.049,1.726L91.453,155.828A3.63,3.63,0,0,1,87.932,158.594Z" fill="#b98d5a"/><path d="M66.041,158.594a3.63,3.63,0,0,1-3.521-2.766L44.692,83.011a3.629,3.629,0,0,1,7.049-1.726L69.569,154.1a3.631,3.631,0,0,1-3.528,4.492Z" fill="#b98d5a"/><path d="M193.776,319.788c-76.408,5.821-76.408-45.481-76.408-45.481V176.659a34.884,34.884,0,0,0-34.884-34.883H53.667a22.634,22.634,0,0,0-22.552,24.857c1.749,17.414,8.59,38.781,30.675,45.82v88.779s-7,131.348,143.629,145.175H454.252c12.292,0,17.36-15.762,7.372-22.927l-71.007-50.934Z" fill="#f9c27a"/><path d="M258.618,363.021s49.588,86.3,148.918,41c0,0,112.046-54.395,59.388-185.38,0,0-50.473-118.614-189.463-95.328,0,0-112.065,21.1-133.168,141.9,0,0-7.086,35.011,3.633,66.229,8.619,25.1,32.212,41.851,58.687,43.741C221.179,376.221,239.172,373.851,258.618,363.021Z" fill="#b98d5a"/><path d="M407.548,404.028c-92.5,42.169-141.895-29.794-148.246-39.847a12.324,12.324,0,0,1-.689-1.161c-2.178,1.2-4.319,2.323-6.46,3.3a90.125,90.125,0,0,1-45.544,8.855c-26.456-1.887-50.081-18.617-58.682-43.729-10.7-31.21-3.629-66.23-3.629-66.23,21.085-120.811,133.149-141.9,133.149-141.9,138.993-23.3,189.472,95.3,189.472,95.3C519.577,349.629,407.548,404.028,407.548,404.028Z" fill="#b98d5a"/><path d="M396.661,296.173a63.274,63.274,0,0,1-34.984,54.291c-20.5,10.125-37.669,3.883-48.447-3.158a46.957,46.957,0,0,1-19.2-25.076,40.789,40.789,0,0,1,3.484-32.879,36.277,36.277,0,0,1,29.976-18.436c22.572-.8,32.371,19.125,34.4,29.831a3.637,3.637,0,0,1-7.149,1.343c-.182-.98-4.754-23.952-25.839-23.952-.363,0-.762.036-1.161.036a28.885,28.885,0,0,0-23.879,14.734,33.243,33.243,0,0,0-2.9,27.182,39.818,39.818,0,0,0,16.258,21.157c9.181,5.988,23.77,11.322,41.226,2.722A55.962,55.962,0,0,0,389.4,295.956c.4-15.061-5.044-28.452-16.185-39.738a72.512,72.512,0,0,0-74.976-17.456c-17.456,6.1-30.883,17.6-39.883,34.222-6.024,11.177-9.327,24.351-9.762,39.157-.291,9.907.145,34.294,10.016,50.879-2.178,1.2-4.319,2.323-6.46,3.3-10.633-18.217-11.1-43.911-10.814-54.362.472-15.968,4.064-30.267,10.669-42.46,9.835-18.218,24.6-30.883,43.875-37.561a79.658,79.658,0,0,1,82.488,19.2C390.964,263.875,397.133,279.008,396.661,296.173Z" fill="#936e4c"/><path d="M105.756,65.593A13.554,13.554,0,1,0,119.31,79.147,13.553,13.553,0,0,0,105.756,65.593Z" fill="#58595b"/><path d="M48.216,65.593A13.554,13.554,0,1,1,34.663,79.147,13.554,13.554,0,0,1,48.216,65.593Z" fill="#58595b"/></svg>