<?xml version="1.0" encoding="utf-8"?>
<!-- Generator: Adobe Illustrator 24.3.0, SVG Export Plug-In . SVG Version: 6.00 Build 0)  -->
<svg version="1.1" id="Layer_1" xmlns="http://www.w3.org/2000/svg" xmlns:xlink="http://www.w3.org/1999/xlink" x="0px" y="0px"
	 viewBox="0 0 512 512" style="enable-background:new 0 0 512 512;" xml:space="preserve">
<style type="text/css">
	.st0{fill:#E5AD76;}
	.st1{fill:#49C160;}
	.st2{fill:#50DD5A;}
	.st3{fill:#CC915C;}
	.st4{fill:#A07450;}
	.st5{fill:#B7885E;}
	.st6{fill:#436F1E;}
</style>
<path class="st0" d="M495.9,234.3v111.9l-2.1,2c-32.5,30.5-83.1,30.5-115.6,0l-2.2-2.1l-2.2,2c-32.5,30.5-83.1,30.5-115.6,0l-2.2-2
	l-2.1,2c-32.5,30.5-83.1,30.5-115.7,0l-2.1-2l-2.2,2c-32.5,30.5-83.1,30.5-115.7,0l-2-1.9V234.3h40.7c10.4,0.1,19.4,7.1,22,17.1
	c9.4,34.2,44.8,54.3,79,44.8c21.8-6,38.8-23,44.8-44.8c2.6-10,11.7-17,22-17.1h62.5c10.4,0.1,19.4,7.1,22,17.1
	c9.4,34.2,44.8,54.3,79,44.8c21.8-6,38.8-23,44.8-44.8c2.6-10,11.7-17,22-17.1L495.9,234.3z"/>
<path class="st1" d="M461.8,144.4v23.2c0,23.6-19.1,42.7-42.7,42.7c0,0,0,0,0,0h-23.7v0l65.9-65.9L461.8,144.4z"/>
<path class="st2" d="M461.4,144.4l-66,65.9v-23.7c0-23.6,19.1-42.7,42.7-42.7h23.7v0.5H461.4z"/>
<path class="st1" d="M392.9,75.4c16.7,16.7,16.7,43.7,0,60.4l-16.8,16.8V59.6l0.5-0.5L392.9,75.4z"/>
<path class="st2" d="M376.1,59.6v92.9l-16.8-16.8c-16.7-16.7-16.7-43.7,0-60.4c0,0,0,0,0,0l16.8-16.8l0.5,0.5L376.1,59.6z"/>
<path class="st2" d="M356.9,177.3V201l-66-66v-0.5h23.2C337.7,134.6,356.9,153.7,356.9,177.3C356.9,177.3,356.9,177.3,356.9,177.3z"
	/>
<path class="st1" d="M290.4,158.3v-23.7h0.5v0.5l65.9,66h-23.7C309.6,201,290.4,181.9,290.4,158.3
	C290.4,158.3,290.4,158.3,290.4,158.3z"/>
<path class="st1" d="M156.9,191.7l-4.6-18.2c-8.5-33.7,11.9-68,45.6-76.5c5.8-1.5,11.7-2.1,17.7-1.9l14.1,0.5l4.3,13.5
	c10.7,33.1-7.6,68.6-40.7,79.2c-5.7,1.8-11.6,2.8-17.5,3l-18.9,0.5L156.9,191.7z"/>
<path class="st2" d="M118.6,196.6L118.6,196.6l-13.8,2.5c-25.2,4.5-49.4-12.3-53.9-37.5c-0.8-4.3-0.9-8.7-0.5-13.1l1.1-10.4
	l10.1-2.5c24.9-6.1,50.1,9.1,56.2,34c1,4.3,1.5,8.6,1.3,13L118.6,196.6z"/>
<path class="st3" d="M495.9,346.2v107.2H16.1V346.2l2,1.9c32.5,30.5,83.1,30.5,115.7,0l2.2-2l2.1,2c32.5,30.5,83.1,30.5,115.7,0
	l2.1-2l2.2,2c32.5,30.5,83.1,30.5,115.6,0l2.2-2l2.2,2.1c32.5,30.5,83.1,30.5,115.6,0L495.9,346.2z"/>
<path class="st4" d="M46.1,365.5c-10.4-3.9-19.9-9.8-28-17.4l-2-1.9v107.2h30V365.5z"/>
<path class="st5" d="M46.1,234.3h-30v111.9l2,1.9c8.1,7.6,17.6,13.5,28,17.4V234.3z"/>
<path class="st6" d="M195.3,126.3c-28,27.9-47.2,63.4-55.2,102c-8.9-28-27.7-51.8-52.9-67c-2.3-1.5-5.4-0.8-6.9,1.6
	s-0.8,5.4,1.6,6.9c0.1,0,0.1,0.1,0.2,0.1c30.7,18.4,50.5,50.6,53.3,86.2l0.5,7c0.2,2.6,2.4,4.6,5,4.6h0.1c2.6,0,4.8-2.1,4.9-4.8
	l0.1-1.3c2.1-48.3,22.2-94.1,56.4-128.3c1.9-2,1.9-5.1,0-7.1C200.4,124.3,197.3,124.3,195.3,126.3z"/>
<path class="st6" d="M461.4,142.4L461.4,142.4c-2-2-5.1-2-7.1,0l-73.2,73.2V57.8c0-2.6-1.9-4.9-4.5-5.2c-2.7-0.3-5.2,1.7-5.5,4.5
	c0,0.2,0,0.3,0,0.5v148.6L298,133c-2-2-5.1-2-7.1,0l0,0c-2,2-2,5.1,0,7.1l80.2,80.2v40.2c0,2.6,1.9,4.9,4.5,5.2
	c2.7,0.3,5.2-1.7,5.5-4.5c0-0.2,0-0.3,0-0.5v-31.1l80.2-80.2C463.3,147.5,463.3,144.3,461.4,142.4z"/>
</svg>
