<svg id="Layer_1" data-name="Layer 1" xmlns="http://www.w3.org/2000/svg" viewBox="0 0 512 512"><path d="M308,374.91a186.947,186.947,0,0,1-80.8,0l-21.27,16.05v29.16a225.6,225.6,0,0,0,123.33,0V390.96Z" style="fill:#ffc9c0"/><path d="M310.78,167.99l-13.96,34.28c-17.054-12.279-16.425,15.251-29.22,14.91-12.732.434-12.154-27.195-29.22-14.91l-14.05-34.48A138.921,138.921,0,0,1,310.78,167.99Z" style="fill:#e2aaa1"/><path d="M306.49,371.04a28.23,28.23,0,0,0,1.51,3.87,186.947,186.947,0,0,1-80.8,0c1.189-2.48,4.056-12.086,4.9-14.9,4.993-14.653,18.482-1.032,25.95-10.719,2.155-2.034,5.888-9.4,9.55-8.941a5,5,0,0,1,3.89,1.87c4.068,5.385,9.727,13.779,17.67,10.619C301.31,349.12,304.057,362.359,306.49,371.04Z" style="fill:#e2aaa1"/><path d="M310.78,167.99c8.036-24.869,22.17-45.487,51.111-43.249,36.15,3.571,38.69,38.06,41.257,66.86A276.522,276.522,0,0,1,357.83,380.7,28.769,28.769,0,0,1,334,393.35c-18.832-.029-27.319-15-30.909-31.341-5.017-14.684-18.508-1.019-25.951-10.718-2.888-3.441-8.309-13.133-13.43-7.071l-5.66,7.07c-7.488,9.7-20.959-3.937-25.95,10.721a156.657,156.657,0,0,1-4.9,14.9c-8.57,19.738-38.328,22.08-49.831,3.791h-.01a276.336,276.336,0,0,1-45.31-189.1c3.4-30.128,3.5-61.808,41.251-66.86,28.916-2.159,42.97,18.16,51.028,43.051L238.38,202.27c14.493-10.568,16.593,8.45,24.519,13.69,17.1,8.455,15.494-27.4,33.921-13.69Z" style="fill:#fb6771"/><path d="M207.37,380.7h-.01a276.336,276.336,0,0,1-45.31-189.1c3.045-26.976,3.469-55.181,30.615-64.417A45.3,45.3,0,0,0,173.3,124.74c-37.747,5.052-37.85,36.732-41.251,66.86a276.336,276.336,0,0,0,45.31,189.1h.01c8.334,13.25,26.245,15.664,38.744,8.486A25.763,25.763,0,0,1,207.37,380.7Z" style="fill:#cc4054"/><path d="M367.58,213.85c15.812.068,15.811,24.115,0,24.18C351.768,237.962,351.769,213.915,367.58,213.85Z" style="fill:#ff9fa8"/><path d="M352.42,159.25c15.81.072,15.808,24.111,0,24.18C336.6,183.36,336.6,159.318,352.42,159.25Z" style="fill:#ff9fa8"/><path d="M343.48,265.03c15.816.075,15.805,24.12,0,24.19C327.674,289.148,327.665,265.1,343.48,265.03Z" style="fill:#ff9fa8"/><path d="M351.22,29.54a114.629,114.629,0,0,1-9.38,98.08c-17.153,5.532-25.429,24.445-31.06,40.37a138.921,138.921,0,0,0-86.45-.2c-5.4-14.877-12.808-32.915-28.39-39.05C175.879,96.519,173.991,56.5,188.7,21.77c2.615-8.6,17.012-6.948,15.079,2.781a86.613,86.613,0,0,0-.21,37.889c7.756,21.687,37.29-19.462,49.959,3.371L264.41,85.53c12.966,14.279,14-35.964,36.98-25.759,9.922,3.258,27.578,17.036,32.4.7,3-12.9,1.83-26.147-1.481-38.84,1.013-9.851,15.164-4.925,16.88,2.31Z" style="fill:#f5cac1"/><path d="M337.58,327.56c15.812.068,15.811,24.115,0,24.18C321.768,351.672,321.769,327.625,337.58,327.56Z" style="fill:#ff9fa8"/><path d="M205.93,460v36H329.26V460.01Z" style="fill:#ffc9c0"/><path d="M314.62,222.43c15.824.07,15.822,24.112,0,24.18C298.81,246.538,298.812,222.5,314.62,222.43Z" style="fill:#ff9fa8"/><path d="M297.6,296.65c15.812.068,15.811,24.115,0,24.18C281.788,320.762,281.789,296.715,297.6,296.65Z" style="fill:#ff9fa8"/><path d="M267.21,249.1c15.824.07,15.822,24.112,0,24.18C251.4,273.212,251.4,249.165,267.21,249.1Z" style="fill:#ff9fa8"/><path d="M238.9,287.52c15.812.068,15.811,24.115,0,24.18C223.088,311.632,223.089,287.585,238.9,287.52Z" style="fill:#ff9fa8"/><path d="M217.8,222.51c15.828.077,15.817,24.117,0,24.19C202,246.623,201.988,222.587,217.8,222.51Z" style="fill:#ff9fa8"/><path d="M197.39,321.35c15.806.072,15.815,24.117,0,24.19C181.574,345.465,181.585,321.42,197.39,321.35Z" style="fill:#ff9fa8"/><path d="M176.16,260.8c15.812.068,15.811,24.115,0,24.18C160.348,284.912,160.349,260.865,176.16,260.8Z" style="fill:#ff9fa8"/><path d="M174.63,184.56c15.812.068,15.811,24.115,0,24.18C158.818,208.672,158.819,184.625,174.63,184.56Z" style="fill:#ff9fa8"/><path d="M205.93,420.12a225.771,225.771,0,0,0,128.73-1.6,66.686,66.686,0,0,1,0,39.89,225.932,225.932,0,0,1-134.12,0,66.554,66.554,0,0,1,0-39.89Q203.225,419.36,205.93,420.12Z" style="fill:#e2aaa1"/><path d="M143.214,370.239a5,5,0,0,1-4.344-2.515A280.32,280.32,0,0,1,105.045,271.4a5,5,0,1,1,9.879-1.547,270.324,270.324,0,0,0,32.624,92.895,5,5,0,0,1-4.334,7.486Z" style="fill:#d4e1f4"/><path d="M107.289,251.613a5,5,0,0,1-4.983-4.661c-.3-4.393-.5-8.852-.587-13.252a5,5,0,1,1,10-.207c.088,4.244.278,8.545.565,12.781a5,5,0,0,1-4.649,5.328C107.518,251.609,107.4,251.613,107.289,251.613Z" style="fill:#d4e1f4"/></svg>