<?xml version="1.0" encoding="utf-8"?>
<!-- Generator: Adobe Illustrator 24.3.0, SVG Export Plug-In . SVG Version: 6.00 Build 0)  -->
<svg version="1.1" id="Layer_2_1_" xmlns="http://www.w3.org/2000/svg" xmlns:xlink="http://www.w3.org/1999/xlink" x="0px" y="0px"
	 viewBox="0 0 800 800" style="enable-background:new 0 0 800 800;" xml:space="preserve">
<style type="text/css">
	.st0{fill:#DE3226;}
	.st1{fill:#F4C23F;}
	.st2{fill:#67BAEB;}
	.st3{fill:#B11A31;}
	.st4{fill:#F4A93F;}
	.st5{fill:#46A1F8;}
	.st6{fill:#4D4C78;}
	.st7{fill:#F44533;}
	.st8{fill:#83D0FB;}
	.st9{fill:#FAD564;}
</style>
<polygon class="st0" points="371.2,269.4 220.8,269.4 145.7,399.6 220.8,529.8 371.2,529.8 446.4,399.6 "/>
<polygon class="st1" points="596.7,400.1 446.3,400.1 371.2,530.3 446.3,660.5 596.7,660.5 671.9,530.3 "/>
<polygon class="st2" points="596.7,400.1 446.3,400.1 371.2,269.9 446.3,139.6 596.7,139.6 671.9,269.9 "/>
<polygon class="st3" points="252.8,269.4 220.8,269.4 145.7,399.6 220.8,529.8 252.8,529.8 177.6,399.6 "/>
<polygon class="st4" points="478.3,400.1 446.3,400.1 371.2,530.3 446.3,660.5 478.3,660.5 403.1,530.3 "/>
<polygon class="st5" points="478.3,139.6 446.3,139.6 371.2,269.9 446.3,400.1 478.3,400.1 403.1,269.9 "/>
<path class="st6" d="M371.2,537.6H220.8c-2.8,0-5.4-1.5-6.8-3.9l-75.2-130.2c-1.4-2.4-1.4-5.4,0-7.8l75.2-130.2
	c1.4-2.4,4-3.9,6.8-3.9h150.4c2.8,0,5.4,1.5,6.8,3.9l75.2,130.2c1.4,2.4,1.4,5.4,0,7.8L378,533.7C376.6,536.1,374,537.6,371.2,537.6
	z M225.4,522h141.3l70.7-122.4l-70.7-122.4H225.4l-70.7,122.4L225.4,522z"/>
<path class="st6" d="M596.7,668.3H446.3c-2.8,0-5.4-1.5-6.8-3.9l-75.2-130.2c-1.4-2.4-1.4-5.4,0-7.8l75.2-130.2
	c1.4-2.4,4-3.9,6.8-3.9h150.4c2.8,0,5.4,1.5,6.8,3.9l75.2,130.2c1.4,2.4,1.4,5.4,0,7.8l-75.2,130.2
	C602.1,666.8,599.5,668.3,596.7,668.3z M450.8,652.7h141.3l70.7-122.4l-70.7-122.4H450.8l-70.7,122.4L450.8,652.7z"/>
<path class="st6" d="M596.7,407.9H446.3c-2.8,0-5.4-1.5-6.8-3.9l-75.2-130.2c-1.4-2.4-1.4-5.4,0-7.8l75.2-130.3
	c1.4-2.4,4-3.9,6.8-3.9h150.4c2.8,0,5.3,1.5,6.8,3.9L678.7,266c1.4,2.4,1.4,5.4,0,7.8L603.5,404
	C602.1,406.4,599.5,407.9,596.7,407.9z M450.8,392.3h141.3l70.7-122.4l-70.7-122.5H450.8l-70.7,122.5L450.8,392.3z"/>
<path class="st6" d="M145.7,407.4H67.8c-4.3,0-7.8-3.5-7.8-7.8c0-4.3,3.5-7.8,7.8-7.8h77.9c4.3,0,7.8,3.5,7.8,7.8
	C153.5,403.9,150,407.4,145.7,407.4z"/>
<path class="st6" d="M596.7,147.4c-1.3,0-2.6-0.3-3.7-1c-3.8-2-5.2-6.7-3.2-10.5c0,0,0,0,0-0.1l47.8-88.1c2.1-3.8,6.8-5.2,10.6-3.1
	c3.8,2.1,5.2,6.8,3.1,10.6l-47.8,88.1C602.2,145.9,599.6,147.4,596.7,147.4z"/>
<path class="st6" d="M634.9,734.1c-2.8,0-5.4-1.5-6.8-3.9L590,664.5c-2.2-3.7-0.9-8.5,2.8-10.7c3.7-2.2,8.5-0.9,10.7,2.8l38.2,65.7
	c2.2,3.7,0.9,8.5-2.8,10.6c0,0,0,0,0,0C637.7,733.7,636.3,734.1,634.9,734.1z"/>
<path class="st6" d="M435.2,702c-4.4-0.1-7.8-3.6-7.8-8c0-0.8,0.1-1.5,0.4-2.3l11.2-33.7c1.1-4.2,5.4-6.6,9.6-5.5
	c4.2,1.1,6.6,5.4,5.5,9.6c-0.1,0.3-0.2,0.5-0.3,0.8l-11.2,33.7C441.5,699.9,438.5,702.1,435.2,702z"/>
<path class="st6" d="M446.4,147.4c-2.3,0-4.5-1-6-2.8L414.5,114c-2.8-3.3-2.4-8.2,0.9-11c3.3-2.8,8.2-2.4,11,0.9l25.9,30.7
	c2.8,3.2,2.4,8.1-0.9,10.9c0,0-0.1,0-0.1,0.1C450,146.8,448.2,147.4,446.4,147.4z"/>
<path class="st6" d="M220.8,277.2c-2.4,0-4.6-1.1-6.1-3l-22.8-28.9c-2.7-3.4-2.1-8.3,1.3-11c3.4-2.7,8.3-2.1,11,1.3l22.8,28.9
	c2.7,3.4,2.1,8.2-1.2,10.9c0,0,0,0-0.1,0.1C224.3,276.6,222.6,277.2,220.8,277.2z"/>
<path class="st6" d="M671.9,277.7c-4.3,0-7.8-3.4-7.9-7.7c0-4.3,3.4-7.8,7.7-7.9l27.4-0.5c4.3-0.1,7.9,3.4,7.9,7.7
	c0.1,4.3-3.4,7.9-7.7,7.9l-27.4,0.5H671.9z"/>
<path class="st6" d="M671.9,538.1c-4.3,0.1-7.9-3.4-7.9-7.7c-0.1-3.9,2.8-7.3,6.7-7.8l30.5-4.8c4.2-0.8,8.3,2,9.1,6.2
	c0.8,4.2-2,8.3-6.2,9.1c-0.1,0-0.3,0.1-0.4,0.1l-30.5,4.8L671.9,538.1z"/>
<path class="st6" d="M213.5,557.6c-0.9,0-1.8-0.2-2.7-0.5c-4-1.5-6.1-5.9-4.6-10c0,0,0,0,0-0.1l7.4-19.9c1.6-4,6.1-6,10.1-4.4
	c3.9,1.5,5.9,5.9,4.5,9.8l-7.4,19.9C219.7,555.5,216.7,557.6,213.5,557.6z"/>
<path class="st7" d="M360.8,293.1L360.8,293.1c5.5-3.2,12.5-1.3,15.6,4.2l40.6,70.3c3.2,5.5,1.3,12.5-4.2,15.6l0,0
	c-5.5,3.2-12.5,1.3-15.6-4.2l-40.6-70.3C353.5,303.2,355.3,296.2,360.8,293.1z"/>
<path class="st7" d="M393.6,448L393.6,448c-5.5-3.2-7.3-10.2-4.2-15.6l15.7-27.2c3.2-5.5,10.2-7.3,15.6-4.2l0,0
	c5.5,3.2,7.3,10.2,4.2,15.6l-15.7,27.2C406.1,449.3,399.1,451.1,393.6,448z"/>
<path class="st8" d="M584.8,163.7L584.8,163.7c5.5-3.2,12.5-1.3,15.6,4.2l40.6,70.3c3.2,5.5,1.3,12.5-4.2,15.6l0,0
	c-5.5,3.2-12.5,1.3-15.6-4.2l-40.6-70.3C577.5,173.9,579.4,166.9,584.8,163.7z"/>
<path class="st8" d="M604.1,345.1L604.1,345.1c-5.5-3.2-7.3-10.2-4.2-15.6l30.8-53.3c3.2-5.5,10.2-7.3,15.6-4.2l0,0
	c5.5,3.2,7.3,10.2,4.2,15.6l-30.8,53.3C616.5,346.4,609.5,348.3,604.1,345.1z"/>
<path class="st9" d="M584.8,426L584.8,426c5.5-3.2,12.5-1.3,15.6,4.2l40.6,70.3c3.2,5.5,1.3,12.5-4.2,15.6v0
	c-5.5,3.2-12.5,1.3-15.6-4.2l-40.6-70.3C577.5,436.2,579.3,429.2,584.8,426z"/>
<path class="st9" d="M610.3,593.1L610.3,593.1c-5.5-3.2-7.3-10.2-4.2-15.6l21.4-37.1c3.2-5.5,10.2-7.3,15.6-4.2l0,0
	c5.5,3.2,7.3,10.2,4.2,15.6l-21.4,37.1C622.7,594.4,615.7,596.2,610.3,593.1z"/>
</svg>
