<svg id="Layer_1" data-name="Layer 1" xmlns="http://www.w3.org/2000/svg" viewBox="0 0 512 512"><path d="M272.09,16.02c64.87,1.04,117.06,52.01,116.94,114.63-.06,34.48-11.97,65.38-37.09,86.31a50.384,50.384,0,0,0-18.29,38.63v1.04a51.1,51.1,0,0,0,18.5,39.01c24.96,21.12,36.62,52.13,36.41,86.65-.4,63.97-54.62,114.85-121.11,113.69-64.79-1.13-116.89-52.06-116.77-114.63.07-36.63,14.01-69.21,41.89-90.1a43.442,43.442,0,0,0,17.53-34.7l.01-1.31a44.133,44.133,0,0,0-17.79-35.06c-27.82-21.18-41.54-54.07-41.16-90.91C151.8,65.98,206.31,14.96,272.09,16.02Z" style="fill:#ffd8b7"/><path d="M270.25,44.89a90.017,90.017,0,0,1,63.91,153.24,81.983,81.983,0,0,0-23.85,57.4V257a81.266,81.266,0,0,0,23.55,57.03,90.019,90.019,0,1,1-122.66-5.41,69.43,69.43,0,0,0,24.1-52.68v-.1a70.62,70.62,0,0,0-24.4-53.11A90.016,90.016,0,0,1,270.25,44.89Z" style="fill:#6addc7"/><path d="M301.59,172.93a9.91,9.91,0,1,0-9.9-9.93A9.914,9.914,0,0,0,301.59,172.93Z" style="fill:#4689d3"/><path d="M301.19,376.08a9.91,9.91,0,1,0,9.89,9.93A9.914,9.914,0,0,0,301.19,376.08Z" style="fill:#4689d3"/><path d="M279.24,90.37a9.915,9.915,0,1,0,9.89,9.94A9.91,9.91,0,0,0,279.24,90.37Z" style="fill:#4689d3"/><path d="M253.06,335.19a9.91,9.91,0,1,0,9.89,9.93A9.914,9.914,0,0,0,253.06,335.19Z" style="fill:#4689d3"/><path d="M231.93,140.11a9.915,9.915,0,1,0,9.89,9.93A9.925,9.925,0,0,0,231.93,140.11Z" style="fill:#4689d3"/><path d="M230.44,397.83a9.915,9.915,0,1,0,9.89,9.93A9.916,9.916,0,0,0,230.44,397.83Z" style="fill:#4689d3"/><path d="M209.61,376.92a89.823,89.823,0,0,1,31.59-68.3,69.43,69.43,0,0,0,24.1-52.68v-.1a70.62,70.62,0,0,0-24.4-53.11A90.025,90.025,0,0,1,285.063,46.14,90.019,90.019,0,0,0,210.9,202.73a70.62,70.62,0,0,1,24.4,53.11v.1a69.43,69.43,0,0,1-24.1,52.68,90,90,0,0,0,73.389,157.226A90.041,90.041,0,0,1,209.61,376.92Z" style="fill:#60baa8"/><path d="M125.8,363.148a6.122,6.122,0,0,1-1.24-.128,6,6,0,0,1-4.638-7.107c.409-1.945.868-3.9,1.363-5.818A6,6,0,1,1,132.9,353.1c-.449,1.737-.865,3.514-1.236,5.281A6,6,0,0,1,125.8,363.148Z" style="fill:#d4e1f4"/><path d="M135.571,441.353a6,6,0,0,1-5.324-3.226,115.74,115.74,0,0,1-13.28-53.989,6,6,0,0,1,6-6h0a6,6,0,0,1,6,6,103.847,103.847,0,0,0,11.919,48.444,6,6,0,0,1-5.315,8.777Z" style="fill:#d4e1f4"/><path d="M269.758,433.914a6,6,0,0,1-5.885-4.869l-6.9-35.912a6,6,0,1,1,11.784-2.264l6.9,35.912a6,6,0,0,1-4.76,7.025A6.064,6.064,0,0,1,269.758,433.914Z" style="fill:#b0b5ca"/><path d="M308,337a5.965,5.965,0,0,1-2.686-.639l-19.283-9.676a6,6,0,0,1,5.383-10.725l19.282,9.677A6,6,0,0,1,308,337Z" style="fill:#b0b5ca"/><path d="M256.7,197.812a6,6,0,0,1-5.063-9.211l11.539-18.219a6,6,0,1,1,10.138,6.42l-11.539,18.219A6,6,0,0,1,256.7,197.812Z" style="fill:#b0b5ca"/><path d="M229.869,114.763a6,6,0,0,1-5.063-9.211l11.539-18.22a6,6,0,1,1,10.137,6.42l-11.539,18.22A6,6,0,0,1,229.869,114.763Z" style="fill:#b0b5ca"/></svg>