<?xml version="1.0" encoding="utf-8"?>
<!-- Generator: Adobe Illustrator 16.0.0, SVG Export Plug-In . SVG Version: 6.00 Build 0)  -->
<!DOCTYPE svg PUBLIC "-//W3C//DTD SVG 1.0//EN" "http://www.w3.org/TR/2001/REC-SVG-20010904/DTD/svg10.dtd">
<svg version="1.0" id="Layer_1" xmlns="http://www.w3.org/2000/svg" xmlns:xlink="http://www.w3.org/1999/xlink" x="0px" y="0px"
	 width="100px" height="100px" viewBox="0 0 100 100" enable-background="new 0 0 100 100" xml:space="preserve">
<path fill="#EEEAE8" d="M50,90V63.333h-6.667V90H16.667V53.333c0-5.872,5.078-11.868,10.869-12.832l33.695-5.618
	c8.655-1.439,15.437-8.711,15.437-16.55V10H90v80H50z"/>
<path fill="#D7CCC8" d="M76.667,10v8.333c0,7.839-6.781,15.11-15.437,16.55l-33.695,5.618c-5.791,0.964-10.869,6.96-10.869,12.832
	V90h4V53.333c0-3.924,3.657-8.242,7.526-8.887l33.692-5.618c10.531-1.751,18.781-10.753,18.781-20.495V10H76.667z"/>
<path fill="#BDBCBC" d="M33.333,90V72.721c0-1.224,0.495-2.721,1.101-3.32c0.599-0.605,1.094-1.101,1.094-1.101
	c0.703-0.703,1.14-1.673,1.14-2.747c0-2.148-1.742-3.887-3.889-3.887c-0.998,0-1.896,0.384-2.583,1.003
	c-0.833-0.625-1.855-1.003-2.972-1.003c-2.148,0-3.89,1.738-3.89,3.887c0,1.074,0.435,2.044,1.14,2.747c0,0,0.493,0.495,1.097,1.101
	c0.604,0.6,1.098,2.097,1.098,3.32V90H33.333z"/>
<path fill="#BDBCBC" d="M78.945,49.999H68.301c-5.452,0-14.788,0.833-20.388,1.823l-10.903,1.92
	c-1.204,0.216-2.591,0.964-3.079,1.661c-0.492,0.696-0.892,1.269-0.892,1.269c-0.569,0.814-1.448,1.414-2.506,1.602
	c-2.116,0.372-4.134-1.041-4.508-3.156c-0.192-1.102,0.003-2.175,0.472-3.104c-0.726-0.568-1.263-1.387-1.436-2.372
	c-0.375-2.113,1.039-4.131,3.154-4.502c1.058-0.186,2.09,0.075,2.904,0.645c0,0,0.573,0.4,1.276,0.885
	c0.693,0.492,2.256,0.72,3.457,0.508c0,0,4.906-0.865,10.903-1.923c5.996-1.055,15.694-1.921,21.546-1.921s10.645,0,10.645,0
	c1.221,0,2.718-0.495,3.317-1.101c0.604-0.599,1.1-1.094,1.1-1.094C84.065,40.436,85.036,40,86.109,40
	C88.258,40,90,41.738,90,43.887c0,1.119-0.381,2.142-1.003,2.975C89.612,47.545,90,48.443,90,49.446
	c0,2.142-1.742,3.887-3.891,3.887c-1.073,0-2.044-0.437-2.747-1.14c0,0-0.495-0.495-1.1-1.094
	C81.663,50.494,80.166,49.999,78.945,49.999z"/>
<path fill="#C3996B" d="M70,10c0,0,0,3.75,0,8.333s-4.44,9.072-9.863,9.974L26.44,33.926C17.397,35.43,10,44.166,10,53.333V90h6.667
	V53.333c0-5.872,5.078-11.868,10.869-12.832l33.695-5.618c8.655-1.439,15.437-8.711,15.437-16.55V10H70z"/>
<rect x="43.333" y="63.333" fill="#C3996B" width="6.667" height="26.667"/>
<rect x="43.333" y="86" fill="#A87C4F" width="6.667" height="4"/>
<rect x="10" y="86" fill="#A87C4F" width="6.667" height="4"/>
<path fill="#BDBCBC" d="M56.667,78.495C66.784,81.627,78.229,83.333,90,83.333V90c-11.67,0-23.07-1.602-33.333-4.558V78.495z"/>
<path fill="#BDBCBC" d="M56.667,66.094c9.684,3.6,21.257,5.572,33.333,5.572v6.667c-11.895,0-23.408-1.81-33.333-5.15V66.094z"/>
<path fill="#BDBCBC" d="M63.333,56.002v6.959c7.992,2.403,17.139,3.705,26.667,3.705V60C80.094,60,70.911,58.521,63.333,56.002z"/>
<path fill="#9D9D9D" d="M27.223,64.865c1.117,0,2.139,0.379,2.972,1.004c0.687-0.619,1.585-1.004,2.583-1.004
	c1.574,0,2.924,0.94,3.535,2.287c0.222-0.489,0.354-1.027,0.354-1.6c0-2.148-1.742-3.887-3.889-3.887
	c-0.998,0-1.896,0.384-2.583,1.003c-0.833-0.625-1.855-1.003-2.972-1.003c-2.148,0-3.89,1.738-3.89,3.887
	c0,0.572,0.131,1.111,0.353,1.6C24.297,65.806,25.647,64.865,27.223,64.865z"/>
<path fill="#9D9D9D" d="M86.8,43.89c0,1.116-0.378,2.139-1.003,2.973c0.619,0.686,1.003,1.584,1.003,2.583
	c0,1.573-0.939,2.924-2.286,3.534c0.488,0.222,1.027,0.354,1.599,0.354c2.148,0,3.888-1.741,3.888-3.888
	c0-0.999-0.385-1.897-1.003-2.583C89.622,46.028,90,45.006,90,43.89c0-2.148-1.739-3.89-3.888-3.89c-0.571,0-1.11,0.13-1.599,0.353
	C85.86,40.964,86.8,42.313,86.8,43.89z"/>
<path fill="#9D9D9D" d="M29.176,54.561c-0.194-1.099,0-2.172,0.471-3.102c-0.729-0.567-1.263-1.386-1.436-2.368
	c-0.273-1.551,0.418-3.043,1.638-3.879c-0.521-0.133-1.073-0.169-1.636-0.069c-2.116,0.373-3.526,2.389-3.154,4.504
	c0.174,0.982,0.708,1.801,1.437,2.368c-0.471,0.93-0.666,2.003-0.472,3.102c0.373,2.116,2.389,3.53,4.504,3.156
	c0.563-0.099,1.072-0.321,1.514-0.626C30.61,57.279,29.45,56.113,29.176,54.561z"/>
<path fill="#9D9D9D" d="M86,89.932C87.33,89.974,88.662,90,90,90v-6.667c-1.339,0-2.672-0.029-4-0.072V89.932z"/>
<path fill="#9D9D9D" d="M86,78.257c1.328,0.046,2.661,0.076,4,0.076v-6.667c-1.341,0-2.674-0.028-4-0.077V78.257z"/>
<path fill="#9D9D9D" d="M86,66.582c1.325,0.051,2.658,0.084,4,0.084V60c-1.349,0-2.681-0.033-4-0.087V66.582z"/>
<rect x="26.667" y="86" fill="#9D9D9D" width="6.666" height="4"/>
</svg>
