<?xml version="1.0" encoding="utf-8"?>
<!-- Generator: Adobe Illustrator 16.0.0, SVG Export Plug-In . SVG Version: 6.00 Build 0)  -->
<!DOCTYPE svg PUBLIC "-//W3C//DTD SVG 1.0//EN" "http://www.w3.org/TR/2001/REC-SVG-20010904/DTD/svg10.dtd">
<svg version="1.0" id="Layer_1" xmlns="http://www.w3.org/2000/svg" xmlns:xlink="http://www.w3.org/1999/xlink" x="0px" y="0px"
	 width="150px" height="150px" viewBox="0 0 150 150" enable-background="new 0 0 150 150" xml:space="preserve">
<path fill="#F37A43" d="M119.499,54.546c1.645-3.269,3.337-5.558,1.54-6.455c-1.798-0.896,0.978-3.281,2.942-1.848
	c1.966,1.433,3.638,3.297,1.49,4.955C123.323,52.857,119.499,54.546,119.499,54.546z"/>
<path fill="#EA5127" d="M113.549,64.235c2.274-6.956,7.762-11.927,10.418-13.184s-1.616-5.549-0.959-6.461s6.04-3.862,8.206,2.031
	c2.166,5.893-6.371,7.279-9.771,9.786C118.042,58.912,119.373,61.899,113.549,64.235z"/>
<path fill="#143C37" d="M121.442,56.406c2.075,1.709,0.356,6.114-3.749,9.472c-4.482,3.666-7.105,5.425-8.622,4.456
	c-1.4-0.895,0.225-6.194,2.715-10.748c2.067-3.781,5.41-5.361,7.713-5.04c-1.777,3.332-3.038,3.313-5.402,9.156
	C118.082,60.83,118.675,58.642,121.442,56.406z"/>
<path fill="#143C37" d="M61.829,40.407c6.826,6.737,1.565,24.248-6.08,18.207c-5.255,10.557-17.194,3.644-12.944-3.919
	c-5.443-4.753-7.168-10.465-1.843-17.467c-1.505-8.343,3.195-13.196,11.559-14.407C57.667,9.971,83.187,14.193,61.829,40.407z"/>
<path fill="#143C37" d="M97.391,58.011c2.446,1.357,4.024,4.074,5.029,6.629c2.726,0.448,5.588,7.261,3.841,7.662
	c-5.747,1.319-10.104-6.36-13.598-5.602c0.086-3.913-9.426-3.998-9.867-7.832c-0.116-1.013,5.077-3.461,7.421-1.835
	C92.889,56.332,95.377,56.895,97.391,58.011z"/>
<path fill="#143C37" d="M129.655,130.56c-3.409-3.723-8.031-6.661-12.501-9.503c-1.728-1.099-3.475-2.21-5.156-3.372
	c-17.199-14.214-11.323-35.941-0.082-51.542c0.078-0.108,0.053-0.259-0.055-0.337c-0.108-0.078-0.26-0.054-0.338,0.055
	c-3.291,4.567-8.826,13.518-10.411,23.853c-0.728-4.507-3.106-7.502-5.238-10.187c-3.116-3.92-5.807-7.306-2.341-14.132
	c0.061-0.119,0.013-0.265-0.106-0.325s-0.265-0.013-0.325,0.106c-1.647,3.245-2.075,5.943-1.346,8.492
	c0.651,2.275,2.151,4.163,3.739,6.161c2.41,3.033,5.143,6.471,5.346,12.066c-0.468,4.909,0.091,9.512,1.662,13.682
	c1.31,3.475,3.334,6.669,6.037,9.538c-2.147-1.743-4.053-3.638-5.486-5.79c-2.945-4.422-5.346-8.935-7.668-13.3
	c-2.134-4.012-4.149-7.802-6.333-10.996c-0.776-1.136-1.599-2.318-2.458-3.504c-0.906-3.587-1.61-7.147-2.291-10.595
	c-1.513-7.655-2.941-14.885-6.306-20.405c-3.748-6.149-9.487-9.539-18.063-10.669c-0.11-0.015-0.211,0.063-0.226,0.174
	c-0.015,0.11,0.063,0.211,0.173,0.226c8.445,1.113,14.092,4.443,17.771,10.479c3.327,5.458,4.749,12.655,6.255,20.273
	c0.628,3.182,1.267,6.41,2.057,9.657c-1.879-2.538-3.923-5.044-6.062-7.102c-3.537-3.402-6.82-5.073-10.039-5.108
	c-2.035-0.021-4.075,0.631-6.06,1.939c-2.108,1.39-4.236,3.574-6.323,6.491c-0.078,0.108-0.053,0.26,0.056,0.337
	c0.108,0.078,0.259,0.053,0.337-0.056c3.994-5.58,7.911-8.274,11.984-8.228c3.089,0.033,6.265,1.66,9.709,4.973
	c2.383,2.292,4.652,5.155,6.706,7.995c0.932,3.643,2.076,7.303,3.636,10.938c3.533,8.235,8.646,14.852,15.619,20.22
	c1.817,1.823,3.94,3.462,6.177,5.008c0.006,0.004,0.011,0.009,0.016,0.013c0.014,0.012,0.028,0.021,0.044,0.028
	c1.675,1.155,3.411,2.26,5.13,3.353c4.442,2.825,9.037,5.746,12.402,9.421c0.048,0.053,0.113,0.079,0.179,0.079
	c0.059,0,0.117-0.021,0.163-0.063C129.738,130.811,129.745,130.658,129.655,130.56z M86.933,82.825
	c0.595,0.838,1.169,1.668,1.721,2.476c2.168,3.172,4.178,6.95,6.306,10.95c2.327,4.375,4.734,8.899,7.692,13.34
	c0.358,0.538,0.746,1.06,1.158,1.566C93.936,102.781,89.577,92.738,86.933,82.825z"/>
<path fill="#EA5127" d="M54.577,82.55C52.315,90,39.046,96.278,40.273,98.683s5.285-2.672,7.323-3.003
	c2.039-0.331,3.262,1.19,4.46-0.306C53.255,93.877,60.48,75.764,54.577,82.55z"/>
<path fill="#F37A43" d="M57.296,80.59c-2.112-0.776-1.696,6.751-3.104,9.322s-8.715,3.88-6.721,6.997
	c1.994,3.116,15.038,6.995,16.366,5.152c1.328-1.843-3.701-6.946-3.417-10.062C60.705,88.886,61.712,82.213,57.296,80.59z"/>
<path fill="#F37A43" d="M59.809,79.98c1.684-1.088,4.418,6.303,9.379,7.217c4.961,0.915,12.021-3.417,12.292-0.322
	c0.27,3.095-11.343,7.166-14.998,4.993C62.828,89.695,55.945,80.235,59.809,79.98z"/>
<path fill="#EA5127" d="M59.445,81.318c2.449,3.484,4.35,7.174,7.725,8.346c3.376,1.172,8.556,1.865,8.651,4.453
	c0.095,2.589-10.893,10.511-15.842-0.565C55.03,82.477,56.157,78.104,59.445,81.318z"/>
<path fill="#143C37" d="M59.546,74.624c-3.309-0.363-4.854,5.615-5.885,9.388c-0.194,0.711,1.259-0.109,1.896-0.481
	c3.19-1.866,4.24-1.37,4.977-0.572c0.729,0.789,3.031,0.682,2.8-0.041c-0.305-0.955-1.99-2.613-2.497-4.522
	C60.248,76.174,60.69,74.749,59.546,74.624z"/>
<path fill="#143C37" d="M136.603,140c-0.542-0.634-5.565-7.017-6.123-7.674c-3.9-4.596-8.168-9.765-12.291-15.894
	c-10.977-16.318-19.437-21.748-26.234-26.111c-1.131-0.726-2.199-1.411-3.229-2.115c-7.229-4.94-9.523-7.147-19.592-21.375
	c-9.322-13.171-19.887-28.1-40.956-28.18c-0.149-0.001-0.269-0.122-0.269-0.271c0.001-0.148,0.122-0.269,0.271-0.268
	c4.971,0.019,9.473,0.825,13.763,2.465c3.84,1.468,7.405,3.568,10.899,6.421c6.377,5.206,11.553,12.205,16.731,19.521
	c10.018,14.155,12.294,16.347,19.456,21.242c1.023,0.699,2.089,1.383,3.216,2.106c6.84,4.391,15.351,9.854,26.39,26.264
	c4.104,6.099,8.411,11.219,12.357,15.753c0.57,0.654,5.023,5.072,5.577,5.704C136.569,137.589,137.086,139.446,136.603,140z"/>
<path fill="#143C37" d="M13.696,32.956c-1.857,4.844,1.997,7.858,1.997,7.858s-2.571,4.067,0.113,8.142
	c2.685,4.074,7.479,5.277,8.942,4.243c2.388-1.688,0.65-12.644,5.902-14.66c-1.783-3.964,4.947-12.582,3.139-15.264
	c-1.807-2.682-9.245-1.242-10.979,3.108C19.032,27.021,14.97,29.633,13.696,32.956z"/>
<path fill="#143C37" d="M91.882,107.831c0.365-2.773,2.313-5.239,4.321-7.11c-0.583-2.701,4.704-7.863,5.718-6.386
	c3.337,4.862-1.342,11.637,0.646,14.607c-3.672,1.356-1.128,10.332-4.531,12.149c-0.9,0.48-5.083-3.452-4.431-6.229
	C91.972,112.636,91.582,110.114,91.882,107.831z"/>
<path fill="#EA5127" d="M79.68,34.795c-8.976,9.089-11.582,15.383-14.404,16.577c-2.821,1.194-3.329-4.08-4.309-6.29
	c-0.98-2.21-4.315-4.064-4.479-6.525c-0.164-2.461,2.493-2.263,2.935-4.505c0.442-2.242-0.169-4.272,0.561-6.08
	c0.73-1.808,2.118-2.193,2.658-3.297s0.532-2.831,1.246-3.602s3.018-1.164,3.239-1.88s-0.874-3.026-0.006-3.603
	c0.867-0.577,2.298-0.317,3.174-0.603c0.877-0.286,0.864-0.943,1.483-1.049c0.618-0.106,4.139,0.583,6.003,9.165
	C79.645,31.683,79.68,34.795,79.68,34.795z"/>
<path fill="#EA5127" d="M82.97,30.598c-1.378-0.14-2.633,0.622-3.051-0.699c-2.084-6.594-3.875-11.754-3.438-13.917
	c0.509-2.526,0.366-5.117,2.51-5.812c2.143-0.695,2.751,0.969,3.517,0.949c0.765-0.019,1.846-1.419,3.689-0.961
	c1.844,0.458,2.539,1.976,3.542,2.447s2.698,1.285,3.777,2.572c1.08,1.287,0.708,2.175,1.446,2.718s3.577,1.366,3.619,4.071
	c0.043,2.705-2.092,3.691-8.474,4.726C86.781,27.232,86.33,30.939,82.97,30.598z"/>
<path fill="#EA5127" d="M79.652,38.878c8.016,6.867,7.945,11.36,7.486,12.873s-3.748,4.824-5.4,5.354
	c-1.653,0.531-2.793-0.572-3.6-0.388c-0.808,0.184-1.982,1.608-2.979,1.467c-1.725-0.243-1.448-1.81-2.377-1.833
	c-0.93-0.023-3.084,1.945-5.151-0.224c-2.067-2.169-0.396-6.859,3.168-9.351C74.363,44.285,79.652,38.878,79.652,38.878z"/>
<path fill="#EA5127" d="M81.549,33.366c13.016-6.662,16.963-9.237,19.465-7.982c2.501,1.255,3.034,2.914,3.121,6.446
	c0.088,3.533-0.854,7.157-3.658,12.611c-2.803,5.455-7.552,10.382-10.476,10.073c-2.923-0.31-1.986-5.292-2.332-7.211
	c-0.345-1.919-4.897-6.38-5.291-8.058S81.549,33.366,81.549,33.366z"/>
<path fill="#F37A43" d="M80.962,36.33c1.98,3.125,6.257,3.504,7.132,5.28c0.875,1.775,0.137,2.667,0.671,3.698
	c0.533,1.032,1.573,0.606,1.864,1.406s-0.805,3.42-3.272,4.58c-2.468,1.159-5.155,0.348-7.548-0.731s-2.575-2.017-3.186-1.711
	s-4.082,2.741-7.276,0.244c-3.195-2.498-3.457-3.703-3.72-3.926s-2.141-0.496-2.404-1.136c-0.805-1.963,1.026-3.598,0.593-4.475
	s-1.828-0.869-2.077-1.896c-0.249-1.026,1.33-2.679,1.843-3.699c0.514-1.02,1.233-3.032,2.531-3.638
	c1.297-0.605,4.622-1.357,13.16,4.757L80.962,36.33z"/>
<path fill="#F37A43" d="M78.646,33.257c-1.527-0.674-9.614-2.964-12.255-7.784c-1.18-2.154,1.599-2.919,2.29-3.882
	c0.69-0.964,0.835-4.243,2.914-5.095s3.833,0.912,4.389,0.923c0.557,0.011,2.851-0.856,3.127-1.393
	c0.276-0.537,1.217-3.314,4.396-2.962c3.18,0.352,3.506,3.345,3.981,4.144c0.475,0.799,3.323,0.882,3.995,2.611
	c0.673,1.729-1.164,3.127-2.065,3.441s-2.322,4.116-3.688,4.511c-1.365,0.394-3.272,2.697-3.518,3.534
	C81.966,32.141,79.751,33.744,78.646,33.257z"/>
<path fill="#F37A43" d="M80.996,33.004c0.129-2.415,1.242-2.177,2.642-3.34c1.398-1.162,2.418-0.771,3.171-1.447
	c0.752-0.677,2.8-4.117,3.935-4.459s5.278-0.766,6.076-0.137s0.67,1.933,1.37,2.504s2.844,0.354,3.236,1.371
	s-0.911,3.341-0.92,4.277c-0.009,0.936,0.786,2.155-0.421,3.459c-1.206,1.304-3.92,1.387-4.892,2.546
	c-0.972,1.159,0.45,4.329-2.431,5.437c-2.882,1.108-4.739-3.444-7.072-4.09S80.768,37.292,80.996,33.004z"/>
<path fill="#EA5127" d="M73.842,33.682c-1.426,2.067,0.941,7.978,6.951,5.587c6.011-2.392,5.548-9.021,3.15-10.441
	c-2.397-1.421-5.061,0.579-6.689,2.228C75.624,32.706,74.549,32.656,73.842,33.682z"/>
<path fill="#061818" d="M77.102,34.628c-2.489-1.516-2.775-2.404-3.295-4.016l-0.078-0.241l0.076-0.025l0.078,0.242
	c0.514,1.593,0.797,2.471,3.261,3.971L77.102,34.628z"/>
<path fill="#061818" d="M78.229,33.613c-0.273-0.17-0.524-0.315-0.745-0.444c-1.252-0.727-1.823-1.059-2.496-3.315l0.077-0.023
	c0.664,2.226,1.189,2.531,2.459,3.269c0.222,0.128,0.473,0.274,0.748,0.444L78.229,33.613z"/>
<path fill="#061818" d="M78.824,32.8c-1.888-1.36-2.076-1.696-2.361-2.204c-0.032-0.058-0.066-0.119-0.104-0.183l0.069-0.041
	c0.038,0.065,0.072,0.125,0.105,0.185c0.28,0.498,0.465,0.827,2.338,2.177L78.824,32.8z"/>
<path fill="#061818" d="M78.942,32.419c-0.636-1.024-1.594-3.695-1.723-4.2l0.078-0.02c0.128,0.503,1.081,3.16,1.713,4.178
	L78.942,32.419z"/>
<path fill="#061818" d="M79.714,31.925c-0.632-0.75-1.712-3.512-1.745-5.126l0.08-0.001c0.033,1.6,1.102,4.333,1.727,5.076
	L79.714,31.925z"/>
<path fill="#061818" d="M80.434,31.637c-0.912-0.738-1.075-2.326-0.841-3.49l0.079,0.016c-0.229,1.141-0.073,2.695,0.813,3.412
	L80.434,31.637z"/>
<path fill="#061818" d="M81.646,31.343l-0.06-0.054c0.493-0.55,0.184-2.998-0.193-4.561l0.078-0.019
	C81.826,28.18,82.188,30.738,81.646,31.343z"/>
<path fill="#061818" d="M82.438,31.902l-0.058-0.057c1.384-1.391,1.363-2.1,1.331-3.172c-0.015-0.458-0.03-0.979,0.056-1.646
	l0.08,0.01c-0.085,0.661-0.069,1.178-0.056,1.633C83.824,29.764,83.846,30.487,82.438,31.902z"/>
<path fill="#061818" d="M82.252,31.309l-0.08-0.01c0.003-0.021,0.303-2.145,2.454-2.906l0.026,0.076
	C82.549,29.213,82.255,31.289,82.252,31.309z"/>
<path fill="#061818" d="M82.608,32.386l-0.013-0.08c1.559-0.25,3.025-1.475,3.338-2.787l0.078,0.019
	C85.692,30.88,84.197,32.13,82.608,32.386z"/>
<path fill="#061818" d="M83.076,33.629c-0.205,0-0.396-0.023-0.567-0.07l0.021-0.078c1.246,0.344,3.633-0.604,4.391-2.816
	l0.076,0.026C86.328,32.645,84.407,33.629,83.076,33.629z"/>
<path fill="#061818" d="M87.501,34.491c-0.03-0.009-3.051-0.95-4.77-0.444l-0.022-0.077c1.742-0.513,4.786,0.435,4.816,0.444
	L87.501,34.491z"/>
<path fill="#061818" d="M88.283,36.41c-0.029-0.015-2.995-1.507-5.423-2l0.016-0.079c2.439,0.495,5.414,1.992,5.443,2.007
	L88.283,36.41z"/>
<path fill="#061818" d="M86.629,37.063c-0.835-1.599-2.687-2.126-4.149-1.939l-0.01-0.08c1.491-0.19,3.377,0.348,4.23,1.982
	L86.629,37.063z"/>
<path fill="#061818" d="M85.68,38.878c-0.81-3.004-1.932-3.368-3.022-3.313l-0.004-0.081c1.125-0.056,2.28,0.313,3.104,3.372
	L85.68,38.878z"/>
<path fill="#061818" d="M84.716,38.981c-0.774-2.487-1.344-2.734-2.658-2.766l0.002-0.081c1.356,0.033,1.943,0.285,2.733,2.823
	L84.716,38.981z"/>
<path fill="#061818" d="M82.835,40.812l-0.078-0.019c0.521-2.197,0.593-3.386,0.233-3.855c-0.235-0.306-0.651-0.317-1.133-0.331
	l-0.119-0.004l0.002-0.081l0.119,0.004c0.503,0.014,0.937,0.026,1.194,0.362C83.435,37.385,83.369,38.558,82.835,40.812z"/>
<path fill="#061818" d="M83.854,41.206c-1.817-0.996-2.149-2.222-2.699-4.253l-0.038-0.14l0.078-0.021l0.038,0.14
	c0.544,2.01,0.873,3.224,2.66,4.203L83.854,41.206z"/>
<path fill="#061818" d="M81.347,41.063l-0.069-0.042c0.813-1.361-0.492-2.903-1.342-3.701l0.055-0.059
	C80.858,38.077,82.188,39.654,81.347,41.063z"/>
<path fill="#061818" d="M78.883,41.71l-0.061-0.053c1.416-1.622,1.231-2.466,0.282-3.745l0.064-0.048
	C80.126,39.153,80.327,40.057,78.883,41.71z"/>
<path fill="#061818" d="M80.337,41.819c-0.015-0.023-1.44-2.283-1.139-4.493l0.08,0.011c-0.298,2.182,1.112,4.417,1.126,4.439
	L80.337,41.819z"/>
<path fill="#061818" d="M77.044,41.843l-0.034-0.073c1.082-0.519,1.72-1.157,1.894-1.899c0.182-0.769-0.131-1.678-0.929-2.7
	l0.063-0.05c0.813,1.043,1.131,1.975,0.944,2.769C78.802,40.657,78.15,41.314,77.044,41.843z"/>
<path fill="#061818" d="M78.149,43.52c-0.018-0.036-1.747-3.63-0.669-5.905l0.072,0.035c-1.061,2.24,0.652,5.799,0.669,5.835
	L78.149,43.52z"/>
<path fill="#061818" d="M73.283,40.331l-0.012-0.08c2.162-0.306,3.87-0.547,4.703-3.496l0.077,0.022
	C77.205,39.776,75.475,40.021,73.283,40.331z"/>
<path fill="#061818" d="M74.621,40.962l-0.08-0.008c0.003-0.027,0.274-2.736,1.969-4.201l0.053,0.061
	C74.893,38.257,74.624,40.935,74.621,40.962z"/>
<path fill="#061818" d="M72.479,38.896l-0.02-0.078c0.023-0.006,2.382-0.625,4.598-2.729l0.056,0.059
	C74.88,38.266,72.502,38.89,72.479,38.896z"/>
<path fill="#061818" d="M72.62,36.561c-0.12,0-0.188-0.003-0.192-0.003l0.004-0.081c0.021,0.001,2.186,0.09,3.96-0.787l0.036,0.072
	C74.944,36.496,73.194,36.561,72.62,36.561z"/>
<path fill="#061818" d="M75.191,35.204c-1.98,0-4.03-1.197-4.053-1.21l0.041-0.07c0.025,0.015,2.538,1.481,4.666,1.151l0.013,0.08
	C75.639,35.188,75.416,35.204,75.191,35.204z"/>
<path fill="#061818" d="M75.779,34.629c-1.715,0-3.171-1.457-3.187-1.473L72.65,33.1c0.017,0.017,1.711,1.712,3.575,1.414
	l0.013,0.08C76.084,34.618,75.931,34.629,75.779,34.629z"/>
<ellipse transform="matrix(0.9707 -0.2404 0.2404 0.9707 -5.1478 18.6304)" fill="#061818" cx="73.8" cy="30.418" rx="0.264" ry="0.426"/>
<ellipse transform="matrix(0.9818 -0.1899 0.1899 0.9818 -4.301 14.8025)" fill="#061818" cx="75.076" cy="29.84" rx="0.251" ry="0.477"/>
<ellipse transform="matrix(0.8679 -0.4967 0.4967 0.8679 -5.0124 41.9681)" fill="#061818" cx="76.404" cy="30.408" rx="0.226" ry="0.417"/>
<ellipse transform="matrix(0.9505 -0.3106 0.3106 0.9505 -4.9853 25.414)" fill="#061818" cx="77.313" cy="28.362" rx="0.259" ry="0.502"/>
<ellipse transform="matrix(0.9967 -0.0816 0.0816 0.9967 -1.933 6.4539)" fill="#061818" cx="78.008" cy="26.881" rx="0.221" ry="0.604"/>
<ellipse transform="matrix(0.9911 0.1334 -0.1334 0.9911 4.466 -10.3708)" fill="#061818" cx="79.645" cy="28.15" rx="0.225" ry="0.545"/>
<ellipse transform="matrix(0.9819 -0.1896 0.1896 0.9819 -3.5483 15.9114)" fill="#061818" cx="81.382" cy="26.5" rx="0.238" ry="0.527"/>
<ellipse fill="#061818" cx="83.794" cy="27.133" rx="0.29" ry="0.49"/>
<ellipse transform="matrix(0.9728 -0.2318 0.2318 0.9728 -4.248 20.4926)" fill="#061818" cx="85.093" cy="28.326" rx="0.545" ry="0.289"/>
<ellipse transform="matrix(0.9227 0.3854 -0.3854 0.9227 17.984 -30.9016)" fill="#061818" cx="86.069" cy="29.406" rx="0.341" ry="0.468"/>
<ellipse transform="matrix(0.4999 -0.8661 0.8661 0.4999 17.1802 90.6989)" fill="#061818" cx="87.124" cy="30.474" rx="0.493" ry="0.263"/>
<ellipse transform="matrix(0.9775 0.2108 -0.2108 0.9775 9.2434 -17.7272)" fill="#061818" cx="87.77" cy="34.492" rx="0.549" ry="0.276"/>
<ellipse transform="matrix(0.4358 -0.9 0.9 0.4358 17.0873 100.2213)" fill="#061818" cx="88.488" cy="36.48" rx="0.31" ry="0.6"/>
<ellipse transform="matrix(-0.8418 0.5398 -0.5398 -0.8418 180.0737 21.8295)" fill="#061818" cx="86.838" cy="37.303" rx="0.285" ry="0.585"/>
<ellipse transform="matrix(-0.9446 0.3281 -0.3281 -0.9446 179.6017 47.6799)" fill="#061818" cx="85.779" cy="38.99" rx="0.259" ry="0.544"/>
<ellipse transform="matrix(0.9687 -0.2484 0.2484 0.9687 -7.1316 22.3026)" fill="#061818" cx="84.829" cy="39.417" rx="0.296" ry="0.664"/>
<ellipse transform="matrix(-0.5519 0.8339 -0.8339 -0.5519 164.5795 -5.9818)" fill="#061818" cx="83.897" cy="41.229" rx="0.24" ry="0.536"/>
<ellipse transform="matrix(0.983 0.1835 -0.1835 0.983 8.9452 -14.4841)" fill="#061818" cx="82.736" cy="41.092" rx="0.224" ry="0.448"/>
<ellipse transform="matrix(0.9449 0.3273 -0.3273 0.9449 17.9719 -24.3345)" fill="#061818" cx="81.292" cy="41.233" rx="0.291" ry="0.557"/>
<ellipse transform="matrix(0.8413 -0.5406 0.5406 0.8413 -9.7803 50.0462)" fill="#061818" cx="80.343" cy="41.68" rx="0.273" ry="0.621"/>
<ellipse transform="matrix(-0.6722 0.7404 -0.7404 -0.6722 162.7673 11.0036)" fill="#061818" cx="78.948" cy="41.534" rx="0.573" ry="0.281"/>
<ellipse transform="matrix(0.9251 -0.3798 0.3798 0.9251 -10.6863 32.9608)" fill="#061818" cx="78.199" cy="43.566" rx="0.336" ry="0.511"/>
<ellipse transform="matrix(0.8004 -0.5995 0.5995 0.8004 -9.5311 54.7376)" fill="#061818" cx="77.426" cy="41.68" rx="0.63" ry="0.34"/>
<ellipse transform="matrix(0.9976 0.0689 -0.0689 0.9976 2.9915 -5.0433)" fill="#061818" cx="74.585" cy="40.833" rx="0.358" ry="0.476"/>
<ellipse transform="matrix(0.9973 -0.0738 0.0738 0.9973 -2.7683 5.5334)" fill="#061818" cx="73.467" cy="40.213" rx="0.579" ry="0.307"/>
<ellipse transform="matrix(0.9515 -0.3076 0.3076 0.9515 -8.4306 24.2023)" fill="#061818" cx="72.555" cy="38.843" rx="0.562" ry="0.388"/>
<ellipse fill="#061818" cx="72.405" cy="36.482" rx="0.639" ry="0.332"/>
<ellipse transform="matrix(0.4533 -0.8913 0.8913 0.4533 8.6414 82.3238)" fill="#061818" cx="71.436" cy="34.117" rx="0.366" ry="0.6"/>
<ellipse transform="matrix(0.6111 -0.7915 0.7915 0.6111 1.9996 70.2268)" fill="#061818" cx="72.472" cy="33.078" rx="0.332" ry="0.502"/>
<path fill="#143C37" d="M75.101,34.539c-0.62,1.443,1.53,5.824,5.375,3.536s3.883-6.269,2.225-7.314
	c-1.886-1.189-2.986-0.681-4.462,1.225C76.92,33.687,75.677,33.199,75.101,34.539z"/>
</svg>
