<svg id="Layer_1" data-name="Layer 1" xmlns="http://www.w3.org/2000/svg" viewBox="0 0 512 512"><path d="M268.73,376.164a6.832,6.832,0,0,1-4.46,11.07l-14.82,1.86-2.89-8.95S240.14,357,228.89,342.1a15.921,15.921,0,0,1,.64-19.891c.83-.979,1.68-2.029,2.54-3.139,0,0,9.53-1.7,21.52-4.34-3.24,13.88,5.6,40.81,9.62,51.93a30.714,30.714,0,0,0,4.97,8.82Z" style="fill:#408468"/><path d="M139.2,291.7h.01a12,12,0,0,1-3.2,4.46l-23.33,22.52c-6.75,7.1-6.96,5.849-7.61,10.349a6.934,6.934,0,0,0-.03,1.52c-3.2,1.041-7.19,1.011-9.56-1.379-.49-.5-.98-.99-1.47-1.48a18.878,18.878,0,0,1,2.57-28.92L113,287.414c3.89-2.881,8.5-6.03,8.48-10.49C126.81,283.644,132.76,288.864,139.2,291.7Z" style="fill:#408468"/><path d="M232.07,319.074c-.86,1.11-1.71,2.16-2.54,3.139a15.921,15.921,0,0,0-.64,19.891c11.25,14.9,17.67,38.04,17.67,38.04l2.89,8.95.46,1.439a8.449,8.449,0,0,1-7.49,11.031l-68.04,1.93c-.15-.25-.28-.5-.41-.75-3.73-7.36,1.61-16.121,9.83-16.711l36.54-2.589c4.3-.31,6.33-5.77,3.02-8.52a4.76,4.76,0,0,0-.5-.371c-11.98-7.809-35.32-25.529-37.91-46.379a43.223,43.223,0,0,1,1.59-16.22c-8.12-.991-21.42-7.9-21.42-7.9h-.01a17.124,17.124,0,0,1-4.21,4.631l-28.24,21.41a7.317,7.317,0,0,0-2.09,9.17l.5.98a8.872,8.872,0,0,1-14.2,10.289c-5.45-5.5-11.36-14.509-11.83-19.98a6.934,6.934,0,0,1,.03-1.52c.65-4.5.86-3.25,7.61-10.349l23.33-22.52a12,12,0,0,0,3.2-4.46h-.01c-6.44-2.84-12.39-8.06-17.72-14.78-18.56-23.4-29.54-65.02-26.99-87.93,3.28-29.48-12.95-27.8-12.95-27.8-22.29,9.38-41.68,6.12-50.42,4.69a46.256,46.256,0,0,1-12.76-4.06l-2.08-1a14.077,14.077,0,0,1-2.75-19.041c3.18-4.559,5.91-7.8,13.53-10.779,21.12-8.26,14.51-13.24,25.84-18.28,24.6-10.921,50.22-.941,65.67,33.8s12.67,72.27,46.36,64.52c62.35-14.331,93.16,10.88,142.37,44.12,58.32,39.4,158.93,33.9,191.65,2.13-64.99,66.23-159.62,56.21-194.53,49.65a53.66,53.66,0,0,0-25.12,1.339c-8.22,2.421-17.54,4.651-25.71,6.451C241.6,317.373,232.07,319.074,232.07,319.074Z" style="fill:#4ca987"/><path d="M61.12,165.884a46.256,46.256,0,0,1-12.76-4.06l-2.08-1a14.077,14.077,0,0,1-2.75-19.041c3.18-4.559,5.91-7.8,13.53-10.779,21.12-8.26,14.51-13.24,25.84-18.28,1.174-.521,2.35-.979,3.527-1.405-10.665-4.207-22.2-3.622-33.527,1.405S48.18,122.744,27.06,131c-7.62,2.98-10.35,6.22-13.53,10.779a14.077,14.077,0,0,0,2.75,19.041l2.08,1a46.256,46.256,0,0,0,12.76,4.06c6.346,1.038,18.308,3.036,32.915.466C62.965,166.186,61.988,166.025,61.12,165.884Z" style="fill:#5dba94"/><path d="M246.56,380.144l-.033-.119a42.633,42.633,0,0,0-11.9-19.593c-9.387-8.731-18.149-19.948-19.678-32.258l-.018-.149a27.565,27.565,0,0,0-15.611-21.933c-2.525-1.168-4.2-2.038-4.2-2.038h-.01a17.12,17.12,0,0,1-4.21,4.63L186.529,312a43.162,43.162,0,0,0-1.579,16.177c2.59,20.849,25.93,38.57,37.91,46.38a4.487,4.487,0,0,1,.5.37c3.31,2.75,1.28,8.21-3.02,8.52l-36.54,2.59c-8.22.589-13.56,9.35-9.83,16.71.13.25.26.5.41.75l29.552-.839c-3.643-7.342,1.681-16.034,9.868-16.621l33.886-2.4Z" style="fill:#5dba94"/><path d="M165.257,292.246a7.408,7.408,0,0,0-2.911-4.564,58.052,58.052,0,0,1-10.866-10.758c-18.56-23.4-29.54-65.02-26.99-87.93,3.28-29.48-12.95-27.8-12.95-27.8a81.341,81.341,0,0,1-20.019,5.56c2.547,3.962,4.252,10.712,2.969,22.24-2.55,22.91,8.43,64.529,26.99,87.93,5.33,6.72,11.28,11.94,17.72,14.78h.01a12,12,0,0,1-3.2,4.46l-23.33,22.52c-6.75,7.1-6.96,5.85-7.61,10.35a6.93,6.93,0,0,0-.03,1.52c.47,5.469,6.38,14.48,11.83,19.98a8.875,8.875,0,0,0,14.2-10.29l-.5-.98a7.319,7.319,0,0,1,2.09-9.171l2.544-1.928c.579-3.49,1.2-2.885,7.476-9.481l20.46-19.75A7.364,7.364,0,0,0,165.257,292.246Z" style="fill:#5dba94"/></svg>