<?xml version="1.0" encoding="utf-8"?>
<!-- Generator: Adobe Illustrator 24.3.0, SVG Export Plug-In . SVG Version: 6.00 Build 0)  -->
<svg version="1.1" id="Layer_1" xmlns="http://www.w3.org/2000/svg" xmlns:xlink="http://www.w3.org/1999/xlink" x="0px" y="0px"
	 viewBox="0 0 1024 1024" style="enable-background:new 0 0 1024 1024;" xml:space="preserve">
<style type="text/css">
	.st0{fill:#A1D4AF;stroke:#0C00DF;}
	.st1{stroke:#0C00DF;}
	.st2{fill:#010100;stroke:#0C00DF;}
	.st3{fill:#020202;stroke:#0C00DF;}
	.st4{fill:#030303;stroke:#0C00DF;}
	.st5{fill:#040404;stroke:#0C00DF;}
	.st6{fill:#060606;stroke:#0C00DF;}
	.st7{fill:#FEFEFE;stroke:#0C00DF;}
	.st8{fill:#FDFDFD;stroke:#0C00DF;}
	.st9{fill:#FAFAFA;stroke:#0C00DF;}
	.st10{fill:#93AE48;stroke:#0C00DF;}
</style>
<path class="st0" d="M86.4,639.8c-0.8-10.3,2-20.8-1.6-31c5-12.3,14.2-16.2,27.2-15.9c31.9,0.7,63.7,0.1,95.6,0.3
	c16.1,0.1,20.3,4.2,20.3,20.5c0.1,80.7,0.1,161.4,0,242.1c0,15.9-4.5,20.4-20.5,20.5c-32.7,0.2-65.5,0.2-98.2,0
	c-15.5-0.1-19.9-4.8-20.2-20.1c0-2.1,0-4.1,0-6.2c1.3-65.4-2.4-130.7-1.8-196C87.3,649.2,86.1,644.5,86.4,639.8z"/>
<path class="st1" d="M86.4,639.8c5.8,2.1,4.1,7.2,4.1,11.3c0.3,68.6,0.6,137.2,0.8,205.8c0.1,14.4,1.4,15.8,15.4,15.8
	c34.8,0,69.6,0,104.3,0c11.9,0,14-2.1,14-13.7c0-83,0-166,0-249c0-11.5-2.3-13.8-13.9-13.8c-35.1,0-70.2,0.1-105.2-0.1
	c-7.2,0-13.6,0.2-15,9.4c-0.5,3.3-3.3,3.6-6.2,3.3c-4.3-8.9,0.6-18.5,10.9-21.1c2.6-0.5,5.2-0.7,7.8-0.5c36.5,0,73.1,0,109.6,0
	c12.1,0,16.8,3.1,20.4,14.9c1.4,4.6,3.9,3.4,6.5,3.2c29-1.6,56-10.6,82.2-22.5c16.2-7.4,32.3-14.8,49.2-20.5c22-7.4,43-5.4,63.5,5.3
	c10.4,5.4,20.8,11,29.8,18.4c33.9,27.8,73,33.4,114.7,29c10.5-1.1,21-2.6,31.4-2.5c14.8,0.2,28-4.3,41.2-10.2
	c22.4-10,45-19.4,66.3-31.6c12.8-7.3,26.8-10,41.4-6.9c4,0.9,7.3-0.1,10.7-2.2c5.7-3.6,11.5-6.9,17.3-10.3
	c8.8-5.1,18.8-7.3,27.9-4.1c10,3.5,18.3,2.5,27.9-0.7c13.7-4.5,26.1-0.6,35.3,10.9c3.2,4,5.5,3.7,9.3,1.5c8.9-5.1,17.8-9.8,28.9-7.6
	c21,4.3,32.3,25.3,23.9,45.2c-4.7,11-12.3,19.9-20.8,28.2c-29.7,29-63,53.5-95.7,78.6C773.2,742.8,721.2,781.8,664,813
	c-29.5,16.1-59.4,31.3-92.2,39.7c-4,1-8,2.2-12,2.2c-41.6,0.9-82.9-0.1-122.5-15.8c-44.7-17.7-90.6-31.1-138.6-35.2
	c-19.7-1.7-39.7-0.5-59.6-1c-5.5-0.1-5.2,2.9-5.2,6.6c0.1,16.8,0.1,33.6,0,50.3c0,15.2-6.3,21.8-21.1,21.9
	c-36.5,0.1-73.1,0.1-109.6,0c-14.5,0-20.9-6.4-21-21c-0.3-70.7-0.6-141.3-0.8-212C81.6,644.9,81.3,640.9,86.4,639.8z"/>
<path class="st1" d="M695.8,553.5c-22.3,0.4-43.5-5.5-63.9-13.3c-30.7-11.8-60.6-11.7-91.3,0.1c-22.1,8.5-45.1,14.5-69.2,13.1
	c-6.4-0.3-12.8-1.1-19.1-2.5c-37.6-8.8-53.5-36.6-43.8-76.3c8.1-33.1,25.8-60.9,47.4-86.4c25.8-30.5,55.5-56.3,92.6-72.3
	c24-10.3,48.4-12,72.2-1c68.7,31.5,117.6,82.5,141.5,154.9c16.1,48.7-10.1,82.4-61.3,83.7C699.4,553.6,697.6,553.5,695.8,553.5z"/>
<path class="st2" d="M723.3,195.5c-1,27.8-8.6,51.8-26.6,71.5c-14.6,16-32.2,26.1-54.5,20.3c-22.9-6-33.4-24.1-37.2-45.7
	c-6.3-35.2,3-66.6,28.2-92.2c13-13.2,29-21.1,48.3-17.2c21,4.2,36.3,22.8,40.3,48.1C722.4,185.8,722.8,191.4,723.3,195.5z"/>
<path class="st2" d="M569.7,222.8c0,13.8-2.5,26.9-8.9,39.2c-13.8,26.3-41.4,34.7-66.8,19.6c-24.8-14.8-37.2-38.1-42.5-65.8
	c-3.7-19.5-2.3-38.6,6.8-56.7c13.9-27.6,42.7-36.2,68.6-19.5C556.8,158.8,568,188.5,569.7,222.8z"/>
<path class="st1" d="M712.3,319.3c1.3-26.3,12.8-49.3,38.2-63.6c29.7-16.7,62.9-2.3,72.2,30.6c9.1,32-7.9,70.4-37.7,85.1
	c-33.1,16.3-68.9-4.3-72.2-41.7C712.7,327.1,712.6,324.5,712.3,319.3z"/>
<path class="st2" d="M347.4,305.9c0.8-23.8,8.3-42.7,29.6-52.5c21.6-9.9,41.1-3.4,58.2,11.6c12.3,10.7,19.7,24.5,23.3,40.5
	c2.8,11.8,2.4,24.1-1.2,35.7c-10.2,32.2-42.1,45.5-71.5,29.2C360.3,356.2,348.8,333.2,347.4,305.9z"/>
<path class="st3" d="M523.1,902.1c-7.6-0.5-15.1-1-22.7-1.6c-3.1-0.2-7.1,0-6.9-4.7c0.3-5.2,4.5-4.7,7.9-4.3
	c23.5,2.6,46.7,0.5,69.7-3.9c14.6-3,28.8-7.3,42.6-12.9c3.4-1.3,7.2-3.1,9,1.4c1.9,4.7-2.6,5.8-5.8,7
	C587.2,895.3,555.3,901.8,523.1,902.1z"/>
<path class="st4" d="M131.3,553.5h-36c-3.3,0-7-0.1-7-4.6c0-4.7,3.8-4.3,7.1-4.3h71c3.2,0,7.2-0.5,7.4,4c0.2,4.9-3.9,5-7.5,5
	L131.3,553.5z"/>
<path class="st5" d="M459.4,892.9c-10-2.9-19.8-6.5-29.2-10.8c-2.7-1.2-4.2-3.4-2.9-6.4s4.3-3,6.8-1.8c9,4.1,18.4,7.5,27.9,10.3
	c2.8,0.9,4.7,2.7,4,5.8C465.1,893.5,462.3,893.3,459.4,892.9z"/>
<path class="st6" d="M211.7,553.4c-3.2,0-6.4,0.1-9.5,0c-3-0.1-5.1-1.7-4.9-4.9c0.1-2.7,2.1-4,4.8-4c6.9,0,13.9,0,20.8,0
	c2.7,0,4.4,1.5,4.4,4.3c0.2,2.3-1.6,4.3-3.9,4.5c-0.1,0-0.3,0-0.4,0c-3.8,0.2-7.5,0-11.3,0L211.7,553.4z"/>
<path class="st3" d="M178,815c-0.6-2.5-1.3-5.1-1.9-7.6c-2.1-9.1-10.1-15.5-18.9-15c-9.4,0.7-16.9,8.2-17.6,17.6
	c-0.6,8.8,5.8,17.1,14.8,19.2c2.5,0.6,5,1.2,7.5,1.8c1.1,5.3-0.7,7.6-6.4,7.4c-13.2-0.5-25.3-13.9-25-28c0.3-14.6,12.5-26.8,27-27.1
	c14.3-0.3,27.2,11.6,27.8,25.1C185.6,814.1,183.2,816,178,815z"/>
<path class="st7" d="M234,704c0-27.4,0.1-54.8-0.1-82.2c0-5,0.7-7.3,6.4-7.7c35.5-2.3,68.5-13.5,100-29.6c10.7-5.4,22-9.4,33.3-13.4
	c20.2-7.1,39.5-5.1,58.3,4.9c13.6,7.4,26.8,15.7,39.3,24.9c26.1,18.9,55.2,25.2,86.9,24c35-1.2,69.9-7,105.1-4.3
	c17.9,1.4,32.7,8.4,41,25.6c9.6,20,3.6,35.6-17.2,43.6s-42.5,7.8-64,7.8c-47.3,0.1-93.8,5.3-139.4,18.5c-1.7,0.5-3.3,1.2-5,1.6
	c-3.5,0.7-6.7,2.1-5.4,6.2s5.1,3.1,8.2,2.3c13.3-3.3,26.5-7.2,39.9-10c29.8-6.2,60.1-9.3,90.5-9.3c22.5,0,45.1-0.1,67.2-5.1
	c15.6-3.5,29.3-10.1,36.3-26c0.9-1.9,2.3-3.4,4.2-4.3c56.1-30.9,109.1-67,164.1-99.6c5.5-3.3,11.1-6.5,16.9-9.3
	c10.3-5,21.2-3.2,28.2,4.3s8.4,18.5,3,28.7c-5,9.4-11.7,17.7-19.8,24.6c-87.5,75-177.5,146.6-280.5,199.5
	c-9.1,4.7-18.7,8.2-27.8,12.8c-33.5,16.9-69,14.5-104.7,11.7c-26.2-2.1-50.5-11-75-20c-58.4-21.4-118.3-34.3-181-30.2
	c-7.2,0.5-9.2-1.4-9.1-8.9C234.3,758.2,234,731,234,704z"/>
<path class="st7" d="M719,661.5c-2.3-7-3.2-13.9-6.7-19c-5.6-8.2-2.3-10.9,4.9-15c39.6-22.5,78.9-45.6,118.3-68.4
	c13.4-7.8,28-6.5,36.1,3.2c2.3,2.8,3,4.3-0.8,6.6C820.1,599.1,770.7,631.9,719,661.5z"/>
<path class="st8" d="M688.9,616.4c35-18.7,70.1-36.7,103.8-57.5c7.9-4.9,16.4-5.1,25.5-2.1c-1.5,3.3-4.5,4-6.8,5.4
	c-32.4,18.9-65.1,37.3-97.2,56.9C704.5,625,697,627,688.9,616.4z"/>
<path class="st9" d="M659.4,609.3c31.2-9.7,56.7-33.1,90.7-39.3c-1.4,5.1-4.7,5.5-7,6.8c-19.4,10.6-39.2,20.6-58.3,31.6
	C676.3,613.1,668.3,612.6,659.4,609.3z"/>
<path class="st10" d="M695.7,542.9c-19.5-0.2-38-5.4-56.4-11.5c-15-5-29.9-10.1-45.8-11.4c-19.1-1.5-37,3.7-54.8,9.7
	c-21.4,7.2-42.8,13.9-65.7,13.1c-7.9-0.2-15.7-1.4-23.3-3.5c-24.6-7.2-36.5-26.3-32.6-51.8c1.8-12,4.9-23.7,10.1-34.5
	c26-53.7,64.6-95.4,117.3-123.3c27.2-14.4,55-15.1,82.3-0.6c57.6,30.7,99.7,75.9,123.6,137.4c4.7,11.5,6.5,24,5.2,36.3
	c-1.9,17.3-11.7,28.4-27.3,34.6C717.9,541.5,706.9,543,695.7,542.9z"/>
<path class="st10" d="M653.5,278.1c-13.9,0-23.8-7.1-30.7-18.7c-20.3-34.1-4.5-92.7,30-111.8c20.3-11.2,40.9-4.9,51.8,16
	c17.5,33.7,3.1,87.4-28.9,107.5C668.9,275.3,661.7,278.2,653.5,278.1z"/>
<path class="st10" d="M481.3,255c-10.8-9.6-14.7-22.7-18.1-36c-4.8-18.8-4.1-37.3,4.6-55c10.9-22,33.1-28.5,53.7-15.2
	c23.7,15.2,34,38.7,36.9,65.9c1.4,12.9,0.3,25.8-5,38c-11.3,26-35.8,33-58.8,16.6C489.3,265.5,483.3,261.9,481.3,255
	c4.6-1.2,6.6,2.9,9.5,5c11.3,8.7,23.2,14.8,38,10.6c-45.2-13-66-88.6-32.7-121.1c-15.9,3.5-27.4,17.7-29.9,36.3
	c-3.1,21.1,1.6,42.6,13.2,60.5C481,248.9,483.8,251.4,481.3,255z"/>
<path class="st10" d="M744.1,274.9c17.5-22.7,52.8-19.2,65.2,6.5c13.3,27.4-0.2,65.6-28.1,79.6c-13.7,0.9-23.5-5.8-30.5-16.9
	c-13-20.5-10-50.4,6.8-69c3.2-3.7,6.8-7,10.6-10c-5.6,1.9-11,4.5-16,7.8C749.7,274.4,747.3,276.6,744.1,274.9z"/>
<path class="st10" d="M371.1,341.9c-16.9-18-17.3-53.8-0.5-71.2c10.6-10.9,23.7-13.4,38-9c31.8,9.8,50.3,52,36.1,82.2
	c-3.5,7.5-7.8,14.5-16.4,17.2c-18.4-1.6-31.5-11.6-40.9-26.8c-12.8-20.8-15.1-47.8,2.7-68.1c-7.3,0.4-13.3,3.7-18.1,10.5
	c-11.8,16.8-11.6,34.5-3.8,52.8C369.8,333.5,373.4,337,371.1,341.9z"/>
</svg>
