<svg id="Layer_1" data-name="Layer 1" xmlns="http://www.w3.org/2000/svg" viewBox="0 0 512 512"><path d="M324.54,25.6c-92.11,0-168.139,73.59-172.159,164.59l11.37,65.32a175.349,175.349,0,0,0,88.29,96.709l53.249,14.81a157.018,157.018,0,0,0,19.25,1.046c94.7,0,171.46-76.683,171.46-171.243S419.24,25.6,324.54,25.6Z" style="fill:#b3d1e7"/><path d="M324.46,53.52C248.68,53.52,186,112.39,181,186.72v.01l3.75,43.14a142.438,142.438,0,0,0,37.46,66.5,149.782,149.782,0,0,0,58.07,36.44L308,340h-.23c5.03,0,11.6.245,16.77.245A143.421,143.421,0,0,0,468,196.878C468,117.738,403.72,53.52,324.46,53.52Z" style="fill:#8aafc4"/><path d="M310.28,332.81a149.782,149.782,0,0,1-58.07-36.44,142.438,142.438,0,0,1-37.46-66.5L211,186.73v-.01C215.666,117.348,270.577,61.45,339.487,54.3a145.133,145.133,0,0,0-15.027-.781C248.68,53.52,186,112.39,181,186.72v.01l3.75,43.14a142.438,142.438,0,0,0,37.46,66.5,149.782,149.782,0,0,0,58.07,36.44L308,340h-.23c5.03,0,11.6.245,16.77.245,4.16,0,8.276-.187,12.346-.534Z" style="fill:#6a8b99"/><path d="M360.24,121.8a31.065,31.065,0,1,1-31.11,31.06A31.082,31.082,0,0,1,360.24,121.8Z" style="fill:#5fa8ed"/><path d="M217.466,309.315a6,6,0,0,1-5.223-8.944c7.631-13.561,19.179-20.98,33.4-21.46,12.792-.431,14.577-5.7,18.133-16.186,3.013-8.887,6.762-19.947,19.2-28.458a6,6,0,1,1,6.776,9.9c-9.135,6.251-11.919,14.465-14.612,22.407-3.753,11.07-8.006,23.617-29.094,24.328-10.085.339-17.719,5.361-23.341,15.351A6,6,0,0,1,217.466,309.315Z" style="fill:#c2f2f1"/><path d="M15.994,357.212a6,6,0,0,1-5.223-8.943c10.9-19.374,26.684-29.544,46.907-30.226,19.283-.648,23.38-11.511,29.583-27.952,5.958-15.8,13.374-35.452,37.859-47.9a6,6,0,0,1,5.437,10.7c-20.337,10.336-26.3,26.145-32.069,41.434-6.452,17.1-13.125,34.792-40.406,35.711-15.969.538-28.024,8.427-36.853,24.116A6,6,0,0,1,15.994,357.212Z" style="fill:#c2f2f1"/><path d="M163.521,475.051a6,6,0,0,1-5.223-8.944c9.763-17.351,23.908-26.46,42.044-27.07,17.956-.6,20.732-8.794,25.331-22.362,3.844-11.339,8.627-25.45,24.355-36.212a6,6,0,1,1,6.776,9.9c-12.424,8.5-16.156,19.512-19.766,30.16-4.706,13.884-10.04,29.619-36.293,30.5-13.851.466-24.315,7.323-31.989,20.961A6,6,0,0,1,163.521,475.051Z" style="fill:#c2f2f1"/><path d="M29.353,492.4a6,6,0,0,1-5.314-8.776c7.19-13.778,18.484-21.55,32.663-22.476,12.748-.833,14.363-6.142,17.58-16.721,2.727-8.967,6.12-20.126,18.27-29.015a6,6,0,0,1,7.085,9.686c-8.918,6.524-11.437,14.808-13.874,22.82-3.4,11.17-7.247,23.831-28.279,25.205-10.052.656-17.512,5.907-22.806,16.052A6,6,0,0,1,29.353,492.4Z" style="fill:#c2f2f1"/><path d="M283.53,161.32a5.992,5.992,0,1,1,4.24-1.75A6.086,6.086,0,0,1,283.53,161.32Z" style="fill:#6e8c99"/><path d="M425.04,184.69a6.009,6.009,0,1,1,4.24-1.76A6.012,6.012,0,0,1,425.04,184.69Z" style="fill:#6e8c99"/><path d="M369.32,240.33a6.009,6.009,0,1,1,4.25-1.76A6.047,6.047,0,0,1,369.32,240.33Z" style="fill:#6e8c99"/><path d="M263.884,128.086h-4.831a6,6,0,1,1,0-12h4.831a6,6,0,0,1,0,12Z" style="fill:#b3d1e7"/><path d="M228.313,212.58a6,6,0,0,1-5.571-3.768l-1.8-4.478a6,6,0,1,1,11.137-4.468l1.8,4.479a6,6,0,0,1-5.567,8.235Z" style="fill:#b3d1e7"/><path d="M367.54,310.748a6.006,6.006,0,0,1-5.823-7.466L362.9,298.6a6,6,0,0,1,11.637,2.929l-1.178,4.68A6,6,0,0,1,367.54,310.748Z" style="fill:#b3d1e7"/><path d="M377.134,98.117A6,6,0,0,1,374.343,86.8l4.277-2.242a6,6,0,1,1,5.572,10.628l-4.277,2.242A5.976,5.976,0,0,1,377.134,98.117Z" style="fill:#b3d1e7"/><path d="M427.178,234.7a6,6,0,0,1-2.792-11.315l6.253-3.28a6,6,0,1,1,5.574,10.627l-6.253,3.28A5.972,5.972,0,0,1,427.178,234.7Z" style="fill:#b3d1e7"/><path d="M299.577,87.867a6,6,0,0,1-1.185-11.881c2.155-.437,4.358-.824,6.547-1.151a6,6,0,0,1,1.77,11.869c-1.984.3-3.98.647-5.933,1.043A6.072,6.072,0,0,1,299.577,87.867Z" style="fill:#f4f8fc"/><path d="M215.128,151.633a6,6,0,0,1-5.32-8.767,129.23,129.23,0,0,1,63.914-59.22,6,6,0,1,1,4.7,11.043A117.2,117.2,0,0,0,220.457,148.4,6,6,0,0,1,215.128,151.633Z" style="fill:#f4f8fc"/><path d="M325.56,200.3c7.39,7.6,2.12,25.45-5.16,35.22-2.16,2.89-9,12.06-19.5,12.02a18,18,0,0,1-5.45-.96,12.857,12.857,0,0,1-5.31-3.38l-3.78-3.98-3.22-3.39a12.5,12.5,0,0,1-3.31-6.36,9.067,9.067,0,0,1-.14-1.01c-.82-10.83,9.03-18.57,12.85-21.58C300.56,200.58,317.63,192.14,325.56,200.3Z" style="fill:#a0eaea"/><path d="M307.76,339.73c2.86,7.38,1.24,17.81-2.47,27.21a60.14,60.14,0,0,1-7.46,13.65c-2.81,3.77-11.74,15.73-25.44,15.69a23.78,23.78,0,0,1-7.11-1.26,16.7,16.7,0,0,1-6.93-4.41l-4.93-5.19-4.2-4.43a16.284,16.284,0,0,1-4.33-8.29,13.09,13.09,0,0,1-.17-1.33c-.59-7.74,3.01-14.27,7.2-19.24a63.114,63.114,0,0,1,9.56-8.91,72.022,72.022,0,0,1,18.7-10.41c9.09-3.31,18.6-4.13,24.39,1.82A14.779,14.779,0,0,1,307.76,339.73Z" style="fill:#a0eaea"/><path d="M185.48,189.85c8.32,8.54,5.79,25.88-.65,40.02a65.912,65.912,0,0,1-6.97,11.98c-2.05,2.74-6.97,9.34-14.35,13.66a28.033,28.033,0,0,1-14.43,4.09,26.831,26.831,0,0,1-8.05-1.43,18.821,18.821,0,0,1-7.83-4.99l-5.36-5.64-4.98-5.23a18.51,18.51,0,0,1-4.89-9.39,13.757,13.757,0,0,1-.2-1.5c-1.21-15.98,13.33-27.41,18.97-31.85a82.21,82.21,0,0,1,15.4-9.38c9.86-4.61,21.06-7.33,29.02-3.46A15.289,15.289,0,0,1,185.48,189.85Z" style="fill:#a0eaea"/><path d="M136.27,382.46c7.38,7.58,2.12,25.42-5.16,35.17-2.15,2.89-8.98,12.04-19.47,12.01a17.944,17.944,0,0,1-5.44-.97,12.7,12.7,0,0,1-5.3-3.37l-6.99-7.36a12.435,12.435,0,0,1-3.31-6.35c-.06-.34-.11-.68-.14-1.01-.81-10.81,9.02-18.55,12.84-21.55C111.3,382.74,128.35,374.32,136.27,382.46Z" style="fill:#a0eaea"/></svg>