<?xml version="1.0" encoding="utf-8"?>
<!-- Generator: Adobe Illustrator 24.3.0, SVG Export Plug-In . SVG Version: 6.00 Build 0)  -->
<svg version="1.1" id="Layer_1" xmlns="http://www.w3.org/2000/svg" xmlns:xlink="http://www.w3.org/1999/xlink" x="0px" y="0px"
	 viewBox="0 0 64 64" style="enable-background:new 0 0 64 64;" xml:space="preserve">
<style type="text/css">
	.st0{fill:#DD5891;}
	.st1{fill:#EAAADE;}
	.st2{fill:#D9387C;}
	.st3{fill:#E48FD0;}
	.st4{fill:#F7F8FA;}
	.st5{fill:#655E66;}
	.st6{fill:#544F56;}
	.st7{fill:#756D78;}
	.st8{fill:#F6E782;}
	.st9{fill:#F5D96D;}
	.st10{fill:#94D8E5;}
</style>
<g id="Coral">
	<path id="path187557-7" class="st0" d="M41.2,57.9c0.2-0.1,0.3-0.3,0.5-0.4c0.9-0.5,1.8-0.9,2.9-1.2c1.3-0.4,2.5-1.1,3.4-2
		c0.9-1,1.2-2.4,0.9-4.3c0.7-0.2,1.4-0.5,2-0.9c0.8-0.4,1.5-1,2-1.6c0.6-0.8,0.8-1.8,0.6-2.7l-0.9-3.8c-0.2-0.7-1.1-1.2-1.9-1
		c-0.8,0.2-1.4,0.8-1.2,1.5l0.9,3.8c0.1,0.3,0,0.6-0.2,0.8c-0.3,0.3-0.6,0.6-1.1,0.8c-0.2,0.1-0.5,0.2-0.7,0.3
		c-1.1-5.5-1.7-7.5-1.7-7.5c-0.2-0.6-0.7-1-1.4-1l0,0c-0.2,0-0.3,0-0.5,0c-0.9,0.2-1.4,0.9-1.2,1.6c0,0,0,0,0,0c0,0,0.7,2.5,2.1,9.6
		c0.3,1.6,0,2.3-0.3,2.7c-0.4,0.4-0.9,0.7-1.5,0.9c-0.2-1.9-0.5-3.7-1-5.6c-0.2-0.7-1-1.2-1.8-1.1c-0.9,0.1-1.4,0.8-1.3,1.5
		c0,0,0,0.1,0,0.1c0.5,2.1,0.8,4.1,1,6.2c-0.4,0.2-0.7,0.4-1,0.6l-0.1,0.1l-1.6,0.3l0.3,2.6C38.2,58.4,41.2,58.6,41.2,57.9z"/>
	<path id="path187212-9" class="st1" d="M39.7,57.1c0-1.4-0.3-2.8-1.1-4.1c-1-1.6-2.5-2.5-3.3-3.2c-0.8-0.7-1.1-1.1-0.6-2.8
		c0.2-0.5,0.3-1,0.5-1.5c0.6-0.2,1.4-0.1,2.5-0.4c0.9-0.2,1.8-0.7,2.4-1.3c0.7-0.8,1.2-1.8,1.3-2.9c0.1-0.7-0.5-1.4-1.4-1.5
		c-0.8-0.1-1.6,0.4-1.8,1.1c-0.1,0.6-0.3,1.1-0.7,1.6c-0.2,0.2-0.5,0.4-0.8,0.4c-0.3,0.1-0.5,0.1-0.8,0.1c0.4-1.7,0.6-2.9,0.6-2.9
		c0.1-0.7-0.4-1.4-1.3-1.5l0,0c-0.9-0.1-1.7,0.4-1.8,1.1c0,0,0,0,0,0c-0.5,2.3-1.1,4.6-1.8,6.9c-0.4,1.2-0.4,2.4,0.1,3.6
		c-0.7,0-1.3-0.3-1.7-0.7c-0.6-0.5-1-1.6-0.7-3.2c0.1-0.7-0.6-1.4-1.5-1.4c-0.8-0.1-1.6,0.4-1.7,1.1c-0.3,2.1,0.1,4,1.5,5.3
		s3.7,1.8,6.3,1.5c0.7,0.5,1.3,1.1,1.8,1.8c0.5,0.9,0.7,1.9,0.7,2.9L39.7,57.1z"/>
	<path id="path559508" class="st2" d="M45,38.7c-0.1,0-0.2,0-0.2,0c-0.2,0-0.3,0.1-0.5,0.2c0.4,0.2,0.7,0.5,0.8,0.8
		c0,0,0.6,2.1,1.7,7.5h1.6c-0.5-2.5-1-5-1.7-7.5c-0.2-0.6-0.7-1-1.4-1H45z M50.9,39.8c-0.1,0-0.2,0-0.3,0c-0.2,0-0.4,0.1-0.5,0.2
		c0.4,0.2,0.7,0.5,0.8,0.9l0.9,3.8c0.2,0.9,0,1.9-0.6,2.7c-0.5,0.7-1.2,1.2-2,1.6c-0.6,0.3-1.3,0.6-2,0.9c0.3,1.8,0,3.2-0.9,4.3
		c-0.9,0.9-2,1.6-3.4,2c-1,0.3-1.9,0.7-2.8,1.3c-0.2,0.1-0.4,0.3-0.5,0.4c0,0.4-0.7,0.5-1.4,0.6l0,0c0,0,3,0.2,3-0.6
		c0.2-0.1,0.3-0.3,0.5-0.4c0.9-0.5,1.8-0.9,2.9-1.2c1.3-0.4,2.5-1.1,3.4-2c0.9-1,1.2-2.4,0.9-4.3c0.7-0.2,1.4-0.5,2-0.9
		c0.8-0.4,1.5-1,2-1.6c0.6-0.8,0.8-1.8,0.6-2.7l-0.9-3.8c-0.1-0.6-0.7-1-1.4-1.1C51.1,39.8,51,39.8,50.9,39.8L50.9,39.8z M43.7,52.4
		c-0.4-2.7-0.8-4.4-0.8-4.4c-0.2-0.6-0.7-1-1.4-1c-0.1,0-0.2,0-0.3,0c-0.1,0-0.2,0-0.2,0c-0.2,0-0.3,0.1-0.5,0.2
		c0.4,0.2,0.7,0.5,0.8,0.8c0.5,1.9,0.8,3.7,1,5.6h1.6L43.7,52.4z"/>
	<path id="path562813" class="st3" d="M40,39.3c-0.3,0-0.6,0-0.8,0.1c0.7,0.2,1,0.8,0.9,1.4c-0.1,1-0.6,2-1.3,2.9
		c-0.6,0.6-1.4,1.1-2.4,1.3c-0.6,0.1-1.3,0.2-1.9,0.3c-0.2,0-0.4,0.1-0.6,0.1c-0.1,0.5-0.3,1-0.5,1.5c-0.5,1.7-0.2,2.1,0.6,2.8
		c0.8,0.7,2.3,1.6,3.3,3.2c0.7,1.3,1.1,2.7,1.1,4.1l1.2,0c0-1.4-0.3-2.8-1.1-4.1c-1-1.6-2.5-2.5-3.3-3.2c-0.8-0.7-1.1-1.1-0.6-2.8
		c0.2-0.5,0.3-1,0.5-1.5c0.6-0.2,1.4-0.1,2.5-0.4c0.9-0.2,1.8-0.7,2.4-1.3c0.7-0.8,1.2-1.8,1.3-2.9C41.5,40.1,40.9,39.4,40,39.3z"/>
	<path id="path188453-7" class="st4" d="M47.5,60.2c1-0.4,2-0.8,3-1.1c0.8-0.2,1.3-1,1-1.7c-0.1-0.3-0.4-0.6-0.8-0.8
		c-0.2-0.1-0.4-0.1-0.6-0.1l0,0c-0.2,0-0.4,0-0.6,0.1c-1.2,0.4-2.4,0.8-3.6,1.3L47.5,60.2z"/>
	<path id="path190813-6" class="st4" d="M31.3,57.5c-0.9-1.2-1.9-2.3-3-3.3c-0.6-0.5-1.6-0.6-2.3-0.1c0,0,0,0,0,0
		c-0.6,0.5-0.7,1.3-0.1,1.9c1.1,1,2,2.1,2.9,3.3L31.3,57.5z"/>
	<path id="path552278" class="st5" d="M43.7,57.4c-0.8,0-1.7,0.2-2.3,0.7l0.8,3.9c0.5,0,1,0,1.5,0c2.1,0,3.7,0.2,3.7-1.5
		C47.5,58.7,45.8,57.4,43.7,57.4C43.7,57.4,43.7,57.4,43.7,57.4z"/>
	<path id="path186329-1" class="st5" d="M32.2,57.4c-2.1,0-3.8,1.4-3.8,3.1c0,0,0,0,0,0c0,1.7,1.7,1.5,3.8,1.5c0.5,0,1.1,0,1.5,0
		l0.8-3.9C33.9,57.6,33,57.4,32.2,57.4z"/>
	<path id="path556800" class="st6" d="M43.7,57.4c-0.4,0-0.7,0-1.1,0.1c1.6,0.4,2.7,1.6,2.7,3c0,1.3-0.9,1.5-2.2,1.5h0.6
		c2.1,0,3.7,0.2,3.7-1.5C47.5,58.8,45.8,57.4,43.7,57.4C43.7,57.4,43.7,57.4,43.7,57.4z"/>
	<path id="path556802" class="st6" d="M33.5,57.6c-1.2,0.7-1.9,1.9-1.9,3.1c0,0.5,0.1,0.9,0.5,1.3h0.1c0.5,0,1.1,0,1.5,0l0.8-3.9
		C34.2,57.8,33.9,57.7,33.5,57.6z"/>
	<path id="path186788-5" class="st7" d="M42.7,60.7c0,2.1-2.1,1.9-4.7,1.9c-2.6,0-4.7,0.3-4.7-1.9c0.1-2.1,2.3-3.8,4.9-3.7
		C40.6,57,42.6,58.6,42.7,60.7z"/>
	<path id="path554882" class="st5" d="M38,56.8c-0.4,0-0.7,0-1,0.1c2.1,0.4,3.6,2,3.6,3.8c0,1.5-1,1.8-2.5,1.9
		c2.6,0,4.6,0.3,4.6-1.9C42.6,58.5,40.5,56.8,38,56.8z"/>
	<path d="M32.2,56.8c-0.2,0-0.4,0-0.7,0.1c-0.9-1.1-1.8-2.1-2.8-3.1c-0.8-0.8-2.2-0.9-3.1-0.2c-0.9,0.6-1.1,1.8-0.3,2.6
		c0,0,0.1,0.1,0.1,0.1c1,1,1.9,2,2.7,3c-0.2,0.4-0.3,0.8-0.3,1.2c0,0.5,0.2,1.1,0.6,1.4c0.6,0.5,1.5,0.6,2.5,0.6h2.5
		c0.7,0.5,1.7,0.6,2.9,0.6h0.7c0.5,0,1.1,0,1.6,0c1.5,0,2.8,0,3.7-0.6c0.8,0,1,0,1.9,0H45c1,0,1.9-0.1,2.5-0.6
		c0.4-0.4,0.6-0.9,0.6-1.4c0.8-0.4,1.7-0.7,2.6-1c1.2-0.3,1.8-1.3,1.4-2.3c-0.3-0.7-1-1.2-1.9-1.2c-0.3,0-0.6,0-0.9,0.1
		c-1.2,0.4-2.3,0.8-3.4,1.3c-0.5-0.2-1.1-0.4-1.7-0.5l0.2-0.1l0.4-0.1c1.5-0.4,2.7-1.2,3.6-2.2c0.9-1.1,1.2-2.5,1.1-4.2
		c0.6-0.2,1.1-0.5,1.7-0.8c0.9-0.5,1.6-1.1,2.2-1.8c0.7-0.9,0.9-2,0.7-3.1l-0.9-3.8c-0.2-1-1.4-1.6-2.6-1.4c0,0,0,0,0,0
		c-1.2,0.2-2,1.1-1.8,2.1l0.9,3.8c0.1,0.2,0,0.3-0.1,0.5c-0.2,0.2-0.5,0.5-0.8,0.6c-1-4.9-1.5-6.7-1.6-6.8c-0.2-0.8-1-1.3-2-1.4
		c-0.2,0-0.5,0-0.7,0c-1.2,0.2-1.9,1.2-1.6,2.2c0,0,0.7,2.5,2.1,9.6c0.3,1.5,0,2.1-0.2,2.4c-0.1,0.2-0.3,0.3-0.5,0.4
		c-0.2-1.6-0.5-3.3-0.9-4.9c-0.4-1-1.6-1.5-2.8-1.2c-1,0.3-1.7,1.1-1.5,2c0.5,1.9,0.8,3.9,1,5.9c0,0-0.1,0-0.1,0.1
		c-0.2-0.7-0.5-1.3-0.8-1.9c-0.7-1-1.5-1.9-2.6-2.7c-0.3-0.2-0.6-0.4-0.8-0.6c-0.7-0.7-0.9-0.9-0.5-2.4c0.1-0.4,0.3-0.8,0.4-1.2
		l0.5-0.1c0.5,0,1.1-0.1,1.6-0.3c1.1-0.2,2-0.8,2.7-1.5c0.8-0.9,1.3-2,1.5-3.1c0.2-1-0.6-1.9-1.9-2.1s-2.3,0.5-2.5,1.5
		c0,0.5-0.2,1-0.5,1.4c-0.1,0.1-0.2,0.2-0.3,0.2c0.3-1.3,0.4-2.1,0.5-2.1c0.1-1-0.8-1.9-2-2c-1.1-0.1-2.1,0.6-2.4,1.5
		c-0.5,2.3-1,4.6-1.8,6.8c-0.3,1-0.4,2-0.2,2.9c-0.2-0.1-0.3-0.2-0.4-0.3c-0.5-0.5-0.7-1.5-0.5-2.8c0.2-1-0.7-1.9-1.9-2
		c-1.2-0.1-2.3,0.6-2.5,1.6c-0.4,2.4,0.2,4.4,1.7,5.7s3.8,1.9,6.5,1.7c0.6,0.4,1.1,0.9,1.5,1.5c0.4,0.7,0.6,1.5,0.6,2.3
		c-0.5,0.2-0.9,0.4-1.3,0.7C33.8,57,33,56.8,32.2,56.8z M26.4,55.5c-0.4-0.3-0.3-0.8,0.1-1.1c0.4-0.3,1-0.3,1.4,0c0,0,0,0,0,0
		c0.9,0.9,1.7,1.8,2.5,2.8c-0.6,0.2-1.1,0.6-1.5,1C28,57.3,27.2,56.4,26.4,55.5z M31.6,61.4c-1,0-1.9,0-2.2-0.3
		c-0.2-0.2-0.3-0.5-0.2-0.7c0-1.4,1.4-2.6,3.1-2.6c0.5,0,1,0.1,1.4,0.3c-0.6,0.7-1,1.6-1,2.5c0,0.3,0,0.5,0.1,0.8H31.6z M38.8,62
		c-0.5,0-1.1,0-1.6,0c-1.3,0-2.5,0-2.9-0.4c-0.3-0.3-0.4-0.7-0.4-1c0.1-1.9,2-3.3,4.2-3.2c2.1,0.1,3.8,1.5,3.9,3.2
		c0.1,0.4-0.1,0.7-0.4,1C41.2,62,40.1,62,38.8,62z M46.6,61.2c-0.4,0.3-1.3,0.3-2.2,0.3h-1.2c0.1-0.3,0.1-0.5,0.1-0.8
		c0-0.9-0.3-1.8-1-2.5c1.5-0.6,3.4-0.1,4.2,1.1c0.2,0.4,0.3,0.8,0.3,1.2C46.9,60.7,46.8,61,46.6,61.2L46.6,61.2z M49.7,57.1
		c0.1,0,0.3,0,0.4,0c0.1,0,0.3,0,0.4,0.1c0.2,0.1,0.4,0.3,0.5,0.5c0.2,0.4-0.1,0.9-0.6,1c-0.8,0.3-1.6,0.5-2.4,0.9
		c-0.2-0.5-0.5-1-1-1.4C47.8,57.7,48.8,57.3,49.7,57.1L49.7,57.1z M40.3,48.5c-0.1-0.4,0.2-0.9,0.7-1s1.1,0.1,1.2,0.6c0,0,0,0,0,0.1
		c0.4,1.8,0.8,3.7,0.9,5.5c0,0.2,0.1,0.3,0.3,0.4c0.2,0.1,0.4,0.1,0.6,0c0.7-0.2,1.3-0.6,1.8-1.1c0.6-0.7,0.7-1.6,0.4-3.1
		c-1.4-7.1-2.1-9.6-2.1-9.6c-0.1-0.4,0.2-0.9,0.7-1c0,0,0,0,0,0c0.1,0,0.2,0,0.3,0c0.4,0,0.8,0.3,0.9,0.6c0,0,0.6,2.1,1.7,7.5
		c0,0.2,0.2,0.3,0.3,0.4c0.2,0.1,0.4,0.1,0.6,0c0.3-0.1,0.5-0.2,0.8-0.4c0.5-0.3,0.9-0.6,1.2-1c0.3-0.4,0.4-0.8,0.3-1.2L50,41.3
		c-0.1-0.4,0.2-0.9,0.7-1c0.5-0.1,1.1,0.2,1.2,0.6c0,0,0,0,0,0.1l0.9,3.8c0.2,0.8,0,1.7-0.5,2.4c-0.5,0.6-1.1,1.1-1.8,1.5
		c-0.6,0.3-1.2,0.6-1.8,0.8c-0.2,0.1-0.4,0.3-0.4,0.5c0.3,1.7,0,3-0.8,3.9c-0.8,0.9-1.9,1.5-3.1,1.9L44,55.8
		c-0.9,0.3-1.8,0.7-2.6,1.2c-0.1,0-0.1,0.1-0.2,0.1c-0.3-0.2-0.6-0.3-0.9-0.5c0-0.3,0-0.7-0.1-1c0.3-0.2,0.5-0.4,0.8-0.5
		c0.2-0.1,0.3-0.3,0.3-0.5C41.2,52.6,40.8,50.5,40.3,48.5z M36.3,53.9c-0.5-0.7-1-1.3-1.7-1.8L34.4,52c-0.1-0.1-0.3-0.2-0.5-0.1
		c-2.5,0.3-4.5-0.2-5.8-1.3c-1.2-1.1-1.7-2.7-1.4-4.9c0.1-0.4,0.5-0.8,1.1-0.7c0,0,0,0,0,0c0.5,0.1,0.9,0.5,0.8,0.9c0,0,0,0,0,0
		c-0.3,2,0.3,3,0.9,3.6c0.6,0.5,1.3,0.8,2.1,0.8c0.3,0,0.6-0.2,0.7-0.4c0-0.1,0-0.2,0-0.2c-0.4-1.1-0.5-2.2-0.1-3.3
		c0.7-2.3,1.3-4.6,1.8-6.9c0.1-0.4,0.6-0.7,1.1-0.7c0.3,0,0.5,0.2,0.7,0.3c0.2,0.2,0.2,0.4,0.2,0.6c0,0-0.2,1.1-0.6,2.8
		c0,0.2,0,0.3,0.2,0.5c0.1,0.1,0.3,0.2,0.5,0.2c0.3,0,0.6-0.1,0.9-0.1c0.4-0.1,0.8-0.3,1.1-0.6c0.5-0.5,0.7-1.2,0.8-1.8
		c0.1-0.4,0.6-0.7,1.1-0.7c0.3,0,0.5,0.1,0.6,0.3c0.1,0.2,0.2,0.4,0.1,0.6c-0.1,0.9-0.5,1.8-1.2,2.6c-0.5,0.5-1.3,0.9-2.1,1.1
		c-0.5,0.1-0.9,0.2-1.4,0.2c-0.2,0-0.3,0-0.4,0.1c-0.2,0-0.5,0.1-0.7,0.1c-0.2,0.1-0.3,0.2-0.4,0.3c-0.1,0.5-0.3,1-0.5,1.5
		c-0.6,1.9-0.1,2.4,0.7,3.3c0.3,0.3,0.5,0.5,0.8,0.7c1,0.7,1.7,1.5,2.3,2.4c0.6,1,0.9,2.1,1,3.2c-0.3-0.1-0.7-0.1-1.1-0.1
		c-0.3,0-0.6,0-0.9,0.1C37,55.5,36.7,54.7,36.3,53.9z"/>
</g>
<g id="Shoal">
	<path id="path31730-8" class="st8" d="M19.8,5.8c-2.5-0.1-5,0.6-7.2,2c-0.4-1.1-1.4-1.9-2.6-1.9H8.6c-0.8,0-1.4,0.6-1.4,1.4
		c0,0,0,0,0,0v0.4c0,1.5,1.3,2.8,2.8,2.8c-1.5,0-2.8,1.2-2.8,2.8c0,0,0,0,0,0v0.4c0,0.8,0.6,1.4,1.4,1.4c0,0,0,0,0,0H10
		c1.2,0,2.3-0.8,2.6-1.9c2.1,1.4,4.7,2.1,7.2,2c2.6,0,4.6-2.1,4.6-4.7S22.4,5.8,19.8,5.8L19.8,5.8z"/>
	<path id="path31736-4" class="st9" d="M18,10.4h-3.3c0,1.1,0.9,2.1,2.1,2.1h1.5L18,10.4z"/>
	<path id="path33092-5" class="st8" d="M34.2,17c-2.6-0.1-5.1,0.6-7.2,2c-0.4-1.1-1.4-1.9-2.6-1.9H23c-0.8,0-1.4,0.6-1.4,1.4v0.4
		c0,1.5,1.2,2.8,2.8,2.8c-1.5,0-2.8,1.2-2.8,2.8c0,0,0,0,0,0v0.4c0,0.8,0.6,1.4,1.4,1.4l0,0h1.4c1.2,0,2.3-0.8,2.6-1.9
		c2.2,1.4,4.7,2.1,7.2,2c2.5,0,4.6-2.1,4.6-4.6S36.8,17,34.2,17z"/>
	<path id="path33098-0" class="st9" d="M32.3,21.6H29c0,1.1,0.9,2.1,2.1,2.1c0,0,0,0,0,0h1.5L32.3,21.6z"/>
	<path id="path33102-3" class="st8" d="M19.8,28.1c-2.5-0.1-5,0.6-7.2,2c-0.4-1.1-1.4-1.9-2.6-1.9H8.6c-0.8,0-1.4,0.6-1.4,1.4
		c0,0,0,0,0,0V30c0,1.5,1.2,2.8,2.7,2.8c0,0,0,0,0,0c-1.5,0-2.8,1.2-2.8,2.8v0.4c0,0.8,0.6,1.4,1.4,1.4c0,0,0,0,0,0H10
		c1.2,0,2.3-0.8,2.6-1.9c2.1,1.4,4.7,2.1,7.2,2c2.6,0,4.6-2.1,4.6-4.6S22.4,28.1,19.8,28.1L19.8,28.1z"/>
	<path id="path33108-6" class="st9" d="M18,32.8h-3.3c0,1.1,0.9,2.1,2.1,2.1l0,0h1.5L18,32.8z"/>
	<path id="path65656-3-1" class="st10" d="M37.3,13.1c0,0.9-0.7,1.6-1.6,1.6S34,14,34,13.1c0-0.9,0.7-1.6,1.6-1.6l0,0
		C36.6,11.5,37.3,12.2,37.3,13.1z"/>
	<path id="path65761-6-0" class="st10" d="M32.8,8.6c0,1.6-1.3,2.8-2.8,2.8c-1.6,0-2.8-1.3-2.8-2.8s1.3-2.8,2.8-2.8c0,0,0,0,0,0
		C31.5,5.8,32.8,7.1,32.8,8.6C32.8,8.6,32.8,8.6,32.8,8.6z"/>
	<path id="path66756-6" class="st10" d="M17.5,22c0,0.9-0.7,1.6-1.6,1.6c-0.9,0-1.6-0.7-1.6-1.6c0-0.9,0.7-1.6,1.6-1.6c0,0,0,0,0,0
		C16.7,20.4,17.5,21.1,17.5,22z"/>
	<path id="path66758-3" class="st10" d="M32.9,31.5c0,1.4-1.1,2.5-2.5,2.5c-1.4,0-2.5-1.1-2.5-2.5c0-1.4,1.1-2.5,2.5-2.5h0
		C31.7,29,32.9,30.1,32.9,31.5C32.9,31.5,32.9,31.5,32.9,31.5z"/>
	<path id="path16236" class="st9" d="M19.8,28.1c-0.5,0-1,0-1.5,0.1c2.5,0.4,4.2,2.7,3.9,5.3c-0.3,2-1.9,3.6-3.9,3.9
		c0.5,0,1,0.1,1.5,0.1c2.6,0,4.6-2.1,4.6-4.6C24.5,30.2,22.4,28.1,19.8,28.1L19.8,28.1L19.8,28.1z"/>
	<path id="path16230" class="st9" d="M34.2,17c-0.5,0-1,0-1.5,0.1c2.5,0.4,4.2,2.7,3.9,5.3c-0.3,2-1.9,3.6-3.9,3.9
		c0.5,0,1,0.1,1.5,0.1c2.6,0,4.6-2.1,4.6-4.6C38.8,19.1,36.8,17,34.2,17z"/>
	<path id="path12117" class="st9" d="M19.8,5.8c-0.5,0-1,0-1.5,0.1c2.5,0.4,4.2,2.7,3.9,5.3c-0.3,2-1.9,3.6-3.9,3.9
		c0.5,0,1,0.1,1.5,0.1c2.6,0,4.6-2.1,4.6-4.6S22.4,5.8,19.8,5.8z"/>
	<path d="M8.6,15.7H10c1.2,0,2.3-0.6,2.9-1.6c2.1,1.2,4.5,1.7,6.9,1.7c3.1,0,5.6-2.2,5.6-5.3s-2.5-5.6-5.6-5.3
		c-2.4-0.1-4.8,0.5-6.9,1.7c-0.6-1-1.7-1.6-2.9-1.6H8.6c-1.1,0-2.1,0.9-2.1,2.1v0.4c0,1.1,0.5,2.1,1.4,2.8c-0.9,0.7-1.4,1.7-1.4,2.8
		v0.4C6.5,14.7,7.4,15.7,8.6,15.7C8.6,15.7,8.6,15.7,8.6,15.7z M17.3,11.1c0,0.3,0.1,0.5,0.1,0.8h-0.7c-0.5,0-1-0.3-1.3-0.8H17.3z
		 M7.8,13.2c0-1.2,0.9-2.1,2.1-2.1c0,0,0,0,0,0c0.4,0,0.7-0.3,0.7-0.7c0-0.4-0.3-0.7-0.7-0.7c-1.2,0-2.1-0.9-2.1-2.1V7.3
		c0-0.4,0.3-0.8,0.8-0.8H10c0.9,0,1.7,0.6,2,1.5c0.1,0.2,0.2,0.4,0.4,0.4c0.2,0.1,0.4,0,0.6-0.1c2-1.3,4.4-1.9,6.9-1.9
		c2.2,0,4,1.8,4,4c0,0.4,0,0.7-0.1,1.1h-1.4c-0.4,0-0.7,0.3-0.7,0.7s0.3,0.7,0.7,0.7H23c-0.6,0.8-1.4,1.3-2.3,1.5
		c-1.3-0.9-2.1-2.3-2.1-3.9c0-0.4-0.3-0.7-0.7-0.7h-3.3c-0.4,0-0.7,0.3-0.7,0.7c0,1.5,1.2,2.7,2.7,2.7H18c0.2,0.4,0.5,0.8,0.8,1.2
		c-2.1-0.1-4.1-0.7-5.8-1.8c-0.1-0.1-0.2-0.1-0.4-0.1c-0.1,0-0.1,0-0.2,0c-0.2,0.1-0.3,0.2-0.4,0.4c-0.3,0.9-1.1,1.4-2,1.4H8.6
		c-0.4,0-0.8-0.3-0.8-0.8c0,0,0,0,0,0V13.2z"/>
	<circle cx="21.4" cy="9.2" r="0.8"/>
	<path d="M39.5,21.6c0-2.9-2.4-5.3-5.3-5.3c-2.4-0.1-4.8,0.5-6.9,1.7c-0.6-1-1.7-1.6-2.9-1.6H23c-1.1,0-2.1,0.9-2.1,2.1v0.4
		c0,1.1,0.5,2.1,1.4,2.8c-0.9,0.6-1.4,1.7-1.4,2.8v0.4c0,1.1,0.9,2.1,2.1,2.1h1.4c1.2,0,2.3-0.6,2.9-1.6c2.1,1.2,4.5,1.7,6.9,1.7
		C37.1,26.9,39.4,24.5,39.5,21.6z M31.7,22.3c0,0.3,0.1,0.5,0.1,0.8h-0.7c-0.5,0-1-0.3-1.3-0.8H31.7z M27,23.6c-0.1,0-0.1,0-0.2,0
		c-0.2,0.1-0.3,0.2-0.4,0.4c-0.3,0.9-1.1,1.5-2,1.5H23c-0.4,0-0.8-0.3-0.8-0.8v-0.4c0-1.1,1-2.1,2.1-2.1c0.4,0,0.7-0.3,0.7-0.7
		c0-0.4-0.3-0.7-0.7-0.7c-1.2,0-2.1-1-2.1-2.1v-0.4c0-0.4,0.3-0.8,0.8-0.8h1.4c0.9,0,1.7,0.6,2,1.4c0.1,0.2,0.2,0.4,0.4,0.4
		c0.2,0.1,0.4,0,0.6-0.1c2.1-1.3,4.5-1.9,6.9-1.8c2.2,0,4,1.8,4,4c0,0.3-0.1,0.7-0.2,1h-1.4c-0.4,0-0.7,0.3-0.7,0.7
		c0,0.4,0.3,0.7,0.7,0.7h0.8c-0.6,0.8-1.4,1.3-2.3,1.5c-1.3-0.9-2.1-2.3-2.1-3.9c0-0.4-0.3-0.7-0.7-0.7H29c-0.4,0-0.7,0.3-0.7,0.7
		c0,1.5,1.2,2.7,2.7,2.7h0h1.2c0.2,0.4,0.5,0.8,0.8,1.2c-2-0.1-4-0.7-5.8-1.8C27.2,23.6,27.1,23.6,27,23.6z"/>
	<circle cx="35.7" cy="20.4" r="0.8"/>
	<path d="M8.6,38H10c1.2,0,2.3-0.6,2.9-1.6c2.1,1.2,4.5,1.7,6.9,1.7c2.9,0,5.3-2.4,5.3-5.3s-2.4-5.3-5.3-5.3
		c-2.4-0.1-4.8,0.5-6.9,1.7c-0.6-1-1.7-1.6-2.9-1.6H8.6c-1.1,0-2.1,0.9-2.1,2.1c0,0,0,0,0,0V30c0,1.1,0.5,2.2,1.4,2.8
		c-0.9,0.6-1.4,1.7-1.4,2.8v0.4C6.5,37.1,7.5,38,8.6,38z M17.3,33.5c0,0.3,0.1,0.5,0.1,0.8h-0.7c-0.5,0-1-0.3-1.3-0.8H17.3z
		 M7.8,35.6c0-1.2,1-2.1,2.1-2.1c0.4,0,0.7-0.3,0.7-0.7c0-0.4-0.3-0.7-0.7-0.7c-1.2,0-2.1-0.9-2.1-2.1c0,0,0,0,0,0v-0.4
		c0-0.4,0.3-0.8,0.7-0.8c0,0,0,0,0,0H10c0.9,0,1.7,0.6,2,1.4c0.1,0.2,0.2,0.4,0.4,0.4c0.2,0.1,0.4,0,0.6-0.1c2-1.3,4.4-1.9,6.8-1.9
		c2.2,0,4,1.8,4,4c0,0.4,0,0.7-0.1,1.1h-1.4c-0.4,0-0.7,0.3-0.7,0.7c0,0.4,0.3,0.7,0.7,0.7H23c-0.6,0.8-1.4,1.3-2.3,1.5
		c-1.3-0.9-2.1-2.3-2.1-3.8c0-0.4-0.3-0.7-0.7-0.7h-3.3c-0.4,0-0.7,0.3-0.7,0.7c0,1.5,1.2,2.7,2.7,2.7c0,0,0,0,0,0H18
		c0.2,0.4,0.5,0.8,0.8,1.2c-2.1-0.1-4.1-0.7-5.8-1.8c-0.3-0.2-0.7-0.1-0.9,0.2c0,0-0.1,0.1-0.1,0.2c-0.3,0.9-1.1,1.5-2,1.5H8.6
		c-0.4,0-0.8-0.3-0.8-0.8c0,0,0,0,0,0V35.6z"/>
	<circle cx="21.4" cy="31.5" r="0.8"/>
	<path d="M35.7,15.4c1.3,0,2.3-1,2.3-2.3s-1-2.3-2.3-2.3c-1.3,0-2.3,1-2.3,2.3c0,0,0,0,0,0C33.4,14.3,34.4,15.3,35.7,15.4z
		 M35.7,12.1c0.5,0,1,0.4,1,1c0,0.5-0.4,1-1,1c-0.5,0-1-0.4-1-1c0,0,0,0,0,0C34.7,12.5,35.1,12.1,35.7,12.1z"/>
	<path d="M29.9,12.1c1.9,0,3.5-1.6,3.5-3.5s-1.6-3.5-3.5-3.5s-3.5,1.6-3.5,3.5l0,0C26.5,10.5,28,12.1,29.9,12.1z M29.9,6.5
		c1.2,0,2.2,1,2.2,2.2c0,1.2-1,2.2-2.2,2.2c-1.2,0-2.2-1-2.2-2.2c0,0,0,0,0,0C27.8,7.4,28.7,6.5,29.9,6.5z"/>
	<path d="M13.6,22c0,1.3,1,2.3,2.3,2.3c1.3,0,2.3-1,2.3-2.3c0-1.3-1-2.3-2.3-2.3c0,0,0,0,0,0C14.6,19.8,13.6,20.8,13.6,22z M16.8,22
		c0,0.5-0.4,1-1,1c-0.5,0-1-0.4-1-1c0-0.5,0.4-1,1-1c0,0,0,0,0,0C16.4,21.1,16.8,21.5,16.8,22z"/>
	<path d="M27.2,31.5c0,1.8,1.4,3.2,3.2,3.2s3.2-1.4,3.2-3.2c0-1.8-1.4-3.2-3.2-3.2h0C28.6,28.3,27.2,29.7,27.2,31.5z M32.2,31.5
		c0,1-0.8,1.9-1.9,1.9c-1,0-1.9-0.8-1.9-1.9c0-1,0.8-1.9,1.9-1.9h0C31.4,29.6,32.2,30.5,32.2,31.5z"/>
</g>
</svg>
