<svg id="Layer_1" data-name="Layer 1" xmlns="http://www.w3.org/2000/svg" viewBox="0 0 512 512"><path d="M94.16,49.39V462.61H265.93V49.39Z" style="fill:#80aaff"/><rect x="94.16" y="49.39" width="30" height="413.22" style="fill:#6994fe"/><polygon points="338.38 320.98 315.5 338.46 337.44 367.19 360.33 349.72 338.38 320.98" style="fill:#80aaff"/><path d="M337.44,367.19a25.786,25.786,0,0,1,7.67-9.44l4.09-3.13a25.875,25.875,0,0,1,36.26,4.86l57.72,75.56a25.887,25.887,0,0,1-4.86,36.27l-4.09,3.12a25.875,25.875,0,0,1-36.27-4.85l-57.71-75.57A25.874,25.874,0,0,1,337.44,367.19Z" style="fill:#6994fe"/><path d="M63.512,331.537a6,6,0,0,1-6-6v-7.1a6,6,0,0,1,12,0v7.1A6,6,0,0,1,63.512,331.537Z" style="fill:#d4e1f4"/><path d="M63.512,429.1a6,6,0,0,1-6-6V353.7a6,6,0,0,1,12,0v69.4A6,6,0,0,1,63.512,429.1Z" style="fill:#d4e1f4"/><rect x="165.537" y="336.419" width="28.246" height="12" style="fill:#ccd3df"/><rect x="173.529" y="353.225" width="12" height="47.311" transform="translate(-198.17 554.681) rotate(-89.737)" style="fill:#ccd3df"/><rect x="139.521" y="405.126" width="80.277" height="12" style="fill:#ccd3df"/><polygon points="156.016 199.005 156.016 211.005 178.742 211.005 182.742 199.005 156.016 199.005" style="fill:#ccd3df"/><rect x="143.636" y="267.712" width="27.899" height="12" style="fill:#ccd3df"/><polygon points="155.13 314.065 194.907 314.065 183.907 302.065 155.13 302.065 155.13 314.065" style="fill:#ccd3df"/><rect x="142.778" y="233.358" width="27.709" height="12" style="fill:#ccd3df"/><rect x="165.909" y="164.651" width="27.502" height="12" style="fill:#ccd3df"/><rect x="138.778" y="95.944" width="81.764" height="12" style="fill:#ccd3df"/><rect x="155.13" y="130.298" width="49.058" height="12" style="fill:#ccd3df"/><path d="M146.636,273.712a12.69,12.69,0,1,0-12.69,12.689A12.706,12.706,0,0,0,146.636,273.712Z" style="fill:#4ca987"/><path d="M213.162,342.419a12.69,12.69,0,1,0-12.69,12.689A12.7,12.7,0,0,0,213.162,342.419Z" style="fill:#4ca987"/><path d="M158.847,329.729a12.69,12.69,0,1,0,12.69,12.69A12.7,12.7,0,0,0,158.847,329.729Z" style="fill:#4ca987"/><path d="M149.184,364.082a12.69,12.69,0,1,0,12.69,12.69A12.7,12.7,0,0,0,149.184,364.082Z" style="fill:#4ca987"/><path d="M222.825,376.772a12.691,12.691,0,1,0-25.38.217,12.45,12.45,0,0,0,12.69,12.473A12.7,12.7,0,0,0,222.825,376.772Z" style="fill:#4ca987"/><path d="M226.488,398.437a12.689,12.689,0,1,0,12.689,12.689A12.7,12.7,0,0,0,226.488,398.437Z" style="fill:#4ca987"/><path d="M132.832,398.437a12.689,12.689,0,1,0,12.689,12.689A12.7,12.7,0,0,0,132.832,398.437Z" style="fill:#4ca987"/><path d="M148.441,320.755a12.69,12.69,0,1,0-12.69-12.69A12.7,12.7,0,0,0,148.441,320.755Z" style="fill:#4ca987"/><path d="M132.088,252.048a12.69,12.69,0,1,0-12.69-12.69A12.7,12.7,0,0,0,132.088,252.048Z" style="fill:#4ca987"/><path d="M147.326,192.314a12.69,12.69,0,1,0,12.69,12.691A12.706,12.706,0,0,0,147.326,192.314Z" style="fill:#4ca987"/><path d="M159.219,157.961a12.69,12.69,0,1,0,12.69,12.69A12.7,12.7,0,0,0,159.219,157.961Z" style="fill:#4ca987"/><path d="M195.867,182.615l2-5.656h0q3.57-3.33,7.54-6.36c.43-.33.87-.66,1.31-.97l-.007-.007,5.929-.915a12.69,12.69,0,1,0-16.775,13.907Z" style="fill:#4ca987"/><path d="M227.231,89.254a12.69,12.69,0,1,0,12.69,12.69A12.7,12.7,0,0,0,227.231,89.254Z" style="fill:#4ca987"/><path d="M132.088,114.634a12.69,12.69,0,1,0-12.69-12.69A12.7,12.7,0,0,0,132.088,114.634Z" style="fill:#4ca987"/><path d="M210.878,148.987a12.69,12.69,0,1,0-12.69-12.689A12.7,12.7,0,0,0,210.878,148.987Z" style="fill:#4ca987"/><path d="M135.751,136.3a12.69,12.69,0,1,0,12.69-12.691A12.7,12.7,0,0,0,135.751,136.3Z" style="fill:#4ca987"/><rect x="73.17" y="461.61" width="213.75" height="34.39" style="fill:#b0b5ca"/><rect x="73.17" y="16" width="213.75" height="34.39" style="fill:#b0b5ca"/><rect x="73.17" y="461.61" width="30" height="34.39" style="fill:#979caf"/><rect x="73.17" y="16" width="30" height="34.39" style="fill:#979caf"/><path d="M346.45,189.49A100.624,100.624,0,0,1,186.52,311.65q-1.35-1.77-2.61-3.58a100.558,100.558,0,0,1,13.96-131.11q3.57-3.33,7.54-6.36c.43-.33.87-.66,1.31-.97a100.583,100.583,0,0,1,139.73,19.86Z" style="fill:#6d7486"/><path d="M197.68,289.6h-.01a79.274,79.274,0,0,1,3.41-83.57h.01a79.1,79.1,0,1,1-3.41,83.57Z" style="fill:#b4f9f7"/><path d="M233.62,298.58a78.738,78.738,0,0,1-5.94-8.98h-.01a79.274,79.274,0,0,1,3.41-83.57h.01A79.231,79.231,0,0,1,281.451,172.9,79.157,79.157,0,0,0,201.09,206.03h-.01a79.274,79.274,0,0,0-3.41,83.57h.01a79.141,79.141,0,0,0,83.84,38.633A78.784,78.784,0,0,1,233.62,298.58Z" style="fill:#94d3d0"/><path d="M290.189,283.6H194.6c.935,2.028,1.949,4.032,3.068,6h.01c1.151,2.038,2.422,4.037,3.784,6h88.725Z" style="fill:#ccd3df"/><path d="M292.467,241.814l-104.552-.288c-.227,1.984-.387,3.976-.465,5.974s-.077,4.015,0,6.025l104.986.289Z" style="fill:#ccd3df"/><path d="M273.916,200.029H205.625c-1.613,1.941-3.134,3.939-4.535,6h-.01c-1.328,1.95-2.551,3.956-3.689,6h76.525Z" style="fill:#ccd3df"/><path d="M298.326,275.463A14.137,14.137,0,1,0,312.463,289.6,14.153,14.153,0,0,0,298.326,275.463Z" style="fill:#4ca987"/><path d="M286.449,247.814a14.137,14.137,0,1,0,14.137-14.136A14.153,14.153,0,0,0,286.449,247.814Z" style="fill:#4ca987"/><path d="M296.189,206.029a14.137,14.137,0,1,0-14.137,14.137A14.153,14.153,0,0,0,296.189,206.029Z" style="fill:#4ca987"/></svg>