<?xml version="1.0"?><svg xmlns="http://www.w3.org/2000/svg" xmlns:xlink="http://www.w3.org/1999/xlink" version="1.1" id="Camada_1" viewBox="0 0 512 512" style="enable-background:new 0 0 512 512;" xml:space="preserve"><style type="text/css">
	.st0{fill:url(#SVGID_1_);}
	.st1{fill:url(#SVGID_00000060741730813187720840000003137690135287737496_);}
	.st2{fill:url(#SVGID_00000031198393239418380470000006311190342995511218_);}
	.st3{fill:url(#SVGID_00000038397923204911521920000015456817753954050976_);}
	.st4{fill:#3CE0E8;}
</style><g><linearGradient id="SVGID_1_" gradientUnits="userSpaceOnUse" x1="238.7482" y1="236.6898" x2="440.1715" y2="415.5855" gradientTransform="matrix(1 0 0 -1 0 514)"><stop offset="0" style="stop-color:#00FFC4"/><stop offset="0.3945" style="stop-color:#00FDC4"/><stop offset="0.5366" style="stop-color:#00F6C4"/><stop offset="0.6379" style="stop-color:#00EAC5"/><stop offset="0.7199" style="stop-color:#00D9C6"/><stop offset="0.7901" style="stop-color:#00C3C8"/><stop offset="0.8522" style="stop-color:#00A8CA"/><stop offset="0.9083" style="stop-color:#0088CD"/><stop offset="0.9583" style="stop-color:#0063D0"/><stop offset="1" style="stop-color:#003FD3"/></linearGradient><path class="st0" d="M403.1,135.1c5.8-3.8,11-9.2,15.4-14.6l14.5,11.9c-2.7,2.8-5.3,5.6-8.3,8.1c-10.2,8.6-22.8,15.7-35.3,20.3   c-3.4,1.3-6.9,2.2-10.4,3.2c-9.7,2.9-19.8,4.9-29.9,5.7l-1.5-17.5c11-1.6,21.8-3.2,32.4-6.5c3.2-1,6.7-2.1,9.7-3.7   c3.1-1.2,6-2.6,8.9-4.3C400.1,137,401.5,135.9,403.1,135.1L403.1,135.1z"/><linearGradient id="SVGID_00000065796138821023028140000016579626007993439119_" gradientUnits="userSpaceOnUse" x1="56.224" y1="427.2617" x2="305.3528" y2="130.4274" gradientTransform="matrix(1 0 0 -1 0 514)"><stop offset="0" style="stop-color:#00FFC4"/><stop offset="0.3945" style="stop-color:#00FDC4"/><stop offset="0.5366" style="stop-color:#00F6C4"/><stop offset="0.6379" style="stop-color:#00EAC5"/><stop offset="0.7199" style="stop-color:#00D9C6"/><stop offset="0.7901" style="stop-color:#00C3C8"/><stop offset="0.8522" style="stop-color:#00A8CA"/><stop offset="0.9083" style="stop-color:#0088CD"/><stop offset="0.9583" style="stop-color:#0063D0"/><stop offset="1" style="stop-color:#003FD3"/></linearGradient><path style="fill:url(#SVGID_00000065796138821023028140000016579626007993439119_);" d="M316.8,173.8c-14.7,1.4-29,2.7-43.4,6.3   c-5.6,1.1-10.8,3.6-16.2,5.1c-2.3,0.6-4.6,1.6-6.8,2.6c-7.5,3.1-14,7.1-20.7,11.7l-11.6,9.8c-5.9,5.5-10.7,12.1-15,18.8l-7,13.4   c-2.8,7.3-5.2,14.6-6.8,22.2c-0.5,2.4-1.1,5-1.3,7.4c-0.7,4.5-1.2,9-1.5,13.5c-0.1,1.1-0.3,2.6-0.1,3.6c-0.5,7.5-0.5,15-0.2,22.5   c1.1,24.6,4.8,49.4,3.3,74c-0.1,0.8,0,3.4-0.4,4c0.1,5.2-0.8,10.5-1.7,15.7c-2.1,11.5-5,22.1-10,32.8c-2.6,5.6-5.8,11.1-9.7,15.9   l-11.7-9.7l-2.6-2.1c4.6-5.4,9.4-12,11.2-19c1.7-3,2.4-7.1,3.4-10.4c0.3-1.3,0.8-2.7,0.8-4c0.6-1.2,0.7-3.1,0.9-4.5   c0.8-5,1.3-9.8,1.6-14.8c0.6-10.4,0.7-21.2,0-31.6l-3.1-39.6c-0.6-10.8-0.4-21.8,0.3-32.7c0.8-11.4,2.2-22.6,5.3-33.6   c4.3-14.9,11.6-29.2,21.1-41.4c8.9-11.5,19.9-21.8,32.2-29.4c18.3-11.3,39.9-17.3,61-20.4l15.5-1.8l11.8-1   C316.5,162.3,316.7,168.3,316.8,173.8z"/><g><linearGradient id="SVGID_00000177445583147233404260000003337459429406421921_" gradientUnits="userSpaceOnUse" x1="-11.7009" y1="36.9381" x2="172.4955" y2="145.6007" gradientTransform="matrix(1 0 0 -1 0 514)"><stop offset="0" style="stop-color:#0040A5"/><stop offset="1" style="stop-color:#0071BB"/></linearGradient><path style="fill:url(#SVGID_00000177445583147233404260000003337459429406421921_);" d="M148.6,409l-38.9-32.3    c-6.6,3.9-11.4,9.1-16.5,14.8l-14.1-11.7c5.2-6.4,11.8-11.7,18.6-16.3c13-8.6,27.3-14.4,42.5-17.7c7.4-1.6,14.8-2.4,22.3-3.4    l1.1,18c-14.2,1.3-27.6,4.2-40.8,9.4l30.3,25l15.7,12.8c0,1.4-0.4,2.7-0.8,4.1c-0.9,3.3-1.7,7.4-3.4,10.4L148.6,409L148.6,409z"/><linearGradient id="SVGID_00000062171731891568236910000009795303579909990275_" gradientUnits="userSpaceOnUse" x1="185.0716" y1="470.4382" x2="264.5808" y2="331.2971" gradientTransform="matrix(1 0 0 -1 0 514)"><stop offset="0" style="stop-color:#0040A5"/><stop offset="1" style="stop-color:#0071BB"/></linearGradient><path style="fill:url(#SVGID_00000062171731891568236910000009795303579909990275_);" d="M403.1,135.1c-1.6,0.8-3,1.9-4.5,2.8    c-2.9,1.7-5.8,3.1-8.9,4.3L372,127.7c-2.8-2-5.5-4.3-8.2-6.5l-13.8-11.4l-5-4.2c-0.7-0.6-1.4-1.4-2.2-1.6l-0.5,1.3    c-1,5-2,10-2.6,15.1c-2.4,22.4,1.1,44.9,3.1,67.2l0.9,17.1c0.3,7.4,0.5,14.7-0.1,22.1c-1.5,19.9-6.7,39.2-16.3,56.8    c-10.3,19-24.9,34.9-43,46.7c-21.4,14.1-47.8,21-73.1,23.7c-4.5,0.5-9.5,1.4-14.1,1l-1.1-17.2c14-1.4,28.6-2.8,42-6.8    c1.2-0.1,2.5-0.5,3.7-0.8c2.9-0.7,5.8-1.6,8.6-2.6c1.4-0.5,2.9-0.9,4.2-1.6c1.4-0.3,2.9-1.1,4.2-1.7c7.8-3.5,14.7-8,21.8-12.6    l2.7-1.9l6.4-5.3c0.9-0.7,1.7-1.6,2.5-2.5c5.7-6,10.8-11.9,15.4-18.8c2.8-4,5.3-8.7,7.3-13.2l3.8-8.6c2.6-6.7,4.2-13.7,5.5-20.7    l1.7-12.2c0.1-1.4,0.5-3.3,0.1-4.7c0.6-1.2,0.5-3.6,0.5-5c1-19-1.6-38.1-3-57.1l-1.2-21.1c-0.3-7.5-0.2-15,0.3-22.5    c0.4-4.2,0.7-8.5,1.4-12.7c2.1-12.6,6.2-25.1,12.7-36.1c2.1-3.7,4.7-7,7.2-10.5l14.4,11.9c-4.8,5.7-8.2,11.6-11.1,18.4l27.7,22.9    L403.1,135.1z"/></g><path class="st4" d="M315.1,270c-2,4.5-4.4,9.2-7.3,13.2l-27.4-22.8l-62.3-51.2l11.6-9.8l74.5,61.5L315.1,270z"/><path class="st4" d="M292.4,302c-0.8,0.9-1.5,1.8-2.5,2.5l-6.4,5.3l-2.7,1.9l-84.7-70.3l7-13.4L292.4,302z"/><path class="st4" d="M254.8,326c-1.3,0.8-2.8,1.2-4.2,1.6c-2.8,1-5.7,1.8-8.6,2.6c-1.2,0.3-2.5,0.7-3.7,0.8l-51.8-42.8   c-0.2-1,0.1-2.6,0.1-3.6c0.3-4.5,0.8-9.1,1.5-13.5L254.8,326z"/><path class="st4" d="M326.1,228.5l-1.7,12.2l-67.2-55.5c5.4-1.6,10.6-4,16.2-5.1l52.7,43.8C326.6,225.3,326.2,227.1,326.1,228.5z"/></g></svg>