<?xml version="1.0" encoding="utf-8"?>
<!-- Generator: Adobe Illustrator 24.3.0, SVG Export Plug-In . SVG Version: 6.00 Build 0)  -->
<svg version="1.1" id="Layer_1" xmlns="http://www.w3.org/2000/svg" xmlns:xlink="http://www.w3.org/1999/xlink" x="0px" y="0px"
	 viewBox="0 0 74 74" style="enable-background:new 0 0 74 74;" xml:space="preserve">
<style type="text/css">
	.st0{fill:#009408;}
	.st1{fill:#2000BF;}
	.st2{fill:#6C7400;}
	.st3{fill:#AA006E;}
	.st4{fill:#E90013;}
	.st5{fill:#0051B4;}
</style>
<g>
	<path class="st0" d="M51.2,20.8c1-1,1-2.4,0.2-3.3c-0.4-0.4-1-0.6-1.7-0.6c-0.6,0-1.2,0.3-1.6,0.8c-1.3,1.3-2.6,2.5-3.9,3.5
		l-5.5-5.5c-0.2-0.2-0.5-0.2-0.7,0s-0.2,0.5,0,0.7l5.4,5.4c-2.1,1.6-4.1,2.8-5.8,3.7l-4.4-4.4c-0.2-0.2-0.5-0.2-0.7,0
		s-0.2,0.5,0,0.7l4.1,4.1c-3.2,1.4-5.6,1.5-6.5,0.6c-1-1-0.7-3.4,0.6-6.5c0.5-1.2,1.2-2.4,1.9-3.6l5.9,5.9c0.1,0.1,0.2,0.1,0.3,0.1
		s0.3,0,0.3-0.1c0.2-0.2,0.2-0.5,0-0.7l-6-6c1.2-1.8,2.6-3.6,4.2-5.3l6.6,6.6c0.1,0.1,0.2,0.1,0.3,0.1s0.3,0,0.3-0.1
		c0.2-0.2,0.2-0.5,0-0.7L38,9.6c0.3-0.3,0.6-0.6,0.9-1c1-1,1-2.4,0.2-3.3c-0.4-0.4-1-0.6-1.7-0.6c-0.6,0.1-1.2,0.3-1.6,0.8
		c-6.6,6.7-10.8,14-11,19.3c-5.4,0.2-12.7,4.4-19.3,11c-1,1-1.1,2.4-0.2,3.3C6.2,40,7.7,39.9,8.7,39c1.3-1.3,2.6-2.4,3.9-3.5L18,41
		c0.1,0.1,0.2,0.2,0.4,0.2s0.3,0,0.4-0.2c0.2-0.2,0.2-0.5,0-0.7l-5.4-5.4c2-1.5,4-2.8,5.8-3.7l4.4,4.4c0.1,0.1,0.2,0.2,0.4,0.2
		s0.3,0,0.4-0.2c0.2-0.2,0.2-0.5,0-0.7l-4.1-4.1h0c3.1-1.3,5.6-1.6,6.5-0.6c1.2,1.2,0.5,5.2-2.5,10.1l-5.9-5.9
		c-0.2-0.2-0.5-0.2-0.7,0s-0.2,0.5,0,0.7l6,6c-1.1,1.7-2.5,3.5-4.2,5.3l-6.6-6.6c-0.2-0.2-0.5-0.2-0.7,0s-0.2,0.5,0,0.7l6.6,6.6
		c-0.3,0.3-0.6,0.6-0.9,1c-1,1-1,2.4-0.2,3.3c0.4,0.4,0.9,0.6,1.5,0.6c0.6,0,1.3-0.3,1.8-0.8c6.6-6.7,10.8-14,11-19.3
		C37.2,31.6,44.5,27.5,51.2,20.8z M30.3,31.1c0,5-4,12.4-10.6,19c-0.4,0.4-0.9,0.5-1.2,0.2c-0.1-0.2-0.2-0.4-0.1-0.5
		c0-0.2,0.1-0.5,0.4-0.7c7.9-7.8,11.9-17,8.9-20.1c-0.7-0.7-1.7-1-2.9-1c-1.4,0-3.2,0.4-5.2,1.3C15.7,31,11.4,34,7.6,37.9
		c-0.4,0.4-0.9,0.5-1.2,0.2c-0.3-0.3-0.2-0.8,0.2-1.2c6.6-6.6,14-10.8,19-10.6c0.4,0,0.8-0.3,0.8-0.8c-0.2-5,4-12.4,10.6-19
		c0.2-0.2,0.5-0.3,0.7-0.3c0.1,0,0.3,0,0.5,0.2c0.3,0.3,0.2,0.8-0.2,1.2c-3.9,3.9-6.9,8.1-8.6,11.9c-1.6,3.8-1.7,6.7-0.3,8.2
		c3,3,12.2-1,20.1-8.9c0.2-0.2,0.5-0.3,0.7-0.4c0.1,0,0.3,0,0.5,0.1c0.3,0.3,0.2,0.8-0.2,1.2c-6.6,6.6-14.1,10.7-19,10.6
		C30.9,30.3,30.3,30.5,30.3,31.1z"/>
	<path class="st1" d="M68.7,34.8c-0.9-0.9-2.3-0.8-3.3,0.2c-1.3,1.3-2.6,2.5-3.9,3.5L56,33c-0.2-0.2-0.5-0.2-0.7,0s-0.2,0.5,0,0.7
		l5.4,5.4c-2.1,1.6-4.1,2.8-5.8,3.7l-4.4-4.4c-0.2-0.2-0.5-0.2-0.7,0s-0.2,0.5,0,0.7l4.1,4.1c-3.2,1.4-5.6,1.5-6.5,0.6
		c-1.2-1.2-0.5-5.2,2.5-10.1l5.9,5.9c0.1,0.1,0.2,0.2,0.3,0.2s0.3,0,0.3-0.2c0.2-0.2,0.2-0.5,0-0.7l-6-6c1.1-1.7,2.5-3.5,4.2-5.3
		l6.6,6.6c0.1,0.1,0.2,0.2,0.3,0.2s0.3,0,0.3-0.2c0.2-0.2,0.2-0.5,0-0.7l-6.6-6.6c0.3-0.3,0.6-0.6,0.9-1c0.5-0.5,0.7-1,0.8-1.6
		c0.1-0.6-0.2-1.2-0.6-1.7c-0.9-0.9-2.3-0.8-3.3,0.2c-6.7,6.6-10.8,14-11,19.3c-5.4,0.2-12.7,4.3-19.3,11c-1,1-1,2.4-0.2,3.3
		c0.9,0.8,2.3,0.8,3.3-0.2c1.3-1.3,2.6-2.4,3.9-3.5l5.5,5.5c0.1,0.1,0.2,0.2,0.3,0.2s0.3,0,0.3-0.2c0.2-0.2,0.2-0.5,0-0.7l-5.4-5.4
		c2-1.5,3.9-2.8,5.8-3.7l4.4,4.4c0.1,0.1,0.2,0.2,0.3,0.2s0.3,0,0.3-0.2c0.2-0.2,0.2-0.5,0-0.7L37.4,48h0c3.1-1.3,5.5-1.6,6.5-0.6
		c1.2,1.2,0.5,5.2-2.5,10.1l-5.8-5.9c-0.2-0.2-0.5-0.2-0.7,0s-0.2,0.5,0,0.7l6,6c-1.1,1.7-2.5,3.5-4.2,5.3L30,57.1
		c-0.2-0.2-0.5-0.2-0.7,0s-0.2,0.5,0,0.7l6.6,6.6c-0.3,0.3-0.6,0.6-0.9,1c-1,1-1,2.4-0.2,3.3c0.4,0.4,0.9,0.6,1.5,0.6
		c0.6,0,1.3-0.3,1.8-0.8c6.7-6.7,10.8-14,11-19.3c5.4-0.2,12.7-4.3,19.3-11c0.4-0.5,0.7-1,0.8-1.6C69.3,35.9,69.1,35.2,68.7,34.8z
		 M67.4,37.1c-6.6,6.6-14,10.7-19,10.6c-0.2,0-0.8,0.2-0.8,0.8c0,5-4,12.4-10.6,19c-0.4,0.4-0.9,0.5-1.2,0.2
		c-0.2-0.2-0.2-0.4-0.2-0.5c0-0.2,0.2-0.5,0.3-0.7c7.8-7.8,11.9-17,8.9-20.1c-0.7-0.7-1.7-1-2.9-1c-1.4,0-3.2,0.4-5.2,1.3
		c-3.8,1.7-8.1,4.7-11.9,8.6c-0.4,0.4-0.9,0.5-1.2,0.2c-0.3-0.3-0.2-0.8,0.2-1.2c6.6-6.6,14-10.8,19-10.6c0.7,0,0.8-0.6,0.8-0.8
		c-0.2-5,4-12.4,10.6-19c0.4-0.4,0.9-0.5,1.2-0.2c0.2,0.1,0.2,0.4,0.2,0.5c0,0.2-0.2,0.5-0.3,0.7c-7.8,7.9-11.9,17-8.9,20.1
		c3,3,12.2-1,20.1-8.9c0.2-0.2,0.4-0.3,0.7-0.3c0.1,0,0.3,0,0.5,0.2c0.2,0.2,0.2,0.4,0.2,0.5C67.7,36.6,67.6,36.9,67.4,37.1z"/>
	<path class="st2" d="M52.9,58c-2.2,0-4,1.8-4,4s1.8,4,4,4s4-1.8,4-4S55.1,58,52.9,58z M52.9,65.1c-1.7,0-3-1.4-3-3s1.4-3,3-3
		s3,1.4,3,3S54.6,65.1,52.9,65.1z"/>
	<path d="M17.4,64c-1.4,0-2.5,1.1-2.5,2.5S16,69,17.4,69s2.5-1.1,2.5-2.5S18.8,64,17.4,64z M17.4,68c-0.8,0-1.5-0.7-1.5-1.5
		s0.7-1.5,1.5-1.5s1.5,0.7,1.5,1.5C18.9,67.3,18.2,68,17.4,68z"/>
	<path d="M34.7,35.2c0,1.4,1.1,2.5,2.5,2.5c1.4,0,2.5-1.1,2.5-2.5s-1.1-2.5-2.5-2.5C35.8,32.7,34.7,33.8,34.7,35.2z M38.7,35.2
		c0,0.8-0.7,1.5-1.5,1.5s-1.5-0.7-1.5-1.5s0.7-1.5,1.5-1.5C38,33.7,38.7,34.3,38.7,35.2z"/>
	<path d="M50.5,11.9c1.4,0,2.5-1.1,2.5-2.5s-1.1-2.5-2.5-2.5S48,8,48,9.4S49.1,11.9,50.5,11.9z M50.5,7.9c0.8,0,1.5,0.7,1.5,1.5
		S51.4,11,50.5,11S49,10.3,49,9.4S49.7,7.9,50.5,7.9z"/>
	<path class="st3" d="M10.8,51.5c-1.9,0-3.5,1.5-3.5,3.5s1.6,3.5,3.5,3.5s3.5-1.5,3.5-3.5S12.7,51.5,10.8,51.5z M10.8,57.5
		c-1.4,0-2.5-1.1-2.5-2.5s1.1-2.5,2.5-2.5s2.5,1.1,2.5,2.5S12.1,57.5,10.8,57.5z"/>
	<path class="st4" d="M61.6,19c1.9,0,3.5-1.5,3.5-3.5s-1.5-3.5-3.5-3.5s-3.5,1.6-3.5,3.5S59.7,19,61.6,19z M61.6,13.1
		c1.4,0,2.5,1.1,2.5,2.5S63,18,61.6,18s-2.5-1.1-2.5-2.5S60.3,13.1,61.6,13.1z"/>
	<path d="M65.5,52.7c-1.4,0-2.5,1.1-2.5,2.5s1.1,2.5,2.5,2.5c1.4,0,2.5-1.1,2.5-2.5S66.9,52.7,65.5,52.7z M65.5,56.7
		c-0.8,0-1.5-0.7-1.5-1.5s0.7-1.5,1.5-1.5s1.5,0.7,1.5,1.5S66.3,56.7,65.5,56.7z"/>
	<path class="st5" d="M14.4,23.9c1.8,0,3.3-1.5,3.3-3.3s-1.5-3.3-3.3-3.3s-3.3,1.5-3.3,3.3S12.6,23.9,14.4,23.9z M14.4,18.3
		c1.3,0,2.3,1,2.3,2.3s-1,2.3-2.3,2.3s-2.3-1-2.3-2.3S13.1,18.3,14.4,18.3z"/>
	<path d="M15.8,12.5c1.4,0,2.5-1.1,2.5-2.5s-1.1-2.5-2.5-2.5c-1.4,0-2.5,1.1-2.5,2.5S14.4,12.5,15.8,12.5z M15.8,8.4
		c0.8,0,1.5,0.7,1.5,1.5s-0.7,1.5-1.5,1.5c-0.8,0-1.5-0.7-1.5-1.5S14.9,8.4,15.8,8.4z"/>
</g>
</svg>
