<?xml version="1.0" encoding="utf-8"?>
<!-- Generator: Adobe Illustrator 24.3.0, SVG Export Plug-In . SVG Version: 6.00 Build 0)  -->
<svg version="1.1" id="Layer_1" xmlns="http://www.w3.org/2000/svg" xmlns:xlink="http://www.w3.org/1999/xlink" x="0px" y="0px"
	 viewBox="0 0 512 512" style="enable-background:new 0 0 512 512;" xml:space="preserve">
<style type="text/css">
	.st0{fill:#FC8193;}
	.st1{fill:#CE6E80;}
	.st2{fill:#FCB1C0;}
	.st3{fill:#49BDFF;}
	.st4{fill:#BFCAD8;}
	.st5{fill:#98D8F4;}
	.st6{fill:#E84D7A;}
	.st7{fill:#D4E1F4;}
	.st8{fill:#46A8D3;}
	.st9{fill:#83B9CC;}
	.st10{fill:#B0B5CA;}
	.st11{fill:#80AAFF;}
	.st12{fill:#CAE6EE;}
	.st13{fill:#AECCD3;}
	.st14{fill:#CCD3DF;}
</style>
<path class="st0" d="M329.8,55.8C298.3,29,278,15.7,255.1,16c-42,0-41.5,13-72.9,39.8c-2.6,2.3-5.4,4.3-8.3,6.2l5.1,17v-0.4
	c3,1.3,5.3,4.4,5.8,10c0.1,1.3,0.1,2.6,0.1,4c-0.9,27.4,12.6,38.1,20.5,40.9s19.6,30.2,4.2,56.2s2.4,34.5,7.2,45.5
	c2.2,5,13.2,23.7,14.8,53.7h54c0.7-30,10-49.2,12.2-54.2c4.8-11,20.1-19,4.8-45.1s-3.7-53.4,4.2-56.2s21.4-13.5,20.5-40.9
	c-0.1-1.3,0-2.6,0.1-4c0.5-5.7,2.8-8.7,5.9-10l8.8-14.8C337.6,61.7,333.5,59,329.8,55.8z"/>
<path class="st1" d="M233.5,189.8c15.4-26,3.7-53.4-4.2-56.2s-21.4-13.5-20.5-40.9c0.1-1.3,0-2.6-0.1-4c-0.5-5.7-2.8-8.7-5.8-10V79
	l-5.1-17c2.9-1.8,5.7-3.9,8.3-6.2c27.3-23.2,30.5-36.1,58.4-39.1c-3.1-0.5-6.3-0.7-9.5-0.7c-42,0-41.5,13-72.9,39.8
	c-2.6,2.3-5.4,4.3-8.3,6.2l5.1,17v-0.4c3,1.3,5.3,4.4,5.8,10c0.1,1.3,0.1,2.6,0.1,4c-0.9,27.4,12.6,38.1,20.5,40.9
	s19.6,30.2,4.2,56.2s2.4,34.5,7.2,45.5c2.2,5,13.2,23.7,14.8,53.7h24c-1.6-30-12.6-48.7-14.8-53.7
	C236,224.3,218.1,215.8,233.5,189.8z"/>
<path class="st2" d="M475.9,33.1c-5.4-8.3-16.2-11.2-25.1-6.9c-0.2,0.1-0.3,0.2-0.5,0.3c-6.6,3.5-14,5.1-21.4,4.8
	c-10.7-0.4-21.3,2.1-30.6,7.2c-7.2,4-13.6,9.3-18.7,15.7c-5.6,6.8-18.6,18.5-37.6,9.7c-102.8-25.1-166.8-2.5-168.1-2c0,0,0,0,0,0
	c-21,12.4-35.4-0.4-41.4-7.6c-5.2-6.4-11.5-11.8-18.7-15.7c-9.4-5.1-20-7.6-30.6-7.2c-7.4,0.4-14.8-1.3-21.4-4.8
	c-0.2-0.1-0.3-0.2-0.5-0.3c-8.9-4.3-19.6-1.4-25.1,6.9C10.2,72.2,70.9,97.3,70.9,97.3l12.4-16.8C82.5,80.1,43,66.1,48.6,49.7
	c5.7-16.6,10.6-3.5,23-3.9s43.8,3.3,58.4,25.4c2.2,3.4,5.2,6.2,8.8,8.3c7.1,4,15.7,4.5,23.2,1.1c5-2.2,11.9-4.2,16.8-2v0
	c0,0,22.5-20.3,40.8-0.7c5,5.3,7.9,12.8,8.5,20.7c2.1,28.7,8.6,47.1,13.9,54.3c2.2,3,4.2,9.3,4.4,13.2c0.8,21.1-20.6,65.7,9.6,99.9
	c22.1-38.5,5.1-84.3,5.2-99.8c0-3.9,2-10.4,4.2-13.3c5.3-7.2,16.5-25.7,18.5-54.3c0.6-7.9,3.5-15.4,8.5-20.7
	c18.3-19.6,40.8,0.8,40.8,0.8c4.9-2.2,11.8-0.1,16.8,2c7.5,3.3,16.1,2.9,23.2-1.1c3.5-2.1,6.5-4.9,8.8-8.3
	c14.6-22.1,46-25.8,58.4-25.4s17.4-12.7,23,3.9c5.6,16.4-35,29.8-35.9,30l13.6,17.5C441.1,97.3,501.8,72.2,475.9,33.1z"/>
<rect x="229.2" y="389.9" class="st3" width="53.7" height="49.4"/>
<rect x="245.2" y="449.9" class="st4" width="21.6" height="34.7"/>
<path class="st5" d="M378.6,210.8c35.8-3.3,67.4,23,70.7,58.8s-23,67.4-58.8,70.7c-19,1.7-37.7-4.9-51.4-18.2
	c-1.6-1.6-3.9-2.4-6.2-2.1c-31.1,3.7-37.1-13.6-37.1-13.6s18.4-9.1,23.4-21.8c0.4-1.1,0.6-2.3,0.5-3.5c-0.3-3.1-0.3-6.2-0.1-9.4
	C321.5,239.7,346.6,213.8,378.6,210.8z"/>
<path class="st6" d="M83.3,80.4c7-4.2,15.2-5.9,23.3-4.9c7.8,1,15.9,4.3,21.6,12.7c2,3.4,3.1,7.3,3.1,11.3c0,3.3-0.7,6.5-2.1,9.4
	c-2.3,5-6.4,8.9-11.4,11c-10.7,4.6-19.4,7.3-27.5,5.7C77.7,123,68.8,108,70.9,97.3C72.4,90,77.1,84.2,83.3,80.4L83.3,80.4z"/>
<path class="st6" d="M427.5,79.7L427.5,79.7c6.8,3.8,12,9.8,13.6,17.5c2.2,10.7-6.8,25.8-19.5,28.3c-8.1,1.6-16.8-1.1-27.5-5.7
	c-5-2.1-9.1-6.1-11.4-11c-1.4-3-2.1-6.2-2.1-9.4c0-4,1.1-7.9,3.1-11.3c5.7-8.3,13.8-11.7,21.6-12.7C413,74.6,420.7,76.1,427.5,79.7z
	"/>
<path class="st7" d="M276.1,482.6h-40.2c-3.7,0-6.7,3-6.7,6.7c0,3.7,3,6.7,6.7,6.7h40.2c3.7,0,6.7-3,6.7-6.7
	C282.8,485.6,279.8,482.6,276.1,482.6z"/>
<rect x="229" y="390" class="st8" width="24" height="49"/>
<path class="st7" d="M287.7,437.2h-63.4c-4,0-7.3,3.3-7.3,7.3s3.3,7.3,7.3,7.3h63.4c4,0,7.3-3.3,7.3-7.3
	C295,440.5,291.8,437.2,287.7,437.2z"/>
<path class="st9" d="M315.9,316.4c0,0,18.4-9.1,23.4-21.8c0.4-1.1,0.6-2.3,0.5-3.5c-0.3-3.1-0.3-6.2-0.1-9.4
	c2.1-35.9,32.8-63.3,68.7-61.2c5,0.3,10,1.2,14.8,2.6c-28.9-21.3-69.6-15.2-90.9,13.7c-7.5,10.2-11.9,22.3-12.6,34.9
	c-0.2,3.1-0.1,6.3,0.1,9.4c0.1,1.2-0.1,2.4-0.5,3.5c-5,12.7-23.4,21.8-23.4,21.8s4,11.4,22.2,13.7
	C317.1,319,316.4,317.8,315.9,316.4z"/>
<path class="st10" d="M371.4,303.9c-1.4,0-2.8-0.5-3.9-1.4c-6.5-5.5-7.9-11.9-9-16.6c-1.2-5.2-1.4-6-5.5-6.5
	c-8.1-1.1-14.2-6-17.7-14c-1.3-3,0.1-6.6,3.1-7.9s6.6,0.1,7.9,3.1c2.4,5.5,5.9,6.6,8.3,6.9c12.4,1.7,14.3,10.2,15.6,15.8
	c0.9,3.9,1.6,7.2,5,10.1c2.5,2.1,2.8,5.9,0.7,8.5C374.9,303.1,373.2,303.9,371.4,303.9z"/>
<path class="st10" d="M418.2,307h-0.1c-3.3-0.1-6-2.8-5.9-6.1c0,0,0,0,0,0c0.1-6-2.6-8.4-4.7-9.7c-10.6-6.7-8.9-15.2-7.7-20.8
	c0.8-3.9,1.5-7.3-0.4-11.3c-1.4-3-0.1-6.6,2.9-8s6.6-0.1,8,2.9c3.6,7.6,2.3,14.1,1.3,18.8c-1.1,5.2-1.2,6,2.3,8.2
	c6.9,4.3,10.5,11.3,10.3,20.1C424.2,304.4,421.5,307,418.2,307z"/>
<path class="st11" d="M345.2,303.9c-3.3,0-6-2.7-6-6c0-3.3,2.7-6,6-6c3.3,0,6,2.7,6,6c0,1.6-0.6,3.1-1.8,4.3
	C348.4,303.3,346.8,303.9,345.2,303.9z"/>
<path class="st11" d="M367,251.1c-3.3,0-6-2.7-6-6c0-3.3,2.7-6,6-6c3.3,0,6,2.7,6,6c0,1.6-0.6,3.1-1.8,4.3
	C370.1,250.4,368.6,251.1,367,251.1z"/>
<path class="st10" d="M256,288c-3.3,0-6-2.7-6-6v-43.5c0-3.3,2.7-6,6-6c3.3,0,6,2.7,6,6l0,0V282C262,285.3,259.3,288,256,288z"/>
<path class="st12" d="M266.1,292v17.6h-20.1V292c0-1,0.1-2,0.4-3c1.6-5.3,7.3-8.3,12.6-6.7c1.6,0.5,3,1.3,4.1,2.5
	C265,286.8,266.1,289.4,266.1,292L266.1,292z"/>
<path class="st3" d="M266.3,309.6h-20.6c-3.6,0-6.5,2.9-6.5,6.5c0,0,0,0,0,0v18.3h33.5v-18.3C272.8,312.5,269.9,309.6,266.3,309.6
	C266.3,309.6,266.3,309.6,266.3,309.6z"/>
<path class="st8" d="M267.9,310.1c-0.5-0.1-1.1-0.1-1.6-0.1h-20.6c-3.6,0-6.7,2.5-6.7,6.1V334h24v-17.9
	C263.1,313.2,265.1,310.7,267.9,310.1z"/>
<path class="st12" d="M274.3,332.4h-36.6c-4.7,0-8.5,3.8-8.5,8.5l0,0v50.9h53.7v-50.9C282.8,336.2,279,332.4,274.3,332.4z"/>
<path class="st13" d="M261.7,332h-24c-4.8,0.2-8.6,4.1-8.7,8.9V392h24v-51.1C253,336.1,256.9,332.2,261.7,332z"/>
<path class="st14" d="M409.1,241.2c1,2.2,3.4,7.9,0.5,12.4c-0.1,0.1-0.2,0.3-0.3,0.4c-0.8,0.9-1.8,1.6-3,2l-4.8,1.6
	c-1,0.3-2.1,0.4-3.1,0.2c-0.9-0.2-1.8-0.5-2.6-0.9c-4.6-2.4-5.4-8.1-5.6-9.8c-0.9-6,1.1-15,6.1-16.5
	C401.6,228.9,407.1,236.6,409.1,241.2z"/>
<path class="st14" d="M388.6,300.4c3.2,5.1,5.2,14.1,1.3,17.6c-4.2,3.7-12.3-1-16-4.4c-1.8-1.6-6.4-5.8-5.6-11.1
	c0-0.2,0.1-0.3,0.1-0.5c0.3-1.2,1-2.2,1.9-3l1.2-1.1l2.5-2.3c0.8-0.7,1.7-1.2,2.7-1.5c0.9-0.2,1.8-0.3,2.7-0.3
	C384.6,294.2,387.7,298.9,388.6,300.4z"/>
</svg>
