<svg id="Layer_1" data-name="Layer 1" xmlns="http://www.w3.org/2000/svg" viewBox="0 0 512 512"><path d="M348.27,107.5v297a91.505,91.505,0,0,1-91.5,91.5h-1.54a91.505,91.505,0,0,1-91.5-91.5v-297A91.505,91.505,0,0,1,255.23,16h1.54A91.505,91.505,0,0,1,348.27,107.5Z" style="fill:#49bdff"/><path d="M193.73,404.5v-297A91.525,91.525,0,0,1,271,17.1,92.078,92.078,0,0,0,256.77,16h-1.54a91.505,91.505,0,0,0-91.5,91.5v297a91.505,91.505,0,0,0,91.5,91.5h1.54A92.078,92.078,0,0,0,271,494.9,91.525,91.525,0,0,1,193.73,404.5Z" style="fill:#4199bf"/><path d="M212.3,228.261a6,6,0,0,1-6-6v-4.195a6,6,0,0,1,12,0v4.195A6,6,0,0,1,212.3,228.261Z" style="fill:#f4f8fc"/><path d="M212.3,335.918a6,6,0,0,1-6-6V245.132a6,6,0,0,1,12,0v84.786A6,6,0,0,1,212.3,335.918Z" style="fill:#f4f8fc"/><path d="M293.647,109.229H273.513a6,6,0,0,1,0-12h20.134a6,6,0,0,1,0,12Z" style="fill:#adf0e5"/><path d="M293.647,172.9H273.513a6,6,0,0,1,0-12h20.134a6,6,0,0,1,0,12Z" style="fill:#adf0e5"/><path d="M303.731,141.066H273.513a6,6,0,0,1,0-12h30.218a6,6,0,0,1,0,12Z" style="fill:#adf0e5"/><path d="M303.731,204.74H273.513a6,6,0,0,1,0-12h30.218a6,6,0,0,1,0,12Z" style="fill:#adf0e5"/><path d="M293.647,236.576H273.513a6,6,0,0,1,0-12h20.134a6,6,0,0,1,0,12Z" style="fill:#adf0e5"/><path d="M293.647,300.25H273.513a6,6,0,1,1,0-12h20.134a6,6,0,0,1,0,12Z" style="fill:#adf0e5"/><path d="M303.731,268.413H273.513a6,6,0,1,1,0-12h30.218a6,6,0,0,1,0,12Z" style="fill:#adf0e5"/><path d="M303.731,332.086H273.513a6,6,0,1,1,0-12h30.218a6,6,0,0,1,0,12Z" style="fill:#adf0e5"/><path d="M395.486,207a6,6,0,0,0,6-6V194.74a6,6,0,0,0-12,0V201A6,6,0,0,0,395.486,207Z" style="fill:#f3ce7d"/><path d="M395.486,242.82a6,6,0,0,0,6-6V223.551a6,6,0,0,0-12,0V236.82A6,6,0,0,0,395.486,242.82Z" style="fill:#f3ce7d"/><path d="M424.506,320.254a6,6,0,0,0-8.463-.62l-14.557,12.571V256.691a6,6,0,0,0-12,0v75.387l-14.169-12.415a6,6,0,0,0-7.908,9.025l24.123,21.138a6,6,0,0,0,7.876.028l24.478-21.138A6,6,0,0,0,424.506,320.254Z" style="fill:#f3ce7d"/><path d="M116.159,326.967a6,6,0,0,0-6,6v6.262a6,6,0,0,0,12,0v-6.262A6,6,0,0,0,116.159,326.967Z" style="fill:#f3ce7d"/><path d="M116.159,291.148a6,6,0,0,0-6,6v13.269a6,6,0,0,0,12,0V297.148A6,6,0,0,0,116.159,291.148Z" style="fill:#f3ce7d"/><path d="M144.559,205.252,120.08,184.115a6,6,0,0,0-7.875.028L88.081,205.28a6,6,0,1,0,7.908,9.026l14.17-12.416v75.387a6,6,0,0,0,12,0V201.764l14.557,12.57a6,6,0,0,0,7.843-9.082Z" style="fill:#f3ce7d"/><path d="M277.51,365.54V79.05a21.51,21.51,0,1,0-43.02,0V365.54a47.063,47.063,0,1,0,43.02,0Z" style="fill:#e87187"/><path d="M234.94,407.4a46.966,46.966,0,0,1,17.879-36.918,20.64,20.64,0,0,0,7.671-16.226V79.05A21.453,21.453,0,0,1,269,61.941a21.4,21.4,0,0,0-13.761-4.388c-11.665.408-20.749,10.339-20.749,22.011V365.54a47.06,47.06,0,0,0,23.36,88.88,46.394,46.394,0,0,0,11.137-1.794A47.068,47.068,0,0,1,234.94,407.4Z" style="fill:#ba5d71"/></svg>