<?xml version="1.0" encoding="utf-8"?>
<!-- Generator: Adobe Illustrator 24.3.0, SVG Export Plug-In . SVG Version: 6.00 Build 0)  -->
<svg version="1.1" id="Layer_1" xmlns="http://www.w3.org/2000/svg" xmlns:xlink="http://www.w3.org/1999/xlink" x="0px" y="0px"
	 viewBox="0 0 1000 1000" style="enable-background:new 0 0 1000 1000;" xml:space="preserve">
<style type="text/css">
	.st0{fill:#154B79;}
</style>
<g>
	<g>
		<path class="st0" d="M618.9,739.7L532,689.6V589.3l86.8-50.1l86.8,50.1v100.3L618.9,739.7z M536.7,686.9l82.2,47.5l82.2-47.5V592
			l-82.2-47.5L536.7,592V686.9z"/>
	</g>
	<g>
		<rect x="547.4" y="599" class="st0" width="3.7" height="83.5"/>
	</g>
	<g>
		<rect x="651.7" y="539" transform="matrix(0.5 -0.866 0.866 0.5 -172.9747 854.5942)" class="st0" width="3.7" height="76.2"/>
	</g>
	<g>
		
			<rect x="618.2" y="698.9" transform="matrix(0.8661 -0.4999 0.4999 0.8661 -262.5819 421.4568)" class="st0" width="74.1" height="3.7"/>
	</g>
	<g>
		<path class="st0" d="M280.8,447.2L194,397.1V296.8l86.8-50.1l86.8,50.1v100.3L280.8,447.2z M198.7,394.4l82.2,47.5l82.2-47.5
			v-94.9L280.8,252l-82.2,47.5V394.4z"/>
	</g>
	<g>
		<rect x="716.4" y="599" class="st0" width="3.7" height="83.5"/>
	</g>
	<g>
		<rect x="208.8" y="304.8" class="st0" width="3.7" height="83.5"/>
	</g>
	<g>
		<rect x="313.2" y="246.4" transform="matrix(0.5 -0.866 0.866 0.5 -88.8866 415.0944)" class="st0" width="3.7" height="76.2"/>
	</g>
	<g>
		
			<rect x="279.7" y="404.8" transform="matrix(0.8661 -0.4999 0.4999 0.8661 -160.8817 212.8048)" class="st0" width="74.1" height="3.7"/>
	</g>
	<g>
		<path class="st0" d="M789.2,859.3c-2.8,0-5.4-0.5-7.8-1.4c-2.4-0.9-4.4-2.4-6.1-4.2c-1.7-1.9-3.1-4.2-4-7c-0.9-2.8-1.4-6-1.4-9.7
			c0-3.6,0.5-6.8,1.4-9.5c0.9-2.7,2.3-5,4-7c1.7-1.9,3.8-3.4,6.1-4.4c2.4-1,5-1.5,7.9-1.5c1.5,0,2.8,0.1,4.1,0.3
			c1.3,0.2,2.4,0.5,3.5,0.8c0.9,0.3,1.9,0.7,2.9,1.1c1,0.4,1.9,0.9,2.9,1.4v6.9h-0.5c-0.5-0.5-1.2-1-1.9-1.7
			c-0.8-0.7-1.8-1.3-2.9-1.9c-1.1-0.6-2.3-1.1-3.6-1.5c-1.3-0.4-2.8-0.6-4.5-0.6c-1.8,0-3.6,0.4-5.2,1.1c-1.6,0.8-3.1,1.9-4.3,3.3
			c-1.2,1.5-2.2,3.3-2.8,5.5s-1,4.7-1,7.5c0,3,0.4,5.5,1.1,7.6c0.7,2.1,1.7,3.9,2.9,5.4c1.2,1.4,2.6,2.5,4.2,3.2
			c1.6,0.7,3.3,1.1,5.2,1.1c1.7,0,3.2-0.2,4.6-0.6c1.4-0.4,2.7-0.9,3.8-1.5c1.1-0.6,2-1.2,2.8-1.8c0.8-0.6,1.4-1.2,1.8-1.6h0.4v6.9
			c-0.9,0.4-1.8,0.9-2.7,1.3s-1.9,0.8-3.1,1.2c-1.3,0.4-2.4,0.7-3.5,0.9C792.3,859.2,790.9,859.3,789.2,859.3z"/>
		<path class="st0" d="M847.7,858.5H842v-21.2h-19.9v21.2h-5.7v-43.2h5.7v17H842v-17h5.7V858.5z"/>
		<path class="st0" d="M865.4,836.3c-0.8,0-1.6,0.1-2.4,0.3c-0.8,0.2-1.6,0.4-2.4,0.8c-0.7,0.3-1.3,0.6-1.9,0.9
			c-0.5,0.3-1,0.6-1.4,0.9h-0.3v-4.7c1-0.5,2.3-1,3.9-1.4s3.2-0.6,4.7-0.6s2.8,0.2,3.9,0.5c1.1,0.3,2.1,0.8,3,1.4
			c1,0.7,1.7,1.6,2.2,2.6c0.5,1,0.7,2.2,0.7,3.5c0,1.8-0.6,3.4-1.8,4.8c-1.2,1.4-2.6,2.3-4.3,2.6v0.3c0.7,0.1,1.4,0.4,2.2,0.7
			c0.8,0.3,1.5,0.8,2.2,1.4c0.7,0.6,1.2,1.5,1.7,2.5c0.4,1,0.6,2.2,0.6,3.7c0,1.5-0.3,2.9-0.8,4.1c-0.5,1.3-1.2,2.4-2.2,3.3
			c-1,1-2.1,1.8-3.5,2.3c-1.4,0.5-2.9,0.8-4.7,0.8c-1.7,0-3.3-0.2-4.9-0.6c-1.6-0.4-3-0.9-4.1-1.4v-4.7h0.3c0.9,0.7,2.2,1.3,3.8,2
			c1.6,0.6,3.1,0.9,4.7,0.9c0.9,0,1.8-0.1,2.7-0.4c0.9-0.3,1.7-0.8,2.3-1.4c0.6-0.7,1-1.4,1.4-2.2c0.3-0.8,0.5-1.8,0.5-3
			c0-1.2-0.2-2.2-0.5-3c-0.3-0.8-0.8-1.4-1.5-1.8c-0.6-0.4-1.4-0.8-2.2-0.9c-0.9-0.2-1.8-0.3-2.8-0.3H863v-3.7h1.5
			c2,0,3.6-0.5,4.9-1.4c1.3-1,1.9-2.3,1.9-4.1c0-0.8-0.2-1.5-0.5-2.1c-0.3-0.6-0.7-1.1-1.2-1.4c-0.6-0.4-1.2-0.7-1.9-0.8
			S866.2,836.3,865.4,836.3z"/>
	</g>
	<g>
		<path class="st0" d="M143.7,615.2H138V594h-19.9v21.2h-5.7V572h5.7v17H138v-17h5.7V615.2z"/>
		<path class="st0" d="M161.4,593c-0.8,0-1.6,0.1-2.4,0.3c-0.8,0.2-1.6,0.4-2.4,0.8c-0.7,0.3-1.3,0.6-1.9,0.9
			c-0.5,0.3-1,0.6-1.4,0.9h-0.3v-4.7c1-0.5,2.3-1,3.9-1.4s3.2-0.6,4.7-0.6c1.5,0,2.8,0.2,3.9,0.5c1.1,0.3,2.1,0.8,3,1.4
			c1,0.7,1.7,1.6,2.2,2.6c0.5,1,0.7,2.2,0.7,3.5c0,1.8-0.6,3.4-1.8,4.8c-1.2,1.4-2.6,2.3-4.3,2.6v0.3c0.7,0.1,1.4,0.4,2.2,0.7
			c0.8,0.3,1.5,0.8,2.2,1.4c0.7,0.6,1.2,1.5,1.7,2.5s0.6,2.2,0.6,3.7c0,1.5-0.3,2.9-0.8,4.1c-0.5,1.3-1.2,2.4-2.2,3.3
			c-1,1-2.1,1.8-3.5,2.3c-1.4,0.5-2.9,0.8-4.7,0.8c-1.7,0-3.3-0.2-4.9-0.6c-1.6-0.4-3-0.9-4.1-1.4V617h0.3c0.9,0.7,2.2,1.3,3.8,2
			c1.6,0.6,3.1,0.9,4.7,0.9c0.9,0,1.8-0.1,2.7-0.4c0.9-0.3,1.7-0.8,2.3-1.4c0.6-0.7,1-1.4,1.4-2.2c0.3-0.8,0.5-1.8,0.5-3
			c0-1.2-0.2-2.2-0.5-3c-0.3-0.8-0.8-1.4-1.5-1.8s-1.4-0.8-2.2-0.9c-0.9-0.2-1.8-0.3-2.8-0.3h-1.9v-3.7h1.5c2,0,3.6-0.5,4.9-1.4
			s1.9-2.3,1.9-4.1c0-0.8-0.2-1.5-0.5-2.1c-0.3-0.6-0.7-1.1-1.2-1.4c-0.6-0.4-1.2-0.7-1.9-0.8C162.9,593.1,162.2,593,161.4,593z"/>
		<path class="st0" d="M196.2,616c-2.8,0-5.4-0.5-7.8-1.4s-4.4-2.4-6.1-4.2c-1.7-1.9-3.1-4.2-4-7c-0.9-2.8-1.4-6-1.4-9.7
			c0-3.6,0.5-6.8,1.4-9.5c0.9-2.7,2.3-5,4-7c1.7-1.9,3.8-3.4,6.1-4.4c2.4-1,5-1.5,7.9-1.5c1.5,0,2.8,0.1,4.1,0.3
			c1.3,0.2,2.4,0.5,3.5,0.8c0.9,0.3,1.9,0.7,2.9,1.1c1,0.4,1.9,0.9,2.9,1.4v6.9h-0.5c-0.5-0.5-1.2-1-1.9-1.7
			c-0.8-0.7-1.8-1.3-2.9-1.9c-1.1-0.6-2.3-1.1-3.6-1.5c-1.3-0.4-2.8-0.6-4.5-0.6c-1.8,0-3.6,0.4-5.2,1.1c-1.6,0.8-3.1,1.9-4.3,3.3
			c-1.2,1.5-2.2,3.3-2.8,5.5s-1,4.7-1,7.5c0,3,0.4,5.5,1.1,7.6c0.7,2.1,1.7,3.9,2.9,5.4c1.2,1.4,2.6,2.5,4.2,3.2s3.3,1.1,5.2,1.1
			c1.7,0,3.2-0.2,4.6-0.6c1.4-0.4,2.7-0.9,3.8-1.5c1.1-0.6,2-1.2,2.8-1.8s1.4-1.2,1.8-1.6h0.4v6.9c-0.9,0.4-1.8,0.9-2.7,1.3
			s-1.9,0.8-3.1,1.2c-1.3,0.4-2.4,0.7-3.5,0.9C199.3,615.9,197.9,616,196.2,616z"/>
	</g>
	<g>
		<path class="st0" d="M873.4,616.8c-2.8,0-5.4-0.5-7.8-1.4c-2.4-0.9-4.4-2.4-6.1-4.2c-1.7-1.9-3.1-4.2-4-7c-0.9-2.8-1.4-6-1.4-9.7
			c0-3.6,0.5-6.8,1.4-9.5c0.9-2.7,2.3-5,4-7c1.7-1.9,3.8-3.4,6.1-4.4c2.4-1,5-1.5,7.9-1.5c1.5,0,2.8,0.1,4.1,0.3
			c1.3,0.2,2.4,0.5,3.5,0.8c0.9,0.3,1.9,0.7,2.9,1.1c1,0.4,1.9,0.9,2.9,1.4v6.9h-0.5c-0.5-0.5-1.2-1-1.9-1.7
			c-0.8-0.7-1.8-1.3-2.9-1.9c-1.1-0.6-2.3-1.1-3.6-1.5c-1.3-0.4-2.8-0.6-4.5-0.6c-1.8,0-3.6,0.4-5.2,1.1c-1.6,0.8-3.1,1.9-4.3,3.3
			c-1.2,1.5-2.2,3.3-2.8,5.5s-1,4.7-1,7.5c0,3,0.4,5.5,1.1,7.6c0.7,2.1,1.7,3.9,2.9,5.4c1.2,1.4,2.6,2.5,4.2,3.2
			c1.6,0.7,3.3,1.1,5.2,1.1c1.7,0,3.2-0.2,4.6-0.6c1.4-0.4,2.7-0.9,3.8-1.5c1.1-0.6,2-1.2,2.8-1.8c0.8-0.6,1.4-1.2,1.8-1.6h0.4v6.9
			c-0.9,0.4-1.8,0.9-2.7,1.3s-1.9,0.8-3.1,1.2c-1.3,0.4-2.4,0.7-3.5,0.9C876.5,616.7,875.1,616.8,873.4,616.8z"/>
		<path class="st0" d="M931.9,616h-5.7v-21.2h-19.9V616h-5.7v-43.2h5.7v17h19.9v-17h5.7V616z"/>
		<path class="st0" d="M949.6,593.8c-0.8,0-1.6,0.1-2.4,0.3c-0.8,0.2-1.6,0.4-2.4,0.8c-0.7,0.3-1.3,0.6-1.9,0.9
			c-0.5,0.3-1,0.6-1.4,0.9h-0.3V592c1-0.5,2.3-1,3.9-1.4s3.2-0.6,4.7-0.6s2.8,0.2,3.9,0.5c1.1,0.3,2.1,0.8,3,1.4
			c1,0.7,1.7,1.6,2.2,2.6c0.5,1,0.7,2.2,0.7,3.5c0,1.8-0.6,3.4-1.8,4.8c-1.2,1.4-2.6,2.3-4.3,2.6v0.3c0.7,0.1,1.4,0.4,2.2,0.7
			c0.8,0.3,1.5,0.8,2.2,1.4c0.7,0.6,1.2,1.5,1.7,2.5c0.4,1,0.6,2.2,0.6,3.7c0,1.5-0.3,2.9-0.8,4.1c-0.5,1.3-1.2,2.4-2.2,3.3
			c-1,1-2.1,1.8-3.5,2.3c-1.4,0.5-2.9,0.8-4.7,0.8c-1.7,0-3.3-0.2-4.9-0.6c-1.6-0.4-3-0.9-4.1-1.4v-4.7h0.3c0.9,0.7,2.2,1.3,3.8,2
			c1.6,0.6,3.1,0.9,4.7,0.9c0.9,0,1.8-0.1,2.7-0.4c0.9-0.3,1.7-0.8,2.3-1.4c0.6-0.7,1-1.4,1.4-2.2c0.3-0.8,0.5-1.8,0.5-3
			c0-1.2-0.2-2.2-0.5-3c-0.3-0.8-0.8-1.4-1.5-1.8c-0.6-0.4-1.4-0.8-2.2-0.9c-0.9-0.2-1.8-0.3-2.8-0.3h-1.9V604h1.5
			c2,0,3.6-0.5,4.9-1.4c1.3-1,1.9-2.3,1.9-4.1c0-0.8-0.2-1.5-0.5-2.1c-0.3-0.6-0.7-1.1-1.2-1.4c-0.6-0.4-1.2-0.7-1.9-0.8
			S950.3,593.8,949.6,593.8z"/>
	</g>
	<g>
		<path class="st0" d="M620.9,175.2c-2.8,0-5.4-0.5-7.8-1.4c-2.4-0.9-4.4-2.4-6.1-4.2s-3.1-4.2-4-7s-1.4-6-1.4-9.7
			c0-3.6,0.5-6.8,1.4-9.5c0.9-2.7,2.3-5,4-7c1.7-1.9,3.8-3.4,6.1-4.4c2.4-1,5-1.5,7.9-1.5c1.5,0,2.8,0.1,4.1,0.3
			c1.3,0.2,2.4,0.5,3.5,0.8c0.9,0.3,1.9,0.7,2.9,1.1c1,0.4,1.9,0.9,2.9,1.4v6.9h-0.5c-0.5-0.5-1.2-1-1.9-1.7
			c-0.8-0.7-1.8-1.3-2.9-1.9c-1.1-0.6-2.3-1.1-3.6-1.5c-1.3-0.4-2.8-0.6-4.5-0.6c-1.8,0-3.6,0.4-5.2,1.1c-1.6,0.8-3.1,1.9-4.3,3.3
			c-1.2,1.5-2.2,3.3-2.8,5.5c-0.7,2.2-1,4.7-1,7.5c0,3,0.4,5.5,1.1,7.6c0.7,2.1,1.7,3.9,2.9,5.4c1.2,1.4,2.6,2.5,4.2,3.2
			c1.6,0.7,3.3,1.1,5.2,1.1c1.7,0,3.2-0.2,4.6-0.6c1.4-0.4,2.7-0.9,3.8-1.5c1.1-0.6,2-1.2,2.8-1.8c0.8-0.6,1.4-1.2,1.8-1.6h0.4v6.9
			c-0.9,0.4-1.8,0.9-2.7,1.3c-0.8,0.4-1.9,0.8-3.1,1.2c-1.3,0.4-2.4,0.7-3.5,0.9C624,175.1,622.6,175.2,620.9,175.2z"/>
		<path class="st0" d="M679.4,174.4h-5.7v-21.2h-19.9v21.2H648v-43.2h5.7v17h19.9v-17h5.7V174.4z"/>
		<path class="st0" d="M697.1,152.2c-0.8,0-1.6,0.1-2.4,0.3c-0.8,0.2-1.6,0.4-2.4,0.8c-0.7,0.3-1.3,0.6-1.9,0.9
			c-0.5,0.3-1,0.6-1.4,0.9h-0.3v-4.7c1-0.5,2.3-1,3.9-1.4c1.7-0.4,3.2-0.6,4.7-0.6s2.8,0.2,3.9,0.5c1.1,0.3,2.1,0.8,3,1.4
			c1,0.7,1.7,1.6,2.2,2.6c0.5,1,0.7,2.2,0.7,3.5c0,1.8-0.6,3.4-1.8,4.8c-1.2,1.4-2.6,2.3-4.3,2.6v0.3c0.7,0.1,1.4,0.4,2.2,0.7
			c0.8,0.3,1.5,0.8,2.2,1.4c0.7,0.6,1.2,1.5,1.7,2.5c0.4,1,0.6,2.2,0.6,3.7c0,1.5-0.3,2.9-0.8,4.1c-0.5,1.3-1.2,2.4-2.2,3.3
			c-1,1-2.1,1.8-3.5,2.3c-1.4,0.5-2.9,0.8-4.7,0.8c-1.7,0-3.3-0.2-4.9-0.6c-1.6-0.4-3-0.9-4.1-1.4v-4.7h0.3c0.9,0.7,2.2,1.3,3.8,2
			s3.1,0.9,4.7,0.9c0.9,0,1.8-0.1,2.7-0.4c0.9-0.3,1.7-0.8,2.3-1.4c0.6-0.7,1-1.4,1.4-2.2c0.3-0.8,0.5-1.8,0.5-3
			c0-1.2-0.2-2.2-0.5-3c-0.3-0.8-0.8-1.4-1.5-1.8c-0.6-0.4-1.4-0.8-2.2-0.9c-0.9-0.2-1.8-0.3-2.8-0.3h-1.9v-3.7h1.5
			c2,0,3.6-0.5,4.9-1.4c1.3-0.9,1.9-2.3,1.9-4.1c0-0.8-0.2-1.5-0.5-2.1c-0.3-0.6-0.7-1.1-1.2-1.4c-0.6-0.4-1.2-0.7-1.9-0.8
			C698.6,152.3,697.8,152.2,697.1,152.2z"/>
	</g>
	<g>
		<path class="st0" d="M635.2,268.7h-6.4l-19.1-37.3v37.3h-5.4v-43.2h8.2l17.4,34.2v-34.2h5.4V268.7z"/>
	</g>
	<g>
		<path class="st0" d="M548.6,381.2c1.6,1.9,2.9,4.2,3.8,7.1c0.9,2.8,1.4,6,1.4,9.6c0,3.5-0.4,6.7-1.3,9.5c-0.9,2.8-2.2,5.2-3.9,7.1
			c-1.8,2-3.8,3.5-6.2,4.5s-4.9,1.4-7.8,1.4c-2.9,0-5.6-0.5-7.9-1.5s-4.4-2.5-6-4.4c-1.7-1.9-2.9-4.3-3.8-7.1
			c-0.9-2.8-1.3-6-1.3-9.5c0-3.6,0.4-6.8,1.3-9.6c0.9-2.7,2.2-5.1,3.8-7.1c1.7-1.9,3.7-3.4,6-4.4c2.4-1,5-1.5,7.9-1.5
			c2.9,0,5.6,0.5,8,1.5S547,379.3,548.6,381.2z M547.9,397.9c0-2.9-0.3-5.4-0.9-7.6c-0.6-2.2-1.5-4-2.6-5.5
			c-1.1-1.5-2.5-2.6-4.1-3.4c-1.6-0.7-3.4-1.1-5.4-1.1c-2.1,0-3.9,0.4-5.5,1.1c-1.6,0.7-2.9,1.9-4.1,3.4c-1.1,1.5-2,3.3-2.6,5.5
			c-0.6,2.2-0.9,4.7-0.9,7.5c0,5.7,1.2,10,3.6,13c2.4,3,5.6,4.5,9.6,4.5s7.2-1.5,9.6-4.5C546.7,407.9,547.9,403.5,547.9,397.9z"/>
	</g>
	<g>
		<path class="st0" d="M733.7,381c1.6,1.9,2.9,4.2,3.8,7.1c0.9,2.8,1.4,6,1.4,9.6c0,3.5-0.4,6.7-1.3,9.5c-0.9,2.8-2.2,5.2-3.9,7.1
			c-1.8,2-3.8,3.5-6.2,4.5s-4.9,1.4-7.8,1.4c-2.9,0-5.6-0.5-7.9-1.5s-4.4-2.5-6-4.4c-1.7-1.9-2.9-4.3-3.8-7.1
			c-0.9-2.8-1.3-6-1.3-9.5c0-3.6,0.4-6.8,1.3-9.6c0.9-2.7,2.2-5.1,3.8-7.1c1.7-1.9,3.7-3.4,6-4.4c2.4-1,5-1.5,7.9-1.5
			c2.9,0,5.6,0.5,8,1.5S732.1,379.1,733.7,381z M732.9,397.6c0-2.9-0.3-5.4-0.9-7.6c-0.6-2.2-1.5-4-2.6-5.5
			c-1.1-1.5-2.5-2.6-4.1-3.4c-1.6-0.7-3.4-1.1-5.4-1.1c-2.1,0-3.9,0.4-5.5,1.1c-1.6,0.7-2.9,1.9-4.1,3.4c-1.1,1.5-2,3.3-2.6,5.5
			c-0.6,2.2-0.9,4.7-0.9,7.5c0,5.7,1.2,10,3.6,13c2.4,3,5.6,4.5,9.6,4.5s7.2-1.5,9.6-4.5C731.7,407.6,732.9,403.3,732.9,397.6z"/>
		<path class="st0" d="M776,419.2h-5.7v-21.2h-19.9v21.2h-5.7V376h5.7v17h19.9v-17h5.7V419.2z"/>
	</g>
	<g>
		<path class="st0" d="M117,251.2c1.6,1.9,2.9,4.2,3.8,7.1c0.9,2.8,1.4,6,1.4,9.6c0,3.5-0.4,6.7-1.3,9.5c-0.9,2.8-2.2,5.2-3.9,7.1
			c-1.8,2-3.8,3.5-6.2,4.5s-4.9,1.4-7.8,1.4c-2.9,0-5.6-0.5-7.9-1.5s-4.4-2.5-6-4.4c-1.7-1.9-2.9-4.3-3.8-7.1
			c-0.9-2.8-1.3-6-1.3-9.5c0-3.6,0.4-6.8,1.3-9.6c0.9-2.7,2.2-5.1,3.8-7.1c1.7-1.9,3.7-3.4,6-4.4c2.4-1,5-1.5,7.9-1.5
			c2.9,0,5.6,0.5,8,1.5C113.3,247.9,115.3,249.3,117,251.2z M116.2,267.8c0-2.9-0.3-5.4-0.9-7.6s-1.5-4-2.6-5.5
			c-1.1-1.5-2.5-2.6-4.1-3.4c-1.6-0.7-3.4-1.1-5.4-1.1c-2.1,0-3.9,0.4-5.5,1.1c-1.6,0.7-2.9,1.9-4.1,3.4c-1.1,1.5-2,3.3-2.6,5.5
			c-0.6,2.2-0.9,4.7-0.9,7.5c0,5.7,1.2,10,3.6,13c2.4,3,5.6,4.5,9.6,4.5c4,0,7.2-1.5,9.6-4.5C115,277.8,116.2,273.5,116.2,267.8z"/>
	</g>
	<g>
		<path class="st0" d="M118.9,411.8c1.6,1.9,2.9,4.2,3.8,7.1c0.9,2.8,1.4,6,1.4,9.6c0,3.5-0.4,6.7-1.3,9.5c-0.9,2.8-2.2,5.2-3.9,7.1
			c-1.8,2-3.8,3.5-6.2,4.5s-4.9,1.4-7.8,1.4c-2.9,0-5.6-0.5-7.9-1.5s-4.4-2.5-6-4.4c-1.7-1.9-2.9-4.3-3.8-7.1
			c-0.9-2.8-1.3-6-1.3-9.5c0-3.6,0.4-6.8,1.3-9.6c0.9-2.7,2.2-5.1,3.8-7.1c1.7-1.9,3.7-3.4,6-4.4c2.4-1,5-1.5,7.9-1.5
			c2.9,0,5.6,0.5,8,1.5C115.3,408.5,117.2,409.9,118.9,411.8z M118.1,428.4c0-2.9-0.3-5.4-0.9-7.6s-1.5-4-2.6-5.5
			c-1.1-1.5-2.5-2.6-4.1-3.4c-1.6-0.7-3.4-1.1-5.4-1.1c-2.1,0-3.9,0.4-5.5,1.1c-1.6,0.7-2.9,1.9-4.1,3.4c-1.1,1.5-2,3.3-2.6,5.5
			c-0.6,2.2-0.9,4.7-0.9,7.5c0,5.7,1.2,10,3.6,13c2.4,3,5.6,4.5,9.6,4.5c4,0,7.2-1.5,9.6-4.5C116.9,438.4,118.1,434.1,118.1,428.4z"
			/>
	</g>
	<g>
		<path class="st0" d="M296.1,528.1c1.6,1.9,2.9,4.2,3.8,7.1c0.9,2.8,1.4,6,1.4,9.6c0,3.5-0.4,6.7-1.3,9.5c-0.9,2.8-2.2,5.2-3.9,7.1
			c-1.8,2-3.8,3.5-6.2,4.5s-4.9,1.4-7.8,1.4c-2.9,0-5.6-0.5-7.9-1.5c-2.3-1-4.4-2.5-6-4.4c-1.7-1.9-2.9-4.3-3.8-7.1s-1.3-6-1.3-9.5
			c0-3.6,0.4-6.8,1.3-9.6s2.2-5.1,3.8-7.1c1.7-1.9,3.7-3.4,6-4.4s5-1.5,7.9-1.5c2.9,0,5.6,0.5,8,1.5
			C292.5,524.8,294.5,526.3,296.1,528.1z M295.3,544.8c0-2.9-0.3-5.4-0.9-7.6s-1.5-4-2.6-5.5c-1.1-1.5-2.5-2.6-4.1-3.4
			c-1.6-0.7-3.4-1.1-5.4-1.1c-2.1,0-3.9,0.4-5.5,1.1c-1.6,0.7-2.9,1.9-4.1,3.4c-1.1,1.5-2,3.3-2.6,5.5c-0.6,2.2-0.9,4.7-0.9,7.5
			c0,5.7,1.2,10,3.6,13c2.4,3,5.6,4.5,9.6,4.5c4,0,7.2-1.5,9.6-4.5S295.3,550.4,295.3,544.8z"/>
	</g>
	<g>
		<path class="st0" d="M380.8,575.5c1.6,1.9,2.9,4.2,3.8,7.1c0.9,2.8,1.4,6,1.4,9.6c0,3.5-0.4,6.7-1.3,9.5c-0.9,2.8-2.2,5.2-3.9,7.1
			c-1.8,2-3.8,3.5-6.2,4.5s-4.9,1.4-7.8,1.4c-2.9,0-5.6-0.5-7.9-1.5c-2.3-1-4.4-2.5-6-4.4c-1.7-1.9-2.9-4.3-3.8-7.1s-1.3-6-1.3-9.5
			c0-3.6,0.4-6.8,1.3-9.6s2.2-5.1,3.8-7.1c1.7-1.9,3.7-3.4,6-4.4s5-1.5,7.9-1.5c2.9,0,5.6,0.5,8,1.5
			C377.1,572.2,379.1,573.7,380.8,575.5z M380,592.2c0-2.9-0.3-5.4-0.9-7.6s-1.5-4-2.6-5.5c-1.1-1.5-2.5-2.6-4.1-3.4
			c-1.6-0.7-3.4-1.1-5.4-1.1c-2.1,0-3.9,0.4-5.5,1.1c-1.6,0.7-2.9,1.9-4.1,3.4c-1.1,1.5-2,3.3-2.6,5.5c-0.6,2.2-0.9,4.7-0.9,7.5
			c0,5.7,1.2,10,3.6,13c2.4,3,5.6,4.5,9.6,4.5c4,0,7.2-1.5,9.6-4.5S380,597.9,380,592.2z"/>
	</g>
	<g>
		<path class="st0" d="M802.9,528.1c1.6,1.9,2.9,4.2,3.8,7.1c0.9,2.8,1.4,6,1.4,9.6c0,3.5-0.4,6.7-1.3,9.5c-0.9,2.8-2.2,5.2-3.9,7.1
			c-1.8,2-3.8,3.5-6.2,4.5s-4.9,1.4-7.8,1.4c-2.9,0-5.6-0.5-7.9-1.5c-2.3-1-4.4-2.5-6-4.4c-1.7-1.9-2.9-4.3-3.8-7.1
			c-0.9-2.8-1.3-6-1.3-9.5c0-3.6,0.4-6.8,1.3-9.6c0.9-2.7,2.2-5.1,3.8-7.1c1.7-1.9,3.7-3.4,6-4.4s5-1.5,7.9-1.5c2.9,0,5.6,0.5,8,1.5
			C799.3,524.8,801.3,526.3,802.9,528.1z M802.1,544.8c0-2.9-0.3-5.4-0.9-7.6c-0.6-2.2-1.5-4-2.6-5.5c-1.1-1.5-2.5-2.6-4.1-3.4
			c-1.6-0.7-3.4-1.1-5.4-1.1c-2.1,0-3.9,0.4-5.5,1.1c-1.6,0.7-2.9,1.9-4.1,3.4c-1.1,1.5-2,3.3-2.6,5.5c-0.6,2.2-0.9,4.7-0.9,7.5
			c0,5.7,1.2,10,3.6,13s5.6,4.5,9.6,4.5s7.2-1.5,9.6-4.5C800.9,554.8,802.1,550.4,802.1,544.8z"/>
	</g>
	<g>
		<path class="st0" d="M801.2,722.2c1.6,1.9,2.9,4.2,3.8,7.1c0.9,2.8,1.4,6,1.4,9.6c0,3.5-0.4,6.7-1.3,9.5c-0.9,2.8-2.2,5.2-3.9,7.1
			c-1.8,2-3.8,3.5-6.2,4.5s-4.9,1.4-7.8,1.4c-2.9,0-5.6-0.5-7.9-1.5c-2.3-1-4.4-2.5-6-4.4c-1.7-1.9-2.9-4.3-3.8-7.1
			c-0.9-2.8-1.3-6-1.3-9.5c0-3.6,0.4-6.8,1.3-9.6c0.9-2.7,2.2-5.1,3.8-7.1c1.7-1.9,3.7-3.4,6-4.4s5-1.5,7.9-1.5c2.9,0,5.6,0.5,8,1.5
			C797.6,718.9,799.6,720.3,801.2,722.2z M800.4,738.8c0-2.9-0.3-5.4-0.9-7.6c-0.6-2.2-1.5-4-2.6-5.5c-1.1-1.5-2.5-2.6-4.1-3.4
			c-1.6-0.7-3.4-1.1-5.4-1.1c-2.1,0-3.9,0.4-5.5,1.1c-1.6,0.7-2.9,1.9-4.1,3.4c-1.1,1.5-2,3.3-2.6,5.5c-0.6,2.2-0.9,4.7-0.9,7.5
			c0,5.7,1.2,10,3.6,13s5.6,4.5,9.6,4.5s7.2-1.5,9.6-4.5C799.2,748.8,800.4,744.5,800.4,738.8z"/>
	</g>
	<g>
		<path class="st0" d="M707.2,320.3c-2.8,0-5.4-0.5-7.8-1.4c-2.4-0.9-4.4-2.4-6.1-4.2s-3.1-4.2-4-7s-1.4-6-1.4-9.7
			c0-3.6,0.5-6.8,1.4-9.5c0.9-2.7,2.3-5,4-7c1.7-1.9,3.8-3.4,6.1-4.4c2.4-1,5-1.5,7.9-1.5c1.5,0,2.8,0.1,4.1,0.3
			c1.3,0.2,2.4,0.5,3.5,0.8c0.9,0.3,1.9,0.7,2.9,1.1c1,0.4,1.9,0.9,2.9,1.4v6.9h-0.5c-0.5-0.5-1.2-1-1.9-1.7
			c-0.8-0.7-1.8-1.3-2.9-1.9c-1.1-0.6-2.3-1.1-3.6-1.5c-1.3-0.4-2.8-0.6-4.5-0.6c-1.8,0-3.6,0.4-5.2,1.1c-1.6,0.8-3.1,1.9-4.3,3.3
			c-1.2,1.5-2.2,3.3-2.8,5.5c-0.7,2.2-1,4.7-1,7.5c0,3,0.4,5.5,1.1,7.6c0.7,2.1,1.7,3.9,2.9,5.4c1.2,1.4,2.6,2.5,4.2,3.2
			c1.6,0.7,3.3,1.1,5.2,1.1c1.7,0,3.2-0.2,4.6-0.6c1.4-0.4,2.7-0.9,3.8-1.5c1.1-0.6,2-1.2,2.8-1.8c0.8-0.6,1.4-1.2,1.8-1.6h0.4v6.9
			c-0.9,0.4-1.8,0.9-2.7,1.3c-0.8,0.4-1.9,0.8-3.1,1.2c-1.3,0.4-2.4,0.7-3.5,0.9C710.3,320.2,709,320.3,707.2,320.3z"/>
		<path class="st0" d="M765.7,319.5H760v-21.2h-19.9v21.2h-5.7v-43.2h5.7v17H760v-17h5.7V319.5z"/>
		<path class="st0" d="M783.4,297.4c-0.8,0-1.6,0.1-2.4,0.3c-0.8,0.2-1.6,0.4-2.4,0.8c-0.7,0.3-1.3,0.6-1.9,0.9
			c-0.5,0.3-1,0.6-1.4,0.9h-0.3v-4.7c1-0.5,2.3-1,3.9-1.4c1.7-0.4,3.2-0.6,4.7-0.6s2.8,0.2,3.9,0.5c1.1,0.3,2.1,0.8,3,1.4
			c1,0.7,1.7,1.6,2.2,2.6c0.5,1,0.7,2.2,0.7,3.5c0,1.8-0.6,3.4-1.8,4.8c-1.2,1.4-2.6,2.3-4.3,2.6v0.3c0.7,0.1,1.4,0.4,2.2,0.7
			c0.8,0.3,1.5,0.8,2.2,1.4c0.7,0.6,1.2,1.5,1.7,2.5c0.4,1,0.6,2.2,0.6,3.7c0,1.5-0.3,2.9-0.8,4.1c-0.5,1.3-1.2,2.4-2.2,3.3
			c-1,1-2.1,1.8-3.5,2.3c-1.4,0.5-2.9,0.8-4.7,0.8c-1.7,0-3.3-0.2-4.9-0.6c-1.6-0.4-3-0.9-4.1-1.4v-4.7h0.3c0.9,0.7,2.2,1.3,3.8,2
			s3.1,0.9,4.7,0.9c0.9,0,1.8-0.1,2.7-0.4c0.9-0.3,1.7-0.8,2.3-1.4c0.6-0.7,1-1.4,1.4-2.2c0.3-0.8,0.5-1.8,0.5-3
			c0-1.2-0.2-2.2-0.5-3c-0.3-0.8-0.8-1.4-1.5-1.8c-0.6-0.4-1.4-0.8-2.2-0.9c-0.9-0.2-1.8-0.3-2.8-0.3H781v-3.7h1.5
			c2,0,3.6-0.5,4.9-1.4c1.3-0.9,1.9-2.3,1.9-4.1c0-0.8-0.2-1.5-0.5-2.1c-0.3-0.6-0.7-1.1-1.2-1.4c-0.6-0.4-1.2-0.7-1.9-0.8
			C784.9,297.4,784.2,297.4,783.4,297.4z"/>
	</g>
	<rect x="617.3" y="182.9" class="st0" width="4.7" height="34.7"/>
	<rect x="785.6" y="764.9" class="st0" width="4.7" height="41.7"/>
	<g>
		<rect x="829.1" y="546.3" transform="matrix(0.5 -0.866 0.866 0.5 -75.3031 1003.5756)" class="st0" width="4.6" height="41.3"/>
		<polygon class="st0" points="705.7,686.9 705.7,592 764.7,558 762.3,554 701.1,589.3 701.1,689.6 757.9,722.4 760.2,718.4 		"/>
	</g>
	<polygon class="st0" points="759.2,555.8 703.5,588 621.3,540.6 621.3,445.6 678.3,412.7 676,408.7 616.6,443 616.6,543.2 
		703.5,593.4 760.9,560.2 	"/>
	<polygon class="st0" points="448.8,531.6 391.6,564.7 393.4,567.9 448.8,535.9 	"/>
	<rect x="659.8" y="260" transform="matrix(0.5 -0.866 0.866 0.5 93.7418 710.4609)" class="st0" width="4.6" height="28.1"/>
	<polygon class="st0" points="673.2,410.3 631,434.7 631,434.7 619,441.6 618.9,441.6 616.6,442.9 616.6,445.7 616.6,462.9 
		616.6,540.6 534.4,588 452.2,540.6 452.2,469.3 452.2,445.6 452.2,443 367.7,394.2 367.7,299.2 449.9,251.8 513.7,288.6 
		534.6,300.6 536.7,299.3 536.7,299.2 561.3,285 561.3,285 590.2,268.4 587.9,264.4 534.4,295.2 449.9,246.4 363,296.6 363,396.8 
		447.6,445.7 447.6,543.2 534.4,593.4 621.3,543.2 621.3,445.6 675.5,414.3 	"/>
	<polygon class="st0" points="454,545.4 392.9,580.7 394.8,583.9 457.8,547.5 	"/>
	<rect x="220.3" y="564.6" transform="matrix(0.866 -0.5 0.5 0.866 -251.607 194.8943)" class="st0" width="35.2" height="4.6"/>
	<rect x="278.5" y="443.4" class="st0" width="4.6" height="69.7"/>
	
		<rect x="162.6" y="251.5" transform="matrix(0.3136 -0.9495 0.9495 0.3136 -159.5728 353.7135)" class="st0" width="4.6" height="71.4"/>
	
		<rect x="162.6" y="368.9" transform="matrix(-0.3136 -0.9495 0.9495 -0.3136 -167.566 688.0042)" class="st0" width="4.6" height="71.4"/>
	<g>
		<polygon class="st0" points="79.7,397.3 41.6,346.6 81.5,292.3 86.3,295.8 49.1,346.6 84.5,393.7 		"/>
	</g>
	<polygon class="st0" points="560.4,415.7 559.3,419.4 617,452.7 618.8,449.4 	"/>
	<polygon class="st0" points="564.2,402.5 563.1,406.2 625.3,442 627.1,438.7 	"/>
</g>
</svg>
