<?xml version="1.0" encoding="utf-8"?>
<!-- Generator: Adobe Illustrator 24.3.0, SVG Export Plug-In . SVG Version: 6.00 Build 0)  -->
<svg version="1.1" id="Layer_3" xmlns="http://www.w3.org/2000/svg" xmlns:xlink="http://www.w3.org/1999/xlink" x="0px" y="0px"
	 viewBox="0 0 100 100" style="enable-background:new 0 0 100 100;" xml:space="preserve">
<style type="text/css">
	.st0{fill:#FDFFF4;}
	.st1{fill:#008A17;}
</style>
<path class="st0" d="M61.3,50.1c0.4,0.6,1,0.9,1.7,0.9c0.1,0,0.2,0,0.4,0l19.8-3.6c1.1-0.2,1.8-1.2,1.6-2.3c0-0.1,0-0.2-0.1-0.3
	L79,27.6c-0.4-1-1.5-1.6-2.5-1.3c-0.3,0.1-0.6,0.3-0.8,0.5l-4.3,4.5c-8.7-8.4-22.2-9-31.7-1.6c-3,0.4-6.1,0.6-9.1,0.7
	c-4.3,0.1-8.7-0.2-13-0.8c-1.1-0.2-2.1,0.6-2.3,1.7c0,0.1,0,0.2,0,0.3v10.5c0,1,0.7,1.9,1.7,2c3.7,0.5,7.4,0.8,11.2,0.8h0.6
	c4,0,7.9-0.4,11.8-1h0.1h0.2l0.2-0.1l0.2-0.1l0.2-0.1c0,0,0.1,0,0.1-0.1c3.9-3.1,8.8-4.8,13.9-4.6c3.5,0.2,6.9,1.3,9.8,3.2l-4,5.9
	C60.9,48.7,60.9,49.5,61.3,50.1z M55.5,34.9C49.7,34.6,44,36.5,39.4,40c-3.5,0.6-7.1,0.9-10.7,0.9c-3.2,0-6.3-0.2-9.5-0.5v-6.5
	c3.8,0.4,7.6,0.6,11.3,0.5c3.4-0.1,6.8-0.3,10.2-0.8h0.1H41l0.2-0.1c0.1,0,0.1-0.1,0.2-0.1c0.1,0,0.1-0.1,0.2-0.1l0.1-0.1
	c8.4-7,20.9-6,28.1,2.3c0.4,0.4,0.9,0.7,1.4,0.7c0.6,0,1.1-0.2,1.5-0.6l3.5-3.6l4,11.9l-13,2.3l2.4-3.6c0.6-0.9,0.4-2-0.4-2.7
	C65.2,36.9,60.5,35.2,55.5,34.9z"/>
<path class="st1" d="M84.8,57.9c0-1-0.7-1.9-1.7-2c-3.9-0.6-7.9-0.9-11.8-0.8c-4,0-7.9,0.4-11.8,1h-0.1l-0.2,0.1H59l-0.2,0.1
	l-0.2,0.1c0,0-0.1,0-0.1,0.1c-3.9,3.1-8.8,4.8-13.9,4.6c-3.5-0.2-6.9-1.2-9.9-3.1l3.9-5.9c0.6-0.9,0.3-2.2-0.6-2.8
	c-0.4-0.3-0.9-0.4-1.4-0.3l-19.8,3.6c-1.1,0.2-1.8,1.2-1.6,2.3c0,0.1,0,0.2,0.1,0.3L21,72.4c0.4,1,1.5,1.6,2.5,1.3
	c0.3-0.1,0.6-0.3,0.8-0.5l4.3-4.4c4.2,4,9.7,6.4,15.6,6.7c0.4,0,0.8,0,1.2,0c5.4,0,10.6-1.9,14.9-5.2c3-0.4,6.1-0.6,9.1-0.7
	c4.3-0.1,8.7,0.2,13,0.8c1.1,0.2,2.1-0.6,2.3-1.7c0-0.1,0-0.2,0-0.3L84.8,57.9z M80.8,66.1c-7.1-0.8-14.4-0.7-21.5,0.3h-0.1H59
	l-0.2,0.1l-0.2,0.1c-0.1,0-0.1,0.1-0.2,0.1l-0.1,0.1c-3.9,3.2-8.8,4.8-13.9,4.6C39,71,33.9,68.6,30.2,64.5c-0.4-0.4-0.9-0.7-1.5-0.7
	s-1.1,0.2-1.5,0.6L23.8,68l-4-11.9l13-2.3l-2.4,3.6c-0.6,0.9-0.4,2,0.5,2.7c8.7,6.8,21,6.8,29.7-0.1c6.7-1.1,13.5-1.2,20.2-0.3V66.1
	z"/>
</svg>
