<?xml version="1.0" encoding="utf-8"?>
<!-- Generator: Adobe Illustrator 19.0.0, SVG Export Plug-In . SVG Version: 6.00 Build 0)  -->
<svg version="1.1" id="Layer_1" xmlns="http://www.w3.org/2000/svg" xmlns:xlink="http://www.w3.org/1999/xlink" x="0px" y="0px"
	 viewBox="0 0 512 512" style="enable-background:new 0 0 512 512;" xml:space="preserve">
<style type="text/css">
	.st0{fill:#7D8696;}
	.st1{fill:#5F6670;}
	.st2{fill:#E0EFF9;}
	.st3{fill:#C1CBD1;}
	.st4{fill:#6994FE;}
	.st5{fill:#F3CE7D;}
	.st6{fill:#5D83D1;}
	.st7{fill:#E1B7A3;}
	.st8{fill:#BF9E91;}
	.st9{fill:#F4F8FC;}
	.st10{fill:#C79A83;}
	.st11{fill:#C0C5D9;}
	.st12{fill:#A3A8B7;}
</style>
<path class="st0" d="M249.8,23.4v25.4h-83.3V23.4c0-5.2,4.2-9.4,9.4-9.4h64.6C245.6,14,249.8,18.2,249.8,23.4
	C249.8,23.4,249.8,23.4,249.8,23.4z"/>
<path class="st1" d="M205.8,14h-30c-5.2,0-9.4,4.2-9.4,9.4v25.4h30V23.4C196.5,18.2,200.7,14,205.8,14z"/>
<path class="st2" d="M284.5,238.8c-3.6-7.3-6.9-14.8-9.8-22.5l-8.3-21.9c-10.3-27.2-16.1-55.9-16.6-85l0-28.6h-83.3l0,28.6
	c-0.4,29.1-6.2,57.8-16.6,85l-8.4,22.1c-2.9,7.6-6.1,15-9.7,22.2l-24.5,49.7l0.5,0.2c24.2,0.4,24.7,12.6,49.7,12.6
	c25.5,0,25.5-12.6,51-12.6c25.5,0,25.5,12.6,51,12.6c25,0,25.5-12.1,49.6-12.6L284.5,238.8z"/>
<g>
	<path class="st3" d="M166.5,80.8l0,28.6c-0.4,29.1-6.2,57.8-16.6,85l-8.4,22.1c-2.9,7.6-6.1,15-9.7,22.2l-24.5,49.7l0.5,0.2
		c13.5,0.2,19.6,4.1,26.7,7.5l23.4-47.4c3.6-7.2,6.8-14.7,9.7-22.2l8.4-22.1c10.3-27.2,16.2-55.9,16.6-85l0-38.6H166.5z"/>
</g>
<path class="st4" d="M359.3,390.3c16.2,32.8-7.5,71.1-43.9,71.1H100.9c-36.4,0-60.1-38.4-43.9-71.1l50.3-102l0.5,0.2
	c24.2,0.4,24.7,12.6,49.7,12.6c25.5,0,25.5-12.6,51-12.6s25.5,12.6,51,12.6c25,0,25.5-12.1,49.6-12.6L359.3,390.3z"/>
<polygon class="st5" points="236.5,360.1 198.4,433.2 200.6,383.9 183.2,383.9 193.2,318 231.5,318 215.4,360.1 "/>
<path class="st6" d="M87,390.1l46.7-94.5c-6.8-3.3-12.9-6.8-25.9-7.1l-0.5-0.2L57,390.1c-16.2,32.8,7.5,70.9,43.9,70.9h30
	C94.5,461,70.8,422.8,87,390.1z"/>
<path class="st7" d="M113.8,173.1c-15.1,0-27.3,12.2-27.3,27.3c0,0,0,0,0,0v0c0,15.1,12.2,27.3,27.3,27.3c0,0,0,0,0,0h304.7v-54.6
	H113.8z"/>
<path class="st8" d="M116,200.4L116,200.4c0-15.1,12.7-27.4,27.8-27.4h-30C98.7,173,86,185.3,86,200.4v0c0,15.1,12.7,27.6,27.8,27.6
	h30C128.7,228,116,215.5,116,200.4z"/>
<path class="st9" d="M122.1,203h-2.7c-3.3,0-6-2.7-6-6s2.7-6,6-6h2.7c3.3,0,6,2.7,6,6S125.4,203,122.1,203z"/>
<path class="st9" d="M235.6,203h-93.8c-3.3,0-6-2.7-6-6s2.7-6,6-6h93.8c3.3,0,6,2.7,6,6S238.9,203,235.6,203z"/>
<path class="st10" d="M453.8,87.5c-8.5-8.5-22.4-8.5-30.9,0c-4.1,4.1-6.4,9.6-6.4,15.4V499h43.7V102.9
	C460.2,97.1,457.9,91.6,453.8,87.5z"/>
<g>
	<path class="st3" d="M246.2,299.7c0.5,0.1,1.1,0.3,1.6,0.4C247.3,299.9,246.8,299.8,246.2,299.7z"/>
	<path class="st3" d="M144,299.7c0.6,0.1,1.2,0.3,1.8,0.4C145.2,299.9,144.6,299.8,144,299.7z"/>
</g>
<path class="st11" d="M253.1,47.7h-90c-9.4,0-17,7.6-17,17c0,9.4,7.6,17,17,17h90c9.4,0,17-7.6,17-17
	C270.1,55.3,262.5,47.7,253.1,47.7z"/>
<path class="st12" d="M176.1,64.7c0-9.4,7.6-17,17-17h-30c-9.4,0-17,7.6-17,17c0,9.4,7.6,17,17,17h30
	C183.7,81.7,176.1,74.1,176.1,64.7z"/>
</svg>
