<?xml version="1.0" encoding="utf-8"?>
<!-- Generator: Adobe Illustrator 24.3.0, SVG Export Plug-In . SVG Version: 6.00 Build 0)  -->
<svg version="1.1" id="Layer_1" xmlns="http://www.w3.org/2000/svg" xmlns:xlink="http://www.w3.org/1999/xlink" x="0px" y="0px"
	 viewBox="0 0 64 64" style="enable-background:new 0 0 64 64;" xml:space="preserve">
<style type="text/css">
	.st0{fill:#037400;}
</style>
<g id="Layer_20">
	<path class="st0" d="M23.8,12.5c1.4,0,2.5-1.1,2.5-2.5c0-0.3-0.1-0.6-0.2-0.8l0.1,0c0.2,0,0.3-0.2,0.3-0.4c0-0.2-0.2-0.3-0.4-0.3
		l-0.3,0.1c-0.8-1.1-2.4-1.2-3.5-0.4s-1.2,2.4-0.4,3.5C22.3,12.2,23,12.5,23.8,12.5z M23.8,9.6c0.3,0,0.5,0.2,0.5,0.5
		c0,0.3-0.2,0.5-0.5,0.5c-0.3,0-0.5-0.2-0.5-0.5C23.3,9.8,23.5,9.6,23.8,9.6z M14.6,29.4l-0.1,0.4c-0.1,0.2,0,0.4,0.2,0.5
		c0.2,0.1,0.4,0,0.5-0.2c0,0,0,0,0,0l0.1-0.3c0.2,0.1,0.4,0.1,0.6,0.1c1.4,0,2.5-1.1,2.5-2.5s-1.1-2.5-2.5-2.5s-2.5,1.1-2.5,2.5
		C13.4,28.2,13.8,29,14.6,29.4L14.6,29.4z M15.9,26.9c0.3,0,0.5,0.2,0.5,0.5c0,0.3-0.2,0.5-0.5,0.5c-0.3,0-0.5-0.2-0.5-0.5
		c0,0,0,0,0,0C15.4,27.1,15.6,26.9,15.9,26.9L15.9,26.9z M54.6,44.6c-1.4,0-2.5,1.1-2.5,2.5c0,0.1,0,0.2,0,0.3l-0.5,0.2
		c-0.2,0.1-0.3,0.3-0.2,0.5c0.1,0.2,0.3,0.3,0.5,0.2l0.5-0.1c0.6,1.2,2,1.8,3.3,1.2c1.2-0.6,1.8-2,1.2-3.3
		C56.4,45.1,55.5,44.6,54.6,44.6L54.6,44.6z M54.6,47.5c-0.3,0-0.5-0.2-0.5-0.5s0.2-0.5,0.5-0.5S55,46.8,55,47c0,0,0,0,0,0
		C55,47.3,54.8,47.5,54.6,47.5z M52.4,56.3c-0.7,0-1.3,0.3-1.8,0.8l-0.3-0.2c-0.2-0.1-0.4-0.1-0.5,0.1c-0.1,0.2-0.1,0.4,0.1,0.5
		l0.3,0.2c-0.2,0.3-0.3,0.7-0.3,1.1c0,1.4,1.1,2.5,2.5,2.5s2.5-1.1,2.5-2.5C54.8,57.4,53.7,56.3,52.4,56.3L52.4,56.3z M52.4,59.3
		c-0.3,0-0.5-0.2-0.5-0.5s0.2-0.5,0.5-0.5s0.5,0.2,0.5,0.5c0,0,0,0,0,0C52.8,59.1,52.6,59.3,52.4,59.3z M28.1,8.4
		c0-0.2,0.1-0.4,0.3-0.4L30,7.6c0.2,0,0.4,0.1,0.4,0.3c0,0.2-0.1,0.4-0.3,0.4l-1.6,0.3c0,0-0.1,0-0.1,0C28.3,8.7,28.2,8.6,28.1,8.4z
		 M48.7,55.8c0.2,0.1,0.2,0.4,0.1,0.5c-0.1,0.2-0.4,0.2-0.5,0.1c0,0,0,0,0,0l-1.1-0.8c-0.2-0.1-0.2-0.4-0.1-0.5
		c0.1-0.2,0.3-0.2,0.5-0.1L48.7,55.8z M46.1,49.3l-0.4,0.1c-1.1-1.8-3.5-2.4-5.3-1.3c-0.2,0.1-0.4,0.2-0.5,0.4l-6.1-6.1
		c1-2.1,0.8-4.7-0.7-6.5l7.8-7.3c2.9,1.9,6.8,1.1,8.7-1.9s1.1-6.8-1.9-8.7c-1.6-1.1-3.7-1.3-5.5-0.7l-3.6-9.2
		c0.7-0.6,1.1-1.5,1.2-2.5h0.7c0.2,0,0.4-0.2,0.4-0.4S40.8,5,40.6,5h-0.7c-0.2-2.1-2.1-3.7-4.2-3.5c-2,0.2-3.5,1.9-3.5,3.9
		c0,0.6,0.1,1.2,0.4,1.7l-0.3,0.1c-0.2,0-0.3,0.2-0.3,0.4c0,0.2,0.2,0.3,0.4,0.3c0,0,0.1,0,0.1,0L33,7.8c0.4,0.5,0.8,0.8,1.4,1.1
		l-0.1,0.2c-0.1,0.2,0,0.4,0.2,0.5c0.2,0.1,0.4,0,0.5-0.2l0,0L35,9.1c0.6,0.2,1.3,0.2,1.9,0l3.6,9.2c-2.8,2.1-3.3,6-1.2,8.8
		c0,0,0.1,0.1,0.1,0.1l-7.7,7.3c-2.9-2-6.8-1.2-8.7,1.6c-0.5,0.8-0.9,1.6-1,2.6h-7.3c-0.3-1-0.9-1.8-1.8-2.3l0.2-0.6
		c0.1-0.2,0-0.4-0.2-0.5c-0.2-0.1-0.4,0-0.5,0.2c0,0,0,0,0,0l-0.2,0.5c-0.4-0.2-0.9-0.2-1.3-0.2c-2.2,0-3.9,1.7-3.9,3.9
		c0,2.2,1.7,3.9,3.9,3.9c1.8,0,3.3-1.2,3.8-2.9H22c0.4,2.7,2.5,4.8,5.2,5.2v8.9c-2.1,0.6-3.3,2.7-2.8,4.8c0.6,2.1,2.7,3.3,4.8,2.8
		c2.1-0.6,3.3-2.7,2.8-4.8c-0.4-1.4-1.4-2.4-2.8-2.8V46c1.3-0.2,2.6-0.9,3.5-1.8l6.1,6.1c-0.1,0.4-0.2,0.8-0.2,1.3
		c0,2.1,1.7,3.9,3.9,3.9c1,0,2-0.4,2.8-1.2l0.3,0.2c0.2,0.1,0.4,0.1,0.5-0.1c0.1-0.2,0.1-0.4-0.1-0.5l-0.3-0.2
		c0.7-1,0.8-2.3,0.4-3.5l0.3-0.1c0.2-0.1,0.3-0.3,0.2-0.5S46.4,49.3,46.1,49.3C46.2,49.3,46.2,49.3,46.1,49.3L46.1,49.3z M34.1,5.4
		c0-1,0.8-1.9,1.9-1.9c1,0,1.9,0.8,1.9,1.9S37.1,7.3,36,7.3l0,0C35,7.3,34.1,6.4,34.1,5.4z M10.9,41.7c-1,0-1.9-0.8-1.9-1.9
		c0-1,0.8-1.9,1.9-1.9s1.9,0.8,1.9,1.9c0,0,0,0,0,0C12.8,40.8,11.9,41.7,10.9,41.7z M44.3,19c2.4,0,4.3,1.9,4.3,4.3
		c0,2.4-1.9,4.3-4.3,4.3S40,25.7,40,23.3C40,21,41.9,19,44.3,19z M30.1,58.6c0,1-0.8,1.9-1.9,1.9s-1.9-0.8-1.9-1.9
		c0-1,0.8-1.9,1.9-1.9c0,0,0,0,0,0C29.2,56.7,30.1,57.6,30.1,58.6z M28.2,44.1c-2.4,0-4.3-1.9-4.3-4.3c0-2.4,1.9-4.3,4.3-4.3
		c2.4,0,4.3,1.9,4.3,4.3C32.5,42.1,30.5,44.1,28.2,44.1L28.2,44.1z M42.4,53.4c-1,0-1.9-0.9-1.9-1.9c0-1,0.9-1.9,1.9-1.9
		c1,0,1.9,0.8,1.9,1.9C44.3,52.5,43.5,53.4,42.4,53.4L42.4,53.4z M50.1,48.4c0.1,0.2,0,0.4-0.2,0.5l-1.4,0.5c-0.2,0.1-0.4,0-0.5-0.2
		s0-0.4,0.2-0.5c0,0,0,0,0,0l1.4-0.5C49.8,48.1,50,48.2,50.1,48.4L50.1,48.4z M32.7,14.6c-0.2-0.1-0.4,0-0.5,0.2c0,0,0,0,0,0
		L32,15.3c-0.1,0-0.3,0-0.4,0c-1.4,0-2.5,1.1-2.5,2.5s1.1,2.5,2.5,2.5c1.4,0,2.5-1.1,2.5-2.5c0-1-0.5-1.8-1.4-2.3l0.1-0.4
		C32.9,14.9,32.8,14.7,32.7,14.6z M31.7,18.2c-0.3,0-0.5-0.2-0.5-0.5c0-0.3,0.2-0.5,0.5-0.5c0.3,0,0.5,0.2,0.5,0.5c0,0,0,0,0,0
		C32.1,18,31.9,18.2,31.7,18.2L31.7,18.2z M33.2,13.2c-0.2-0.1-0.3-0.3-0.2-0.5c0,0,0,0,0,0l0.5-1.4c0.1-0.2,0.3-0.3,0.5-0.2
		c0.2,0.1,0.3,0.3,0.2,0.5L33.7,13C33.6,13.2,33.4,13.3,33.2,13.2C33.2,13.2,33.2,13.2,33.2,13.2L33.2,13.2z M13.1,33.4l0.5-1.4
		c0.1-0.2,0.3-0.3,0.5-0.2c0.2,0.1,0.3,0.3,0.2,0.5l-0.5,1.4c-0.1,0.1-0.2,0.2-0.4,0.2c0,0-0.1,0-0.1,0
		C13.2,33.8,13.1,33.6,13.1,33.4C13.1,33.4,13.1,33.4,13.1,33.4z M42.6,5.4C42.6,5.2,42.8,5,43,5h1.6c0.2,0,0.4,0.2,0.4,0.4
		s-0.2,0.4-0.4,0.4H43C42.8,5.8,42.6,5.6,42.6,5.4z M46.9,5.8h0.6C47.7,7.1,49,8,50.3,7.8s2.3-1.5,2.1-2.8c-0.2-1.4-1.5-2.3-2.8-2.1
		c-1.1,0.2-1.9,1-2.1,2.1h-0.6c-0.2,0-0.4,0.2-0.4,0.4S46.7,5.8,46.9,5.8z M49.9,4.9c0.3,0,0.5,0.2,0.5,0.5c0,0.3-0.2,0.5-0.5,0.5
		c-0.3,0-0.5-0.2-0.5-0.5c0,0,0,0,0,0C49.5,5.1,49.7,4.9,49.9,4.9L49.9,4.9z"/>
</g>
</svg>
