<?xml version="1.0" encoding="utf-8"?>
<!-- Generator: Adobe Illustrator 24.3.0, SVG Export Plug-In . SVG Version: 6.00 Build 0)  -->
<svg version="1.1" id="Layer_1" xmlns="http://www.w3.org/2000/svg" xmlns:xlink="http://www.w3.org/1999/xlink" x="0px" y="0px"
	 viewBox="0 0 800 800" style="enable-background:new 0 0 800 800;" xml:space="preserve">
<style type="text/css">
	.st0{fill:#4EB79B;}
	.st1{fill:#40A084;}
	.st2{fill:#F7A872;}
	.st3{fill:#E09461;}
	.st4{fill:none;}
	.st5{font-family:'MyriadPro-Regular';}
	.st6{font-size:154px;}
</style>
<g>
	<circle class="st0" cx="400.4" cy="142.3" r="88.1"/>
	<circle class="st0" cx="102.4" cy="658.4" r="88.1"/>
</g>
<path class="st1" d="M102.4,746.5c-48.7,0-88.1-39.5-88.1-88.2s39.5-88.1,88.1-88.1c-21.9,0-39.7,39.5-39.7,88.1
	S80.5,746.5,102.4,746.5z"/>
<circle class="st0" cx="698.3" cy="658.4" r="88.1"/>
<g>
	<path class="st1" d="M698.3,746.5c-48.7,0-88.1-39.5-88.1-88.2s39.5-88.1,88.1-88.1c-21.9,0-39.7,39.5-39.7,88.1
		S676.3,746.5,698.3,746.5z"/>
	<path class="st1" d="M400.4,230.5c-48.7,0-88.1-39.5-88.1-88.2s39.5-88.1,88.1-88.1c-21.9,0-39.7,39.5-39.7,88.1
		S378.4,230.5,400.4,230.5z"/>
</g>
<circle class="st2" cx="400.4" cy="485.7" r="158.7"/>
<path class="st3" d="M400.4,644.5c-87.6,0-158.7-71.1-158.7-158.7c0-87.7,71.1-158.7,158.7-158.7c-49.2,0-89.1,71.1-89.1,158.7
	C311.3,573.4,351.2,644.5,400.4,644.5z"/>
<path d="M703.5,556.1c-31.3-1.7-59.7,10.8-79.5,31.6l-65.3-34.4c9-20.9,13.9-43.8,13.9-67.9c0-21.1-3.8-41.7-11.2-61.2
	c-2.5-6.7-9.6-10.8-16.5-9c-8.3,2.1-12.6,10.8-9.7,18.5c6.3,16.5,9.5,33.9,9.5,51.7c0,19.4-3.9,37.9-10.8,54.9l-39.5-20.8
	c-6.8-3.6-15.2-1-18.8,5.8l0,0c-3.6,6.8-1,15.2,5.8,18.8l39.5,20.8c-25.9,39.3-70.4,65.3-120.9,65.3c-50.5,0-95-26-120.9-65.3
	l39.5-20.8c6.8-3.6,9.4-12,5.8-18.8l0,0c-3.6-6.8-12-9.4-18.8-5.8L266,540.2c-7-16.9-10.8-35.4-10.8-54.9
	c0-79.8,65-144.8,144.8-144.8c41.8,0,81.6,18.1,109.1,49.6c5.4,6.2,15.2,6.4,20.9,0.1c4.8-5.3,4.5-13.4-0.2-18.8
	c-29.7-33.9-71.3-54.6-115.9-58.2v-70.2c51.2-7,90.4-52.1,88.1-105.7c-2.3-52.4-44.7-94.9-97.1-97.4c-58.5-2.7-107,44.1-107,102
	c0,51.6,38.4,94.3,88.2,101.1v70.2c-88.7,7.1-158.7,81.6-158.7,172.1c0,24.1,5,47,13.9,67.9L176,587.7
	c-19.8-20.8-48.2-33.3-79.4-31.6c-52,2.7-94,45-96.5,97c-2.7,58.5,44.1,107,102,107c13.5,0,26.7-2.6,39.1-7.8
	c6.7-2.8,10.6-10,8.6-17c-2.4-8.1-11.2-12.1-18.8-8.9c-9.6,4.1-19.9,6-30.5,5.8c-37.2-0.8-68.6-29.6-72.3-66.7
	c-4.4-44.3,30.4-81.8,73.9-81.8c40.9,0,74.2,33.3,74.2,74.2c0,12.5-3.1,24.8-9.1,35.6c-3.6,6.5-1.6,15,4.8,18.9
	c6.8,4.2,15.6,1.8,19.5-5.1c8.3-15,12.7-32.1,12.7-49.4c0-17.1-4.3-33.3-11.8-47.5l61.9-32.6C285,626,338.8,658,400,658
	s115-32,145.7-80.1l61.9,32.6c-8.5,16.1-12.8,34.7-11.5,54.4c3.4,50.8,44.5,91.8,95.4,95c61.4,3.8,112.3-47.1,108.3-108.6
	C796.5,600.1,754.8,558.8,703.5,556.1z M325.8,142c0-40.9,33.3-74.2,74.2-74.2c40.9,0,74.2,33.3,74.2,74.2
	c0,40.9-33.3,74.2-74.2,74.2C359.1,216.2,325.8,182.9,325.8,142z M697.9,732.2c-40.9,0-74.2-33.3-74.2-74.2
	c0-40.9,33.3-74.2,74.2-74.2c40.9,0,74.2,33.3,74.2,74.2C772.2,698.9,738.9,732.2,697.9,732.2z"/>
<rect x="354" y="413.4" class="st4" width="144.6" height="113.6"/>
<text transform="matrix(1 0 0 1 354 522.7266)" class="st5 st6">N</text>
</svg>
