<svg id="Layer_1" data-name="Layer 1" xmlns="http://www.w3.org/2000/svg" viewBox="0 0 64 64"><defs><style>.cls-1{fill:#ffd93d;}.cls-2{fill:#6bcb77;}.cls-3{fill:#4d96ff;}.cls-4{fill:#ff6b6b;}</style></defs><rect class="cls-1" x="13" y="25" width="24" height="36"/><rect class="cls-2" x="3" y="25" width="10" height="36"/><rect class="cls-3" x="37" y="25" width="10" height="36"/><path class="cls-4" d="M23.973,48.29l1.5-4.119A.5.5,0,0,0,25,43.5H19.954l4.862-7.023.89.428-1.185,3.951A.5.5,0,0,0,25,41.5h5.028L24.85,48.751Z"/><path class="cls-3" d="M52.776,33.976l-.461,1.1c-.46,1.095-1.153,3.066-.639,3.951a1.516,1.516,0,0,0,2.2,0c.49-.844-.076-2.616-.639-3.955Z"/><path class="cls-3" d="M59.237,39.074l-.461-1.1-.461,1.1c-.46,1.095-1.153,3.066-.639,3.951a1.516,1.516,0,0,0,2.2,0C60.366,42.185,59.8,40.413,59.237,39.074Z"/><path class="cls-3" d="M48.442,11.675a2.508,2.508,0,0,0-.356-.026,2.5,2.5,0,0,0-.347,4.976,2.531,2.531,0,0,0,.357.025,2.5,2.5,0,0,0,.346-4.975Z"/><path class="cls-1" d="M51.571,14.314a2.6,2.6,0,0,1-.015.329,2.426,2.426,0,0,1-.077.316l-.179.656,3.2.454.011-.692a2.206,2.206,0,0,1,.014-.313,2.319,2.319,0,0,1,.076-.314l.181-.661-3.2-.454Z"/><path class="cls-3" d="M59.989,14.053a2.5,2.5,0,1,0-2.351,3.976,2.411,2.411,0,0,0,.357.026h0a2.51,2.51,0,0,0,2.471-2.15A2.479,2.479,0,0,0,59.989,14.053Z"/><path class="cls-2" d="M19.578,8.3a1.5,1.5,0,1,0,1.41.988A1.492,1.492,0,0,0,19.578,8.3Z"/><circle class="cls-2" cx="5" cy="5" r="1.5"/><circle class="cls-2" cx="12" cy="5" r="1.5"/><path class="cls-2" d="M13.636,10.837a1.5,1.5,0,1,0,.774.847A1.49,1.49,0,0,0,13.636,10.837Z"/><circle class="cls-3" cx="47" cy="6" r="2.5"/><path class="cls-1" d="M43.62,5H40.38l.089.674A2.5,2.5,0,0,1,40.5,6a2.5,2.5,0,0,1-.031.326L40.38,7h3.24l-.089-.674A2.5,2.5,0,0,1,43.5,6a2.5,2.5,0,0,1,.031-.326Z"/><circle class="cls-3" cx="37" cy="6" r="2.5"/><polygon class="cls-1" points="5 59 5 25 3 25 3 61 13 61 13 59 5 59"/><polygon class="cls-1" points="45 25 45 59 37 59 37 61 47 61 47 25 45 25"/><rect class="cls-4" x="13" y="59" width="24" height="2"/><path d="M3,62H47a1,1,0,0,0,1-1V57.829a7.942,7.942,0,0,0,8.98-7.536l1.313,1.312a1,1,0,0,0,1.414-1.414l-3-3a1,1,0,0,0-1.414,0l-3,3a1,1,0,0,0,1.414,1.414l1.271-1.27A5.959,5.959,0,0,1,48,55.808V25a1,1,0,0,0-1-1H3a1,1,0,0,0-1,1V61A1,1,0,0,0,3,62Zm11-2V26H36V60Zm32-4.913A5.992,5.992,0,0,1,44.714,45.7a1,1,0,1,0-1.428-1.4A7.994,7.994,0,0,0,46,57.309V60H38V26h8ZM4,26h8V60H4Z"/><path d="M31.89,40.542A1,1,0,0,0,31,40H26.344l2.614-8.713a1,1,0,0,0-1.78-.856l-9,13A1,1,0,0,0,19,45h4.572l-3.511,9.658a1,1,0,0,0,1.752.923l10-14A1,1,0,0,0,31.89,40.542Zm-7.448,7.919,1.5-4.119A1,1,0,0,0,25,43H20.908l4.32-6.238-1.186,3.951A1,1,0,0,0,25,42h4.057Z"/><path d="M10,29H6a1,1,0,0,0,0,2h4a1,1,0,0,0,0-2Z"/><path d="M40,31h1v1a1,1,0,0,0,2,0V31h1a1,1,0,0,0,0-2H43V28a1,1,0,0,0-2,0v1H40a1,1,0,0,0,0,2Z"/><path d="M5,8A3,3,0,0,0,7.816,6H9.184a3,3,0,1,0,0-2H7.816A2.995,2.995,0,1,0,5,8Zm7-4a1,1,0,1,1-1,1A1,1,0,0,1,12,4ZM5,4A1,1,0,1,1,4,5,1,1,0,0,1,5,4Z"/><path d="M8,14a1,1,0,0,0-1,1v4.586L5.707,18.293a1,1,0,0,0-1.414,1.414l3,3a1,1,0,0,0,1.414,0l3-3a1,1,0,0,0-1.414-1.414L9,19.586V15A1,1,0,0,0,8,14Z"/><path d="M42,14a1,1,0,0,0-1,1v4.586l-1.293-1.293a1,1,0,0,0-1.414,1.414l3,3a1,1,0,0,0,1.414,0l3-3a1,1,0,0,0-1.414-1.414L43,19.586V15A1,1,0,0,0,42,14Z"/><path d="M51.909,32.5c-.476.834-2.79,5.1-1.528,7.278a2.967,2.967,0,0,0,4.793,0c1.262-2.174-1.052-6.444-1.528-7.278A1.041,1.041,0,0,0,51.909,32.5Zm1.534,6.274c-.031.055-.128.222-.666.222s-.634-.167-.666-.222c-.317-.546.037-2.013.665-3.51C53.375,36.693,53.781,38.2,53.443,38.778Z"/><path d="M57.909,36.5c-.476.834-2.79,5.1-1.528,7.278a2.967,2.967,0,0,0,4.793,0c1.262-2.174-1.052-6.444-1.528-7.278A1.041,1.041,0,0,0,57.909,36.5Zm1.534,6.274c-.031.055-.128.222-.666.222s-.634-.167-.666-.222c-.317-.546.037-2.013.665-3.51C59.375,40.693,59.781,42.2,59.443,42.778Z"/><path d="M14.27,9.478a3.029,3.029,0,1,0,1.721,2.7l1.277-.464a3.011,3.011,0,1,0-.677-1.883l-1.284.467A2.964,2.964,0,0,0,14.27,9.478Zm-.364,3.141a1,1,0,0,1-1.844-.081h0a1,1,0,0,1,.6-1.281A1.016,1.016,0,0,1,13,11.2a1,1,0,0,1,.905,1.424Zm5.331-3.755a1,1,0,1,1-.6,1.282A1,1,0,0,1,19.237,8.864Z"/><path d="M37,10a3.978,3.978,0,0,0,3.1-1.5H43.9a4,4,0,1,0,0-5H40.1A3.992,3.992,0,1,0,37,10ZM47,4a2,2,0,1,1-2,2A2,2,0,0,1,47,4ZM43.051,5.5A3.939,3.939,0,0,0,43,6a3.939,3.939,0,0,0,.051.5h-2.1A3.939,3.939,0,0,0,41,6a3.939,3.939,0,0,0-.051-.5ZM37,4a2,2,0,1,1-2,2A2,2,0,0,1,37,4Z"/><path d="M51.288,11.747a4,4,0,1,0-3.76,6.363,4.083,4.083,0,0,0,.571.041,3.972,3.972,0,0,0,2.394-.8,4.09,4.09,0,0,0,.314-.288l3.766.535a4,4,0,1,0,.7-4.951l-3.768-.534A4.086,4.086,0,0,0,51.288,11.747Zm2.742,3.246h0a4.029,4.029,0,0,0-.02.5L51.932,15.2a4.007,4.007,0,0,0,.119-.489,3.817,3.817,0,0,0,.021-.5l2.079.295A3.909,3.909,0,0,0,54.03,14.993ZM47.81,16.13a2,2,0,0,1-.921-3.579,1.981,1.981,0,0,1,1.2-.4,1.952,1.952,0,0,1,.285.021,2,2,0,1,1-.561,3.96Zm10.461-2.555a2,2,0,1,1-2.26,1.7A2,2,0,0,1,58.271,13.575Z"/></svg>