<?xml version="1.0" encoding="utf-8"?>
<!-- Generator: Adobe Illustrator 24.3.0, SVG Export Plug-In . SVG Version: 6.00 Build 0)  -->
<svg version="1.1" id="Layer_31" xmlns="http://www.w3.org/2000/svg" xmlns:xlink="http://www.w3.org/1999/xlink" x="0px" y="0px"
	 viewBox="0 0 64 64" style="enable-background:new 0 0 64 64;" xml:space="preserve">
<style type="text/css">
	.st0{fill:#6A4100;}
	.st1{fill:#6A4D00;}
</style>
<path d="M29.7,19.4c1.2-1.3,1.6-3.2,0.9-4.8C30,13,28.6,12,26.9,12c-2.7,0-4.8,2.2-4.8,5h2c0-1.7,1.3-3,2.9-3l0,0
	c0.8,0,1.6,0.5,1.9,1.4c0.3,0.7,0.3,1.9-0.5,2.7l-6,6.3c-0.3,0.3-0.4,0.7-0.2,1.1c0.2,0.4,0.5,0.6,0.9,0.6h8v-2h-5.7L29.7,19.4
	L29.7,19.4z"/>
<path d="M37,12c-2.2,0-4,2-4,4.5s1.8,4.5,4,4.5c0.7,0,1.4-0.2,2-0.6V22c0,1.1-0.9,2-2,2s-2-0.9-2-2h-2c0,2.2,1.8,4,4,4s4-1.8,4-4
	v-5.5C41,14,39.2,12,37,12z M37,19c-1.1,0-2-1.1-2-2.5s0.9-2.5,2-2.5s2,1.1,2,2.5S38.1,19,37,19z"/>
<path class="st0" d="M27,40c1.7,0,3,1.3,3,3h2c0-2.8-2.2-5-5-5s-5,2.2-5,5v4c0,2.8,2.2,5,5,5s5-2.2,5-5h-2c0,1.7-1.3,3-3,3
	s-3-1.3-3-3v-4C24,41.3,25.3,40,27,40z"/>
<path class="st0" d="M39,48.5c0,0.8-0.7,1.5-1.5,1.5S36,49.3,36,48.5V45h-2v3.5c0,1.9,1.6,3.5,3.5,3.5s3.5-1.6,3.5-3.5V45h-2V48.5z"
	/>
<path d="M55,1H9C4.6,1,1,4.6,1,9v46c0,4.4,3.6,8,8,8h46c4.4,0,8-3.6,8-8V9C63,4.6,59.4,1,55,1z M61,55c0,3.3-2.7,6-6,6H9
	c-3.3,0-6-2.7-6-6V9c0-3.3,2.7-6,6-6h46c3.3,0,6,2.7,6,6V55z"/>
<path class="st1" d="M53,33H11c-2.2,0-4,1.8-4,4v16c0,2.2,1.8,4,4,4h42c2.2,0,4-1.8,4-4V37C57,34.8,55.2,33,53,33z M55,53
	c0,1.1-0.9,2-2,2H11c-1.1,0-2-0.9-2-2V37c0-1.1,0.9-2,2-2h42c1.1,0,2,0.9,2,2V53z"/>
<path d="M53,7H11c-2.2,0-4,1.8-4,4v16c0,2.2,1.8,4,4,4h42c2.2,0,4-1.8,4-4V11C57,8.8,55.2,7,53,7z M55,27c0,1.1-0.9,2-2,2H11
	c-1.1,0-2-0.9-2-2V11c0-1.1,0.9-2,2-2h42c1.1,0,2,0.9,2,2V27z"/>
<rect x="50" y="12" width="2" height="2"/>
<rect x="50" y="16" width="2" height="2"/>
<rect x="50" y="20" width="2" height="2"/>
</svg>
