<svg id="Layer_1" data-name="Layer 1" xmlns="http://www.w3.org/2000/svg" viewBox="0 0 512 512"><rect x="57.72" y="168.33" width="42.76" height="205.2" style="fill:#7d8595"/><rect x="58" y="168" width="26" height="206" style="fill:#69707c"/><rect x="410.52" y="168.33" width="42.89" height="205.2" style="fill:#7d8595"/><path d="M458.95,372.53H53.05a7.191,7.191,0,0,0-7.19,7.19v16.92H466.14V379.72A7.191,7.191,0,0,0,458.95,372.53Z" style="fill:#94bdcd"/><rect x="138.074" y="302.286" transform="translate(-173.307 186.17) rotate(-45)" style="fill:none"/><rect x="167.037" y="273.37" transform="translate(-144.378 198.181) rotate(-45)" style="fill:#a5e2fb"/><rect x="259.778" y="256.873" style="fill:#72bcef"/><polygon points="330 105 330.075 211 391.17 211 391 105 330 105" style="fill:#e5f5fd"/><polygon points="286.76 105.025 225 105 225.17 211 286.77 211 287 105.15 286.76 105.025" style="fill:#e5f5fd"/><polygon points="180.915 105.025 120 105 119.825 211 180.925 211 181 105.15 180.915 105.025" style="fill:#e5f5fd"/><path d="M463.97,148H48.03A2.135,2.135,0,0,0,46,150.27v17.88A1.8,1.8,0,0,0,48.03,170H463.97a1.8,1.8,0,0,0,2.03-1.85V150.27A2.135,2.135,0,0,0,463.97,148Z" style="fill:#6d7486"/><path d="M330.075,209.27l.075,90.93a30.6,30.6,0,0,0,61.19,0l-.17-90.93Z" style="fill:#e87187"/><path d="M225.17,209.27l.17,90.93a30.6,30.6,0,0,0,61.2,0l.23-90.93Z" style="fill:#53d8d8"/><path d="M119.825,209.27l-.175,90.93a30.6,30.6,0,0,0,61.2,0l.075-90.93Z" style="fill:#5fcda4"/><path d="M391.38,86.55H330.11a10.28,10.28,0,0,0,0,20.56h61.27a10.28,10.28,0,1,0,0-20.56Z" style="fill:#ccd3df"/><path d="M285.68,86.55H224.41a10.28,10.28,0,0,0,0,20.56l62.12-.03a10.283,10.283,0,0,0-.85-20.53Z" style="fill:#ccd3df"/><path d="M179.99,86.55H118.72a10.28,10.28,0,0,0,0,20.56l62.12-.03a10.283,10.283,0,0,0-.85-20.53Z" style="fill:#ccd3df"/><path d="M79.05,372.523h-26c-3.97,0-7.05,2.75-7.05,6.72v18.28H72v-18.28C72,375.273,75.08,372.523,79.05,372.523Z" style="fill:#86a8b2"/><path d="M72,168.15V150.27A2.135,2.135,0,0,1,74.03,148h-26A2.135,2.135,0,0,0,46,150.27v17.88A1.8,1.8,0,0,0,48.03,170h26A1.8,1.8,0,0,1,72,168.15Z" style="fill:#5c6270"/><path d="M132.771,238.227a6,6,0,0,1-.01-12h.01a6,6,0,0,1,0,12Z" style="fill:#4ca987"/><path d="M146.486,258.8a6,6,0,1,1-.01-12h.01a6,6,0,0,1,0,12Z" style="fill:#4ca987"/><path d="M133.457,279.37a6,6,0,0,1-.01-12h.01a6,6,0,0,1,0,12Z" style="fill:#4ca987"/><path d="M160.2,299.941a6,6,0,0,1-.01-12h.01a6,6,0,0,1,0,12Z" style="fill:#4ca987"/><path d="M160.2,243.027a6,6,0,0,1-.01-12h.01a6,6,0,0,1,0,12Z" style="fill:#4ca987"/><path d="M274.3,233.877a6,6,0,0,1-.01-12h.01a6,6,0,0,1,0,12Z" style="fill:#51b7b4"/><path d="M273.571,277.371a6,6,0,0,1-.01-12h.01a6,6,0,0,1,0,12Z" style="fill:#51b7b4"/><path d="M245.3,299.118a6,6,0,0,1-.01-12h.01a6,6,0,0,1,0,12Z" style="fill:#51b7b4"/><path d="M267.047,313.616a6,6,0,0,1-.01-12h.01a6,6,0,0,1,0,12Z" style="fill:#51b7b4"/><path d="M238.051,277.371a6,6,0,0,1-.01-12h.01a6,6,0,0,1,0,12Z" style="fill:#51b7b4"/><path d="M245.3,238.951a6,6,0,0,1-.01-12h.01a6,6,0,0,1,0,12Z" style="fill:#51b7b4"/><path d="M346.552,237.306a6,6,0,0,1-.01-12h.01a6,6,0,0,1,0,12Z" style="fill:#ba5d71"/><path d="M357.21,256.114a6,6,0,0,1-.01-12h.01a6,6,0,1,1,0,12Z" style="fill:#ba5d71"/><path d="M347.179,274.922a6,6,0,0,1-.01-12h.01a6,6,0,0,1,0,12Z" style="fill:#ba5d71"/><path d="M352.821,306.269a6,6,0,0,1-.01-12h.01a6,6,0,0,1,0,12Z" style="fill:#ba5d71"/><path d="M377.9,274.922a6,6,0,0,1-.01-12h.01a6,6,0,0,1,0,12Z" style="fill:#ba5d71"/><path d="M76.512,198.011a6,6,0,0,1-6-6v-2.362a6,6,0,0,1,12,0v2.362A6,6,0,0,1,76.512,198.011Z" style="fill:#f4f8fc"/><path d="M76.512,275.909a6,6,0,0,1-6-6v-60.7a6,6,0,0,1,12,0v60.7A6,6,0,0,1,76.512,275.909Z" style="fill:#f4f8fc"/><path d="M466.14,396.64h1.06A28.816,28.816,0,0,1,496,425.45l-480,.127A28.918,28.918,0,0,1,44.8,396.64H466.14Z" style="fill:#80a4af"/><path d="M70.8,396.64h-26A28.861,28.861,0,0,0,16,425.577H42A28.861,28.861,0,0,1,70.8,396.64Z" style="fill:#6d8c93"/></svg>