<?xml version="1.0" encoding="utf-8"?>
<!-- Generator: Adobe Illustrator 26.5.3, SVG Export Plug-In . SVG Version: 6.00 Build 0)  -->
<svg version="1.1" id="Layer_1" xmlns="http://www.w3.org/2000/svg" xmlns:xlink="http://www.w3.org/1999/xlink" x="0px" y="0px"
	 viewBox="0 0 144 114.4" style="enable-background:new 0 0 144 114.4;" xml:space="preserve">
<style type="text/css">
	.st0{fill:#7F2D46;}
	.st1{fill:#EF6060;}
	.st2{fill:#FFD5B8;}
	.st3{fill:#EAC1A4;}
</style>
<g>
	<path class="st0" d="M106.5,60.13V6.27h3v53.86c0,0.05-0.01,0.09-0.01,0.13c-0.48-0.08-0.98-0.13-1.49-0.13s-1,0.05-1.49,0.13
		C106.51,60.22,106.5,60.18,106.5,60.13z M88.51,60.26c0.48-0.08,0.98-0.13,1.49-0.13s1,0.05,1.49,0.13c0-0.04,0.01-0.09,0.01-0.13
		V6.27h-3v53.86C88.5,60.18,88.51,60.22,88.51,60.26z M70.51,60.26c0.48-0.08,0.98-0.13,1.49-0.13s1,0.05,1.49,0.13
		c0-0.04,0.01-0.09,0.01-0.13V6.27h-3v53.86C70.5,60.18,70.51,60.22,70.51,60.26z M52.51,60.26c0.48-0.08,0.98-0.13,1.49-0.13
		s1,0.05,1.49,0.13c0-0.04,0.01-0.09,0.01-0.13V6.27h-3v53.86C52.5,60.18,52.51,60.22,52.51,60.26z M23.41,58.8
		c0.49,0.02,0.99,0.07,1.48,0.18s0.97,0.26,1.43,0.44c0.01-0.04,0.03-0.08,0.04-0.13L37.47,6.44c0.01-0.06,0.01-0.11,0.02-0.17
		h-3.05l-11.01,52.4C23.42,58.71,23.42,58.76,23.41,58.8z"/>
	<path class="st1" d="M131.46,6.27h6.27v101.86h-6.27V6.27z M12.54,6.27H6.27v101.86h6.27V6.27z"/>
	<path class="st2" d="M12.54,6.27H6.27H3.14C1.4,6.27,0,4.87,0,3.14C0,1.4,1.4,0,3.14,0h137.73C142.6,0,144,1.4,144,3.14
		c0,1.73-1.4,3.14-3.14,3.14h-3.14h-6.27H109.5h-3h-15h-3h-15h-3h-15h-3H37.49h-3.05H12.54z M140.87,108.13h-3.14h-6.27H12.54H6.27
		H3.13c-0.86,0-1.65,0.35-2.21,0.92C0.35,109.61,0,110.4,0,111.27c0,1.73,1.4,3.13,3.13,3.13h137.73c0.86,0,1.65-0.35,2.21-0.92
		c0.57-0.56,0.92-1.35,0.92-2.21C144,109.53,142.6,108.13,140.87,108.13z"/>
	<path class="st3" d="M108,60.13c0.51,0,1,0.05,1.49,0.13c4.26,0.71,7.51,4.4,7.51,8.87c0,4.97-4.03,9-9,9s-9-4.03-9-9
		c0-4.46,3.25-8.16,7.51-8.87C107,60.18,107.49,60.13,108,60.13z M91.49,60.26C91,60.18,90.51,60.13,90,60.13s-1,0.05-1.49,0.13
		c-4.26,0.71-7.51,4.4-7.51,8.87c0,4.97,4.03,9,9,9s9-4.03,9-9C99,64.67,95.75,60.97,91.49,60.26z M73.49,60.26
		C73,60.18,72.51,60.13,72,60.13s-1,0.05-1.49,0.13c-4.26,0.71-7.51,4.4-7.51,8.87c0,4.97,4.03,9,9,9s9-4.03,9-9
		C81,64.67,77.75,60.97,73.49,60.26z M55.49,60.26C55,60.18,54.51,60.13,54,60.13s-1,0.05-1.49,0.13c-4.26,0.71-7.51,4.4-7.51,8.87
		c0,4.97,4.03,9,9,9s9-4.03,9-9C63,64.67,59.75,60.97,55.49,60.26z M23.41,58.8c-4.32-0.18-8.26,2.76-9.18,7.13
		c-1.02,4.86,2.09,9.64,6.96,10.66c4.86,1.02,9.64-2.09,10.66-6.96c0.92-4.37-1.5-8.65-5.53-10.22c-0.46-0.18-0.93-0.33-1.43-0.44
		S23.9,58.82,23.41,58.8z"/>
</g>
</svg>
