<?xml version="1.0" encoding="utf-8"?>
<!-- Generator: Adobe Illustrator 24.3.0, SVG Export Plug-In . SVG Version: 6.00 Build 0)  -->
<svg version="1.1" id="Layer_1" xmlns="http://www.w3.org/2000/svg" xmlns:xlink="http://www.w3.org/1999/xlink" x="0px" y="0px"
	 viewBox="0 0 168 168" style="enable-background:new 0 0 168 168;" xml:space="preserve">
<style type="text/css">
	.st0{fill:#238A00;}
	.st1{fill:#4A4AFF;}
	.st2{fill:#FF3F4F;}
</style>
<path class="st0" d="M76,68.5c2.7,0.3,5.3,0.4,8,0.4s5.3-0.1,8-0.4V27c0-0.1,0-0.3,0-0.4c0-0.2,0-0.4,0-0.6c0-3.4-3.5-6-8-6
	s-8,2.6-8,6c0,0.2,0,0.4,0,0.6c0,0.1,0,0.3,0,0.4V68.5z M84,24c2.4,0,4,1.2,4,2s-1.6,2-4,2s-4-1.2-4-2S81.6,24,84,24z"/>
<path class="st1" d="M66.8,50.9c1.1-0.3,1.7-1.4,1.5-2.4c-0.3-1.1-1.4-1.7-2.4-1.5l0,0C54.6,49.9,48,55.1,48,61c0,9.1,15.5,16,36,16
	s36-6.9,36-16c0-4.9-4.4-9.3-12.5-12.3c-0.1,0-0.2-0.1-0.3-0.1l3.7-1.8c1-0.5,1.4-1.7,0.9-2.7s-1.7-1.4-2.7-0.9l-7.6,3.8
	c-1,0.5-1.4,1.7-0.9,2.7l3.6,7.2c0.5,1,1.7,1.4,2.7,0.9s1.4-1.7,0.9-2.7l-1.2-2.4c5.9,2.3,9.4,5.4,9.4,8.3c0,5.7-13.1,12-32,12
	s-32-6.3-32-12C52,57.1,57.8,53.2,66.8,50.9z"/>
<path class="st0" d="M76,80.6v36c5.3,0.6,10.7,0.6,16,0v-36c-2.6,0.2-5.3,0.4-8,0.4S78.6,80.8,76,80.6z"/>
<path class="st0" d="M84,148c3.3,0,6-1.4,7.3-3.5c0.5-0.4,0.7-0.9,0.7-1.5v-14.4c-2.6,0.2-5.3,0.4-8,0.4s-5.4-0.1-8-0.4V143
	c0,0.6,0.3,1.2,0.7,1.5C78,146.6,80.7,148,84,148z"/>
<path class="st2" d="M120,109c0-5.9-6.6-11.1-17.8-13.9c-1.1-0.3-2.2,0.4-2.4,1.5s0.4,2.2,1.5,2.4c9,2.3,14.8,6.2,14.8,10
	c0,5.7-13.1,12-32,12s-32-6.3-32-12c0-2.9,3.5-6,9.4-8.3l-1.2,2.4c-0.5,1-0.1,2.2,0.9,2.7s2.2,0.1,2.7-0.9l0,0l3.6-7.2
	c0.5-1,0.1-2.2-0.9-2.7L59,91.2c-1-0.5-2.2-0.1-2.7,0.9s-0.1,2.2,0.9,2.7l3.7,1.8c-0.1,0-0.2,0-0.3,0.1c-8.1,3-12.5,7.4-12.5,12.3
	c0,9.1,15.5,16,36,16S120,118.1,120,109z"/>
</svg>
