<?xml version="1.0" encoding="utf-8"?>
<!-- Generator: Adobe Illustrator 24.3.0, SVG Export Plug-In . SVG Version: 6.00 Build 0)  -->
<svg version="1.1" id="solid" xmlns="http://www.w3.org/2000/svg" xmlns:xlink="http://www.w3.org/1999/xlink" x="0px" y="0px"
	 viewBox="0 0 512 512" style="enable-background:new 0 0 512 512;" xml:space="preserve">
<style type="text/css">
	.st0{fill:#008CBF;}
	.st1{fill:#00B423;}
	.st2{fill:#FF1F26;}
</style>
<path class="st0" d="M483.3,395.3L462.7,385l8.6,25.7L392,371.1V228.9l-128,64v14.1v17.9v118.1L382.1,384v0l82,41l-25.7,8.5
	l20.6,10.3l36.4-12.1L483.3,395.3z M303.4,326.8L303.4,326.8l14.3,7.2v0l-7.2,14.3l-14.3-7.2L303.4,326.8L303.4,326.8z M281.9,333.9
	l-14.3-7.2l7.2-14.3l14.3,7.2L281.9,333.9L281.9,333.9z M324.9,355.4L324.9,355.4L324.9,355.4l7.2-14.3l14.3,7.2l-7.2,14.3
	L324.9,355.4z M357,371.4l-3.5-1.7l0,0l0,0l7.1-14.3l14.3,7.2l-7.1,14.3l-9.8-4.9L357,371.4z"/>
<path class="st1" d="M264,156.9V71l19.1,19.1v-23L256,40l-27.1,27.1v23L248,71v85.9L129.9,216L256,279.1L382.1,216L264,156.9z
	 M264,265.8h-16v-14.2h16V265.8z M264,237.3h-16v-14.2h16V237.3z M264,208.9h-16v-14.2h16V208.9z M264,180.4h-16v-14.2h16V180.4z"/>
<path class="st2" d="M248,292.9l-128-64v142.1l-79.3,39.7l8.6-25.7l-20.6,10.3l-12.1,36.4l36.4,12.1l20.6-10.3L47.8,425l82-41
	L248,443.1V324.9l-2.7,1.4l-7.2-14.3l9.9-4.9V292.9z M130.8,383.6l-7.2-14.3l14.3-7.2l7.2,14.3L130.8,383.6z M159.4,369.2l-7.2-14.3
	l14.3-7.2l7.2,14.3L159.4,369.2z M188,354.9l-7.2-14.3l14.3-7.2l7.2,14.3L188,354.9z M216.6,340.6l-7.1-14.3l14.3-7.2l7.1,14.3
	L216.6,340.6z"/>
</svg>
