<svg id="Layer_1" data-name="Layer 1" xmlns="http://www.w3.org/2000/svg" viewBox="0 0 512 512"><title>Ammeter</title><path d="M431.746,270.245a6,6,0,0,0-6,6v178a22.025,22.025,0,0,1-22,22h-76a22.025,22.025,0,0,1-22-22v-30h-12v30a34.039,34.039,0,0,0,34,34h76a34.038,34.038,0,0,0,34-34v-178A6,6,0,0,0,431.746,270.245Z" style="fill:#5b6375"/><path d="M381.746,246.245a6,6,0,0,0-6,6v178a22.025,22.025,0,0,1-22,22h-76a22.025,22.025,0,0,1-22-22h-12a34.039,34.039,0,0,0,34,34h76a34.038,34.038,0,0,0,34-34v-178A6,6,0,0,0,381.746,246.245Z" style="fill:#4a5160"/><path d="M345.24,69.76V392.73a40,40,0,0,1-40,40H106.25a40,40,0,0,1-40-40V69.76a40,40,0,0,1,40-40H305.24A40,40,0,0,1,345.24,69.76Z" style="fill:#3090fc"/><path d="M292.53,63.98H118.96a24,24,0,0,0-24,24V213.51H316.53V87.98A24,24,0,0,0,292.53,63.98Z" style="fill:#f9a83d"/><circle cx="204.75" cy="297.25" r="50.75" style="fill:#ccd3df"/><rect x="160.56" y="375.24" width="90.37" height="27" style="fill:#fb6771"/><path d="M86.25,392.73V69.76a40,40,0,0,1,40-40h-20a40,40,0,0,0-40,40V392.73a40,40,0,0,0,40,40h20A40,40,0,0,1,86.25,392.73Z" style="fill:#49bdff"/><path d="M148.96,63.98h-30a24,24,0,0,0-24,24V213.51h30V87.98A24,24,0,0,1,148.96,63.98Z" style="fill:#ffcd8a"/><path d="M205.75,117.96a99.542,99.542,0,0,0-99.47,95.55H305.21A99.533,99.533,0,0,0,205.75,117.96Z" style="fill:#6d7486"/><path d="M106.28,213.51h30a99.564,99.564,0,0,1,84.47-94.425A99.624,99.624,0,0,0,106.28,213.51Z" style="fill:#b0b5ca"/><path d="M205.746,143.8a6,6,0,0,1-6-6V126.354a6,6,0,0,1,12,0V137.8A6,6,0,0,1,205.746,143.8Z" style="fill:#4a5160"/><path d="M149.381,167.149a5.984,5.984,0,0,1-4.243-1.757l-8.095-8.1a6,6,0,0,1,8.485-8.485l8.1,8.1a6,6,0,0,1-4.243,10.242Z" style="fill:#4a5160"/><path d="M262.112,167.149a6,6,0,0,1-4.243-10.242l8.095-8.1a6,6,0,1,1,8.486,8.485l-8.095,8.1A5.986,5.986,0,0,1,262.112,167.149Z" style="fill:#4a5160"/><path d="M131.818,193.7a5.973,5.973,0,0,1-2.242-.437l-10.618-4.282a6,6,0,0,1,4.489-11.129l10.617,4.282a6,6,0,0,1-2.246,11.566Z" style="fill:#4a5160"/><path d="M235.56,149.589A6,6,0,0,1,230,141.344l4.282-10.617a6,6,0,1,1,11.129,4.488l-4.282,10.617A6,6,0,0,1,235.56,149.589Z" style="fill:#4a5160"/><path d="M174.558,150.159a6,6,0,0,1-5.524-3.654l-4.48-10.535a6,6,0,0,1,11.043-4.7l4.48,10.536a6,6,0,0,1-5.519,8.349Z" style="fill:#4a5160"/><path d="M279.106,192.325a6,6,0,0,1-2.351-11.523l10.536-4.48a6,6,0,1,1,4.7,11.043l-10.536,4.48A5.976,5.976,0,0,1,279.106,192.325Z" style="fill:#4a5160"/><path d="M212.416,201.247a6,6,0,0,1-5.545-8.288l15.328-37.2a6,6,0,0,1,11.1,4.573l-15.328,37.2A6,6,0,0,1,212.416,201.247Z" style="fill:#fb6771"/><path d="M431.746,200.245a6,6,0,0,1-6-6v-48a6,6,0,0,1,12,0v48A6,6,0,0,1,431.746,200.245Z" style="fill:#d4e1f4"/><path d="M381.746,178.245a6,6,0,0,1-6-6v-48a6,6,0,0,1,12,0v48A6,6,0,0,1,381.746,178.245Z" style="fill:#d4e1f4"/><path d="M106.254,420.735a28.031,28.031,0,0,1-28-28V317.667a6,6,0,0,1,12,0v75.068a16.018,16.018,0,0,0,16,16,6,6,0,1,1,0,12Z" style="fill:#f4f8fc"/><path d="M84.254,306.048a6,6,0,0,1-6-6V293a6,6,0,0,1,12,0v7.048A6,6,0,0,1,84.254,306.048Z" style="fill:#f4f8fc"/><path d="M445.75,223.24v39a14,14,0,0,1-28,0v-39Z" style="fill:#fb6771"/><rect x="417.75" y="194.24" width="28" height="29" style="fill:#b8c8e0"/><rect x="367.75" y="172.24" width="28" height="29" style="fill:#b8c8e0"/><path d="M395.75,201.24v39a14,14,0,0,1-28,0v-39Z" style="fill:#fb6771"/><path d="M180,297.25a50.765,50.765,0,0,1,37.75-49.062,50.75,50.75,0,1,0,0,98.124A50.765,50.765,0,0,1,180,297.25Z" style="fill:#e5edf9"/><path d="M249.91,253.08a13.411,13.411,0,0,1,0,19.01l-.38.39-68.55,68.55-.38.38a13.446,13.446,0,0,1-19.02-19.01l.41-.4,68.53-68.53.38-.39A13.441,13.441,0,0,1,249.91,253.08Z" style="fill:#b0b5ca"/><path d="M228.61,213.51H182.88a23.213,23.213,0,0,1,45.73,0Z" style="fill:#b0b5ca"/></svg>