<?xml version="1.0" encoding="utf-8"?>
<!-- Generator: Adobe Illustrator 24.3.0, SVG Export Plug-In . SVG Version: 6.00 Build 0)  -->
<svg version="1.1" id="Layer_1" xmlns="http://www.w3.org/2000/svg" xmlns:xlink="http://www.w3.org/1999/xlink" x="0px" y="0px"
	 viewBox="0 0 1417.3 1417.3" style="enable-background:new 0 0 1417.3 1417.3;" xml:space="preserve">
<style type="text/css">
	.st0{fill:#ECFF6A;stroke:#535F00;stroke-width:5;stroke-miterlimit:10;}
</style>
<g id="Слой_x0020_1">
	<path class="st0" d="M59.6,677.5c-0.8-84.6,7.5-154.8,24.3-204.9c18.5-55.3,77.4-124.3,131.2-68.6c34.8-31.7,79.3-28.5,106.7,10.5
		c34.1-40,85.4-45.4,117.2,0.6c33.7-41.5,85.6-54.1,116.1-1.1c34.2-39.7,85.2-44.7,116.9,1.1c60.2-74.2,122-25.6,133.2,53.1h552.5
		c0,40.2,0,80.3,0,120.5c-30.4,37.6-60.7,75.1-91.1,112.7H807.5v232H553.1c0,8.7,0.5,18.4-0.4,27c-11.3,105.4-230.3,104.5-238.2-2.5
		c-0.6-7.9-0.1-16.6-0.1-24.6h-254C60.1,848.2,60.4,762.8,59.6,677.5L59.6,677.5z M434.4,891.7l19.7-27.6c3.5-4.9,11,0.4,7.5,5.3
		l-18.5,25.9c2.1,1.8,3.6,4,4.2,5.9h61.9c-1.6-12.6-9.4-24-21.4-32.6c-29.8-21.4-78.7-21.4-108.5,0c-11.9,8.6-19.8,20-21.4,32.6
		h61.9c1.4-4,6.6-9.6,13.7-9.6C433.9,891.7,434.1,891.7,434.4,891.7L434.4,891.7z M493.2,861.2c15.8,11.3,25.5,27.1,25.5,44.7v4.6
		H348.5v-4.6c0-17.6,9.8-33.3,25.5-44.7C407.1,837.4,460.1,837.4,493.2,861.2z M537.6,943.6c-45.6,59.4-162.4,59.4-208.1,0
		c0,5.2-0.2,10.3,0.4,15.5c9.8,85.5,195.1,86,207.1,1.6C537.8,955,537.6,949.3,537.6,943.6z M553.1,900.2v17.9h239V701.5h-38.4
		h-37.6c-3.7,88.2-84.7,80.1-96.7,0h-12.3c-3.8,79.2-88.5,78.7-100.7,0h-23.2c-3.7,88.2-84.7,80.1-96.7,0h-12.3
		c-3.8,79.2-88.5,78.7-100.7,0h-16.1c-3.9,81.5-93.5,78.5-101.6-7c-13.8-146.8,12.4-236.1,48.6-279.2
		c-45.8-47.7-92.5,22.1-105.9,62.3c-16.1,48.1-24.2,116-23.6,198c0.6,80.8,0.5,161.7,0.8,242.6h238.7c0-6-0.2-12-0.2-17.9
		c0-24.8,13.7-47.1,36-63c46.4-33.3,120.6-33.3,167,0C539.3,853.1,553.1,875.4,553.1,900.2z M329.8,905.1c9,92.2,207.8,87.5,207.8-5
		c0-19.6-11.3-37.5-29.5-50.6c-40.9-29.4-108.1-29.4-149.1,0C338.1,864.6,329.9,880.1,329.8,905.1L329.8,905.1z M236.6,538
		c-2.1-54.2-10.5-88.9-22.7-110c-32.8,41.4-55.8,126.1-42.8,265.1c6.1,65.2,67.5,71,70.9,8.4h-37.8V591.4l0,0v-2.7v-5
		c0-0.2,0-0.5,0-0.7v-6.6L236.6,538L236.6,538z M224.6,416.2c18.4,28.4,24.2,71.6,26.4,104.6l37.8-44.8
		c6.6-19.4,14.5-35.5,23.2-48.5C290.4,392.5,254.4,388.5,224.6,416.2L224.6,416.2z M326.7,468.3c-1.6-9-3.8-17.2-6.7-24.6
		c-4.3,7.3-8.3,15.5-12.1,24.6H326.7L326.7,468.3z M330.2,428.6c5.6,11.3,9.8,24.6,12.1,39.7H409c6.1-15.3,13-28.6,20.4-39.9
		C402.7,384,358.9,391.8,330.2,428.6z M443.5,468.3c-1.5-8.5-3.6-16.4-6.3-23.5c-4.2,7.1-8.1,14.9-11.8,23.5H443.5L443.5,468.3z
		 M302.2,484c-8.1,24.8-14,55.3-16.6,92h99.2c3.3-35.6,9.8-66.3,18.5-92.3H302.4L302.2,484L302.2,484z M284.7,591.4
		c-1.2,28.2-0.5,59.6,2.5,94.7h97.7c-2.8-34.4-3.1-66-1.3-94.7H284.7z M289,701.5c10.2,57.2,66.5,59.7,69.8,0H289z M271.8,686.1
		c-2.9-34.8-3.6-66.3-2.4-94.7h-49.9v94.7H271.8z M270.3,576c1.7-23.9,4.7-45.4,8.8-64.6L224.7,576H270.3z M447.4,429.5
		c5.4,11.2,9.4,24.1,11.7,38.8h65.4c6-16,12.9-29.5,20.5-40.8C519.9,375.5,475.7,391.5,447.4,429.5z M556.8,468.3
		c-1.3-8.3-2.9-15.8-4.9-22.7c-3.9,6.8-7.6,14.4-10.9,22.7H556.8z M419.4,483.7c-9.1,25.4-15.9,56.2-19.3,92.3h103.1
		c2.5-36.2,8.2-66.8,16-92.3H419.4z M398.9,591.4c-1.8,28.5-1.5,60.1,1.4,94.7h104.5c-2.9-34.8-3.6-66.3-2.4-94.7H398.9z
		 M402.1,701.5c9.9,58.5,62.5,68.6,65.7,0H402.1L402.1,701.5z M562.5,429.4c4.4,11.1,7.7,24.1,9.8,38.9h69.6
		c6.1-15.3,13-28.6,20.4-39.9C635.3,383.4,591.1,392.1,562.5,429.4z M676.4,468.3c-1.5-8.5-3.6-16.4-6.3-23.5
		c-4.2,7.1-8.1,14.9-11.8,23.5H676.4z M535.2,483.7c-8.2,24.9-14.1,55.5-16.7,92.3h99.2c3.3-35.6,9.8-66.3,18.5-92.3H535.2z
		 M517.7,591.4c-1.2,28.2-0.5,59.6,2.5,94.7h97.7c-2.8-34.4-3.1-66-1.3-94.7H517.7L517.7,591.4z M522,701.5
		c10.2,57.2,66.5,59.7,69.8,0H522z M680.3,429.5c5.4,11.2,9.4,24.1,11.7,38.8h97.7C778.9,397.5,729.5,363.5,680.3,429.5L680.3,429.5
		z M652.4,483.7c-9.1,25.4-15.9,56.2-19.3,92.3h118.2l83-92.3H652.4z M631.9,591.4c-1.8,28.5-1.5,60.1,1.4,94.7H746v-94.7H631.9
		L631.9,591.4z M635,701.5c9.9,58.5,62.5,68.6,65.7,0H635z M855,483.7L772,576h487.6l82-92.3H855L855,483.7z M761.4,591.4v94.7h494
		v-94.7H761.4z M1270.8,586.6V672l71.6-88.6V506L1270.8,586.6z"/>
</g>
</svg>
