<svg id="Layer_1" data-name="Layer 1" xmlns="http://www.w3.org/2000/svg" viewBox="0 0 512 512"><rect x="450.54" y="65.79" width="45.46" height="26.56" style="fill:#d8a43d"/><circle cx="399.57" cy="184.88" r="40.32" style="fill:#4ca987"/><circle cx="112.43" cy="184.88" r="40.32" style="fill:#f3ce7d"/><rect x="16" y="65.79" width="47.24" height="26.56" style="fill:#d8a43d"/><path d="M420.32,55.94c-81.93,0-148.58,66.65-148.58,148.57V456.06h49.83V204.51a98.863,98.863,0,0,1,98.75-98.75h32.22V55.94Z" style="fill:#e87187"/><path d="M93.46,55.94H61.24v49.82H93.46a98.863,98.863,0,0,1,98.75,98.75V456.06h49.83V204.51C242.04,122.59,175.39,55.94,93.46,55.94Z" style="fill:#4689d3"/><path d="M123.46,105.76h-30a98.863,98.863,0,0,1,98.75,98.75V456.06h30V204.51A98.863,98.863,0,0,0,123.46,105.76Z" style="fill:#386fa0"/><path d="M129.767,178.881H118.433V167.547a6,6,0,0,0-12,0v11.334H95.1a6,6,0,0,0,0,12h11.333v11.333a6,6,0,0,0,12,0V190.881h11.334a6,6,0,0,0,0-12Z" style="fill:#d8a43d"/><path d="M416.9,190.881H382.233a6,6,0,0,1,0-12H416.9a6,6,0,0,1,0,12Z" style="fill:#3c8265"/><path d="M171.128,434.531a6,6,0,0,1-6-6V359.21a6,6,0,0,1,12,0v69.321A6,6,0,0,1,171.128,434.531Z" style="fill:#d4e1f4"/><path d="M171.128,343.873a6,6,0,0,1-6-6V331.6a6,6,0,0,1,12,0v6.269A6,6,0,0,1,171.128,343.873Z" style="fill:#d4e1f4"/></svg>