<?xml version="1.0" encoding="UTF-8"?><svg id="Flat" xmlns="http://www.w3.org/2000/svg" viewBox="0 0 64 64"><defs><style>.cls-1{fill:#f5bb2d;}.cls-2{fill:#f5672f;}.cls-3{fill:#6ebed7;}.cls-4{fill:#76a671;}.cls-5{fill:#bcbec0;}.cls-6{fill:#2b80ba;}</style></defs><path class="cls-5" d="M3,13H61c1.10383,0,2,.89617,2,2V58c0,3.31149-2.68851,6-6,6H7c-3.31149,0-6-2.68851-6-6V15c0-1.10383,.89617-2,2-2Z"/><path class="cls-3" d="M63,20V58c0,3.31-2.69,6-6,6H7c-3.31,0-6-2.69-6-6V20c3.09998,0,3.09998,2,6.19,2,3.09998,0,3.09998-2,6.20001-2s3.09998,2,6.20001,2,3.09998-2,6.19995-2,3.10004,2,6.20001,2,3.10004-2,6.20001-2,3.09998,2,6.19,2c3.10999,0,3.10999-2,6.21002-2s3.09998,2,6.19995,2c3.11005,0,3.11005-2,6.21002-2Z"/><g><path class="cls-6" d="M25,3h-9c-1.6543,0-3,1.3457-3,3V29h2V6c0-.55127,.44824-1,1-1h9v2h2V1h-2V3Z"/><rect class="cls-6" x="29" width="2" height="8"/><path class="cls-6" d="M48,3h-9V1h-2V7h2v-2h9c.55176,0,1,.44873,1,1V29h2V6c0-1.6543-1.3457-3-3-3Z"/><rect class="cls-6" x="33" width="2" height="8"/></g><g><rect class="cls-4" x="9" y="27" width="10" height="22" rx="3" ry="3"/><rect class="cls-1" x="11" y="32" width="6" height="2"/></g><g><rect class="cls-1" x="45" y="27" width="10" height="22" rx="3" ry="3" transform="translate(100 76) rotate(-180)"/><polygon class="cls-2" points="53 32 51 32 51 30 49 30 49 32 47 32 47 34 49 34 49 36 51 36 51 34 53 34 53 32"/></g><g><circle class="cls-1" cx="24" cy="43" r="5"/><polygon class="cls-2" points="27 42 25 42 25 40 23 40 23 42 21 42 21 44 23 44 23 46 25 46 25 44 27 44 27 42"/></g><g><circle class="cls-1" cx="11" cy="54" r="5"/><polygon class="cls-2" points="14 53 12 53 12 51 10 51 10 53 8 53 8 55 10 55 10 57 12 57 12 55 14 55 14 53"/></g><g><circle class="cls-4" cx="40" cy="43" r="5"/><rect class="cls-1" x="37" y="42" width="6" height="2"/></g><g><circle class="cls-4" cx="53" cy="54" r="5"/><rect class="cls-1" x="50" y="53" width="6" height="2"/></g></svg>