<?xml version="1.0" encoding="utf-8"?>
<!-- Generator: Adobe Illustrator 24.3.0, SVG Export Plug-In . SVG Version: 6.00 Build 0)  -->
<svg version="1.1" id="Layer_1" xmlns:xodm="http://www.corel.com/coreldraw/odm/2003"
	 xmlns="http://www.w3.org/2000/svg" xmlns:xlink="http://www.w3.org/1999/xlink" x="0px" y="0px" viewBox="0 0 512 512"
	 style="enable-background:new 0 0 512 512;" xml:space="preserve">
<style type="text/css">
	.st0{fill-rule:evenodd;clip-rule:evenodd;fill:#FFFFFF;}
</style>
<g id="Layer_x0020_1">
	<path class="st0" d="M246.9,176.3c0.3-0.4,0.6-0.8,0.9-1.1l2.7-3.5l0.3,0.3c0.6-0.6,1.3-1.2,1.9-1.8c4.6-4.2,10.1-7.8,15.9-10.2
		c21.3-8.8,41.3-0.2,56.8,15.3c6.3,6.3,14.9,12.5,24.2,11.9c7-0.5,14.9-5.2,19.2-10.7c8.2-10.8,22.8-19,36.3-19.8
		c16.6-1.1,31,7.4,42.4,18.7c6.3,6.3,14.8,12.5,24.2,11.9c7-0.4,15-5.3,19.4-10.8c4-5.1,11.3-6,16.4-2.1c5.1,3.9,6.1,11.3,2.1,16.4
		c-8.3,10.8-22.8,19-36.3,19.9c-16.6,1.1-31-7.3-42.4-18.7c-6.3-6.3-14.8-12.5-24.2-11.9c-7,0.4-15,5.3-19.4,10.8
		c-8.3,10.8-22.7,18.9-36.3,19.8c-16.6,1.1-31-7.3-42.4-18.7c-6.3-6.3-14.8-12.5-24.2-11.9c-7,0.5-14.9,5.2-19.2,10.7l-0.2,0.2
		c-0.3,0.4-0.6,0.8-0.9,1.1l-2.5,3.2l-0.3-0.2c-0.7,0.7-1.4,1.4-2.1,2c-4.6,4.2-10.1,7.8-15.9,10.2c-5.5,2.3-11.4,3.5-17.4,3.5
		c-15.5,0-28.8-8.2-39.4-18.8c-6.3-6.3-14.8-12.5-24.2-11.9c-7.1,0.4-15,5.3-19.4,10.8c-8.4,10.8-22.6,18.9-36.2,19.8
		c-16.6,1.1-31-7.4-42.4-18.7c-6.3-6.3-14.8-12.5-24.2-11.9c-7,0.5-14.9,5.2-19.2,10.7c-3.9,5.1-11.3,6.1-16.4,2.2
		s-6.1-11.3-2.2-16.4c8.3-10.8,22.8-19,36.3-19.9c16.6-1.1,31,7.3,42.4,18.7c6.3,6.3,14.8,12.5,24.2,11.9c7-0.5,14.9-5.2,19.2-10.7
		c8.2-10.8,22.8-19,36.3-19.8c16.6-1.1,30.9,7.3,42.4,18.7c6.3,6.3,14.8,12.5,24.2,11.9c7-0.5,14.9-5.2,19.2-10.7L246.9,176.3
		L246.9,176.3z M247,31.4c0.1-0.1,0.2-0.2,0.3-0.4l2.9-3.9l0.3,0.3c0.7-0.7,1.4-1.4,2.1-2c4.6-4.2,10.1-7.8,15.9-10.2
		c21.3-8.8,41.3-0.2,56.8,15.3c6.3,6.3,14.8,12.5,24.2,11.9c7-0.4,15-5.3,19.4-10.8c8.4-10.8,22.6-18.9,36.3-19.8
		c16.6-1.1,31,7.3,42.4,18.7c6.3,6.3,14.8,12.5,24.2,11.9c7.1-0.4,15-5.3,19.4-10.8c4-5.1,11.3-6,16.4-2.1
		c5.1,3.9,6.1,11.3,2.1,16.4c-8.3,10.8-22.8,19-36.3,19.8c-16.6,1.1-31-7.3-42.4-18.7c-6.3-6.3-14.8-12.5-24.2-11.9
		c-7,0.4-15,5.3-19.4,10.8c-8.3,10.8-22.7,18.9-36.3,19.8c-16.6,1.1-31-7.3-42.4-18.7c-6.3-6.3-14.8-12.5-24.2-11.9
		c-7,0.5-14.9,5.2-19.2,10.7l-0.2,0.2c-0.3,0.4-0.6,0.8-0.9,1.1l-2.7,3.5l-0.3-0.3c-0.6,0.6-1.3,1.2-1.9,1.8
		c-4.6,4.2-10.1,7.8-15.9,10.2c-5.5,2.3-11.4,3.5-17.4,3.5c-15.5,0-28.8-8.2-39.4-18.8c-6.3-6.3-14.9-12.5-24.2-11.9
		c-7,0.5-14.9,5.2-19.2,10.7c-8.2,10.8-22.8,19-36.3,19.8c-16.6,1.1-31-7.3-42.4-18.7c-6.3-6.3-14.8-12.5-24.2-11.9
		c-7.1,0.4-15,5.3-19.4,10.8c-4,5.1-11.3,6-16.4,2.1c-5.1-4-6.1-11.3-2.1-16.4c8.3-10.8,22.8-19,36.3-19.9
		c16.6-1.1,31,7.4,42.4,18.7c6.3,6.3,14.8,12.5,24.2,11.9c7.1-0.4,15-5.3,19.4-10.8C133,21,147.2,12.8,160.9,12
		c16.6-1.1,31,7.3,42.4,18.7c6.3,6.3,14.9,12.5,24.2,11.9c7-0.5,14.9-5.2,19.2-10.7L247,31.4L247,31.4z M250.6,461.6
		c0.7-0.7,1.4-1.3,2.1-2c4.6-4.2,10.1-7.8,15.9-10.2c21.3-8.8,41.3-0.2,56.8,15.3c6.3,6.3,14.8,12.5,24.2,11.9
		c7-0.4,15-5.3,19.4-10.8c8.3-10.8,22.7-18.9,36.3-19.8c16.6-1.1,31,7.4,42.4,18.7c6.3,6.3,14.8,12.5,24.2,11.9
		c7.1-0.4,15-5.3,19.4-10.8c4-5.1,11.3-6,16.4-2.1c5.1,3.9,6.1,11.3,2.1,16.4c-8.3,10.8-22.8,19-36.3,19.9
		c-16.6,1.1-31-7.3-42.4-18.7c-6.3-6.3-14.8-12.5-24.2-11.9c-7.1,0.4-15,5.3-19.4,10.8c-8.3,10.8-22.7,18.9-36.3,19.8
		c-16.6,1.1-31-7.3-42.4-18.7c-6.3-6.3-14.8-12.5-24.2-11.9c-7,0.5-14.9,5.2-19.2,10.7l-0.2,0.3c-0.2,0.3-0.4,0.6-0.6,0.9l-2.9,3.7
		l-0.3-0.3c-0.6,0.6-1.3,1.2-1.9,1.8c-4.6,4.2-10.1,7.8-15.9,10.2c-5.5,2.3-11.4,3.5-17.4,3.5c-15.5,0-28.8-8.2-39.4-18.8
		c-6.3-6.3-14.8-12.5-24.2-11.9c-7.1,0.4-15,5.3-19.4,10.8c-8.4,10.8-22.6,18.9-36.2,19.8c-16.6,1.1-31-7.3-42.4-18.7
		c-6.3-6.3-14.8-12.5-24.2-11.9c-7.1,0.4-15,5.3-19.4,10.8c-4,5.1-11.3,6-16.4,2.1c-5.1-4-6.1-11.3-2.1-16.4
		c8.3-10.8,22.8-19,36.3-19.9c16.6-1.1,31,7.3,42.4,18.7c6.3,6.3,14.8,12.5,24.2,11.9c7.1-0.4,15-5.3,19.3-10.8
		c8.4-10.8,22.6-18.9,36.3-19.8c16.6-1.1,31,7.3,42.4,18.7c6.3,6.3,14.8,12.5,24.2,11.9c7-0.5,14.9-5.2,19.2-10.7l3.6-4.8
		L250.6,461.6L250.6,461.6z M247.1,320.7c0,0,0.1-0.1,0.1-0.1l3.1-4l0.3,0.3c0.7-0.7,1.4-1.3,2.1-2c4.6-4.2,10.1-7.8,15.9-10.2
		c21.3-8.8,41.3-0.2,56.8,15.3c6.3,6.3,14.8,12.5,24.2,11.9c7-0.4,15-5.3,19.3-10.8c8.3-10.8,22.7-18.9,36.3-19.8
		c16.6-1.1,31,7.4,42.4,18.7c6.3,6.3,14.8,12.5,24.2,11.9c7.1-0.4,15-5.3,19.4-10.8c4-5.1,11.3-6,16.4-2.1
		c5.1,3.9,6.1,11.3,2.1,16.4c-8.3,10.8-22.8,19-36.3,19.9c-16.6,1.1-31-7.4-42.4-18.7c-6.3-6.3-14.8-12.5-24.2-11.9
		c-7,0.5-14.9,5.2-19.2,10.7c-8.2,10.8-22.8,18.9-36.3,19.8c-16.6,1.1-31-7.3-42.4-18.7c-6.3-6.3-14.8-12.5-24.2-11.9
		c-7,0.5-14.9,5.2-19.2,10.7l-0.2,0.2c-0.3,0.4-0.6,0.8-0.9,1.1l-2.5,3.2l-0.3-0.2c-0.7,0.7-1.4,1.4-2.1,2
		c-4.6,4.2-10.1,7.8-15.9,10.2c-5.5,2.3-11.4,3.5-17.4,3.5c-15.5,0-28.8-8.2-39.4-18.8c-6.3-6.3-14.8-12.5-24.2-11.9
		c-7.1,0.4-15,5.3-19.4,10.8c-8.3,10.8-22.7,18.9-36.3,19.8c-16.6,1.1-31-7.3-42.4-18.7c-6.3-6.3-14.8-12.5-24.2-11.9
		c-7,0.5-14.9,5.2-19.2,10.7c-3.9,5.1-11.3,6.1-16.4,2.1s-6.1-11.3-2.2-16.4c8.3-10.8,22.8-19,36.3-19.9c16.6-1.1,31,7.3,42.4,18.7
		c6.3,6.3,14.8,12.5,24.2,11.9c7.1-0.4,15-5.3,19.4-10.8c8.4-10.8,22.6-18.9,36.3-19.8c16.6-1.1,30.9,7.3,42.4,18.7
		c6.3,6.3,14.8,12.5,24.2,11.9c7-0.5,14.9-5.2,19.2-10.7L247.1,320.7L247.1,320.7z"/>
</g>
</svg>
