<?xml version="1.0" encoding="UTF-8"?>
<!DOCTYPE svg PUBLIC "-//W3C//DTD SVG 1.1//EN" "http://www.w3.org/Graphics/SVG/1.1/DTD/svg11.dtd">
<!-- Creator: CorelDRAW 2019 (64-Bit Evaluation Version) -->
<svg xmlns="http://www.w3.org/2000/svg" xml:space="preserve" width="1.38889in" height="1.38889in" version="1.1" style="shape-rendering:geometricPrecision; text-rendering:geometricPrecision; image-rendering:optimizeQuality; fill-rule:evenodd; clip-rule:evenodd"
viewBox="0 0 1388.89 1388.89"
 xmlns:xlink="http://www.w3.org/1999/xlink"
 xmlns:xodm="http://www.corel.com/coreldraw/odm/2003">
 <defs>
  <style type="text/css">
   <![CDATA[
    .fil0 {fill:black}
   ]]>
  </style>
 </defs>
 <g id="Layer_x0020_1">
  <metadata id="CorelCorpID_0Corel-Layer"/>
  <path class="fil0" d="M329.61 110.24c17.22,217.7 14.73,529.97 -162.31,598.71 194.04,-42.59 203.63,-380.01 202.91,-623.2l-40.6 24.5zm-321.86 770.72c25.56,-74.85 67.41,-134.27 132.83,-159.67 -65.82,14.44 -110.42,62.81 -140.59,129.92l7.76 29.75zm46.03 120.04c16.83,-129.92 60.4,-244.81 158.9,-283.06 -99.69,21.89 -149.55,123.42 -175.16,247.43l16.26 35.62zm64.13 104.58c0.62,-13.7 1.48,-27.37 2.6,-40.91 9.96,-154.55 49.11,-305.34 164.27,-350.06 -121.02,26.57 -167.37,172.49 -187.24,330.09 -1.3,8.79 -2.5,17.67 -3.59,26.61l23.97 34.28zm71.31 83.06c-0.39,-36.87 0.49,-75.51 3.34,-112.16 8.27,-158.85 45.42,-319.05 164.31,-365.21 -125.63,27.58 -169.88,185.26 -188.37,348.73 -4.54,31.46 -7.69,64.06 -9.86,96.86l30.57 31.78zm74.39 63.85c-2.54,-53.2 -2.96,-109.57 1,-164.2 6.57,-163.13 41.74,-332.74 164.37,-380.35 -130.25,28.59 -172.39,198.02 -189.49,367.37 -6.69,47.8 -10.11,98.22 -11.81,147.8l35.93 29.39zm75.22 47.16c-4.43,-62.56 -6.64,-132.3 -2.17,-199.55 4.87,-167.42 38.06,-346.44 164.42,-395.5 -134.87,29.6 -174.89,210.8 -190.6,386.02 -8.12,60.12 -10.98,124.36 -11.88,185.39l40.23 23.65zm75.37 37.18c-5.95,-67.76 -10.11,-147.85 -5.49,-224.93 3.18,-171.71 34.39,-360.15 164.46,-410.65 -139.48,30.61 -177.39,223.57 -191.72,404.66 -8.92,68.85 -10.85,143.06 -11.07,210.8l43.82 20.11zm74.83 25.78c-6.82,-69.21 -12.68,-155.63 -8.27,-238.89 1.48,-176 30.71,-373.85 164.51,-425.8 -144.09,31.63 -179.9,236.35 -192.85,423.3 -9.23,74.74 -10.11,155.68 -9.92,226.58l46.53 14.81zm74.13 16.55c-7.17,-68.26 -14.24,-157.39 -10.35,-243.63 -0.21,-180.29 27.04,-387.55 164.56,-440.95 -148.7,32.64 -182.4,249.12 -193.97,441.94 -9.05,77.58 -9.05,161.67 -8.7,232.73l48.46 9.91zm73.4 8.76c-7.16,-65.9 -14.85,-154.38 -11.68,-240.57 -1.92,-184.59 23.35,-401.26 164.6,-456.11 -153.32,33.66 -184.91,261.89 -195.09,460.59 -8.49,77.89 -7.83,162.06 -7.5,231.28l49.67 4.81zm72.57 0.97c-6.87,-62.63 -14.46,-146.87 -12.2,-229.73 -3.61,-188.87 19.67,-414.95 164.65,-471.24 -157.93,34.66 -187.42,274.66 -196.21,479.22 -7.54,75.19 -6.62,155.79 -6.33,221.44l50.1 0.31zm71.76 -6.44c-6.37,-58.54 -13.18,-135.2 -11.92,-211.48 -5.31,-193.16 15.99,-428.65 164.7,-486.39 -162.55,35.68 -189.92,287.43 -197.33,497.86 -6.3,69.87 -5.45,143.87 -5.2,204.69l49.75 -4.68zm71.02 -13.37c-5.62,-53.19 -11.19,-119.52 -10.89,-186.3 -7.01,-197.44 12.31,-442.35 164.75,-501.54 -167.17,36.69 -192.43,300.2 -198.45,516.49 -4.85,61.87 -4.35,126.36 -4.11,180.91l48.7 -9.57zm70.22 -21.65c-4.5,-45.5 -8.56,-98.69 -9.06,-152.83 -8.7,-201.73 8.63,-456.05 164.79,-516.68 -171.78,37.7 -194.93,312.97 -199.57,535.14 -3.3,51.17 -3.24,103.49 -3.04,149.77l46.87 -15.39zm69.65 -29.09c-3.09,-34.75 -5.69,-72.88 -6.65,-111.94 -10.41,-206.02 4.94,-469.75 164.83,-531.83 -176.39,38.71 -197.44,325.74 -200.7,553.78 -1.77,37.3 -2.04,74.73 -1.98,109.6l44.5 -19.62zm69.07 -38.79c-1.5,-19.78 -2.77,-40.34 -3.67,-61.33 -12.1,-210.31 1.27,-483.44 164.89,-546.98 -181,39.73 -199.94,338.52 -201.81,572.43 -0.56,20.48 -0.79,40.8 -0.87,60.55l41.47 -24.66zm68.37 -49.52c-13.8,-214.6 -2.4,-497.15 164.94,-562.13 -185.62,40.74 -202.45,351.29 -202.94,591.06 13.18,-9.13 27.15,-19.56 38,-28.93zm244.96 -621.84c-21.59,26.62 -48.04,47.21 -80.28,59.72 32.56,-7.15 59.92,-22.59 82.91,-44.5l-2.64 -15.22zm7.14 -108.14c-25.56,74.82 -67.15,133.45 -132.55,158.85 65.48,-14.37 109.96,-62.31 140.11,-128.88l-7.56 -29.97zm-45.15 -116.13c-17.52,128.95 -62.08,240.5 -159.5,278.32 98.76,-21.68 149.75,-119.74 175.9,-242.89l-16.4 -35.43zm-63.36 -102.72c-6.2,170.11 -44.79,336.44 -168.23,384.37 126.03,-27.66 174.25,-179.7 192.36,-349.52l-24.13 -34.85zm-71.65 -82.06c4.03,197.09 -23.84,413.54 -168.68,469.78 147.53,-32.38 188.42,-235.2 199.24,-437.44l-30.56 -32.33zm-74.3 -62.74c11.08,210.76 -5.89,473.5 -166.48,535.86 164.7,-36.15 196.51,-284.72 201.93,-507.79l-35.44 -28.07zm-75.42 -48.49c16.24,217.07 10.91,520.09 -163.16,587.69 178.65,-39.22 200.94,-327.98 202.8,-563.4l-39.64 -24.28zm-75.37 -36.37c19.52,217.89 25.09,555.57 -159.88,627.39 189.91,-41.69 203.13,-365.81 202.94,-607.6l-43.06 -19.79zm-74.79 -25.29c21.33,215.61 36.1,580.97 -157.19,656.02 198.82,-43.64 203.98,-396.85 202.84,-641.05l-45.65 -14.97zm-74.14 -16.66c22.23,212.21 44.26,598.59 -155.15,676.01 205.73,-45.15 204.11,-421.74 202.71,-666.06l-47.56 -9.96zm-73.36 -8.62c22.56,209.3 49.33,609.07 -153.89,687.97 210.52,-46.2 203.93,-439.44 202.62,-682.89l-48.73 -5.08zm-72.53 -0.6c22.65,208.18 51.04,612.51 -153.45,691.91 213.24,-46.8 203.72,-449.68 202.57,-692.27l-49.12 0.37zm-71.75 6.57c22.59,209.11 49.64,609.68 -153.8,688.68 213.73,-46.92 203.66,-451.55 202.56,-693.95l-48.76 5.28zm-71 13.65c22.31,211.69 45.24,600.65 -154.91,678.36 212.19,-46.57 203.81,-445.7 202.59,-688.65l-47.68 10.29zm-70.27 21.17c21.56,214.98 37.91,584.95 -156.74,660.53 208.28,-45.71 204.04,-431.1 202.66,-675.06l-45.92 14.53zm-69.56 29.61c20.04,217.56 27.81,561.62 -159.27,634.26 202.2,-44.38 204.09,-408.95 202.77,-653.41l-43.5 19.15z"/>
 </g>
</svg>
