<svg id="Layer_1" data-name="Layer 1" xmlns="http://www.w3.org/2000/svg" viewBox="0 0 512 512"><path d="M471.441,376.549c-4.208-25.311-31.259-57.475-53.211-80-12.591-12.92-26.789-26.093-42.3-39.282,14.335-13.971,27.394-27.841,38.906-41.366,20.3-23.845,45.014-57.634,47.515-83.186.89-9.1-1.1-16.532-5.92-22.085-5.086-5.86-12.949-9.148-23.373-9.774l-.719,11.979c7.081.425,12.138,2.33,15.029,5.661,2.574,2.966,3.6,7.357,3.04,13.05-2.531,25.859-35.07,70.484-83.823,117.9q-15.862-13.059-33.285-26.012c-.975-25.923-3.111-50.879-6.319-74.094a457.3,457.3,0,0,1,49.717-23.66l-4.413-11.159a458.793,458.793,0,0,0-47.176,22.2,465.172,465.172,0,0,0-11.155-52.05C300.24,35.821,281.767,10,260.533,10s-39.707,25.821-53.422,74.672a468.893,468.893,0,0,0-11.44,53.883,540.4,540.4,0,0,0-55.811-23.908c-34.69-12.386-79.317-22.812-94.923-2.137-9.094,12.046-5.724,30.588,10.015,55.109l10.1-6.481c-12.383-19.293-16.125-34-10.537-41.4,8.5-11.257,38.9-8.937,81.311,6.208a536.975,536.975,0,0,1,58.026,25.093,762.687,762.687,0,0,0-6.324,79.492q-15.552,12.84-29.911,25.814a642.555,642.555,0,0,1-55.243-49.94l-8.594,8.376a651.61,651.61,0,0,0,54.9,49.762,645.745,645.745,0,0,0-51.515,53.373c-20.3,23.845-45.014,57.634-47.515,83.186-.89,9.1,1.1,16.532,5.92,22.084,6.146,7.082,15.778,9.88,27.166,9.88,20.157,0,45.814-8.768,67.366-18.074a522.8,522.8,0,0,0,48.536-24.308c2.458,13.019,5.289,25.292,8.475,36.642C220.826,476.179,239.3,502,260.533,502c10.421,0,20.241-6.258,29.187-18.6L280,476.357C273.443,485.41,266.892,490,260.533,490c-14.629,0-30.281-24.642-41.868-65.916-3.429-12.213-6.435-25.538-9-39.738,18.918-11.111,38.457-23.772,58.106-37.67,15.549,9.041,30.893,17.324,45.8,24.726a459.528,459.528,0,0,1-10.954,51.9l11.561,3.216a464.153,464.153,0,0,0,10.665-49.647c16.507,7.815,32.386,14.479,47.295,19.8,20.4,7.286,44.242,13.892,63.594,13.892,13.549,0,24.9-3.241,31.329-11.755C471.456,392.993,472.929,385.5,471.441,376.549ZM357.781,257.88Q346.2,268.8,333.59,279.781q.323-11.784.324-23.781,0-8.622-.17-17.145Q346.194,248.35,357.781,257.88ZM199.153,256q0-9.9.226-19.652,8.606-7.04,17.533-13.988c14.957-11.632,30.1-22.675,45.137-32.969q14.856,9.267,29.764,19.343,15.264,10.326,29.7,20.955.4,13.016.4,26.311c0,11.6-.234,23.067-.688,34.344q-12.685,10.643-26.138,21.116-14.141,11-27.955,20.929c-15.547-9.226-31.275-19.2-46.946-29.8q-10.406-7.038-20.421-14.2Q199.16,272.42,199.153,256ZM320.9,214.383q-10.949-7.862-22.366-15.588-12.789-8.65-25.6-16.737c14.514-9.615,28.865-18.485,42.787-26.437C318.157,174.237,319.9,193.957,320.9,214.383ZM218.665,87.916C230.252,46.642,245.9,22,260.533,22S290.814,46.642,302.4,87.916a461.928,461.928,0,0,1,11.523,54.949c-16.9,9.5-34.446,20.333-52.175,32.235-18.565-11.363-36.966-21.726-54.815-30.886A464.342,464.342,0,0,1,218.665,87.916Zm-13.477,68.9c14.923,7.768,30.227,16.379,45.681,25.714-13.794,9.56-27.64,19.72-41.324,30.362q-4.878,3.793-9.66,7.614C200.808,198.331,202.6,176.935,205.188,156.811Zm-17.979,89.671q-.051,4.745-.056,9.518,0,11.82.315,23.448-10.4-7.695-20.285-15.462Q176.89,255.231,187.209,246.482ZM82.561,421.161c-8.421,0-14.538-1.93-17.93-5.838-2.574-2.966-3.6-7.357-3.04-13.051,2.746-28.062,40.832-78.223,96.629-130.075q14.343,11.329,29.8,22.525a715.561,715.561,0,0,0,8.4,83.387C146.7,406.442,105.827,421.162,82.561,421.161Zm124.967-49.523c-3.318-21.2-5.694-44.107-7.048-68.044q6.416,4.491,12.983,8.934c14.329,9.693,28.714,18.87,42.977,27.447C239.534,351.78,223.147,362.343,207.528,371.638ZM278.464,339q12.009-8.751,23.991-18.063,9.141-7.11,17.951-14.306c-1.1,18.133-2.781,35.655-5.019,52.273C303.322,352.825,290.972,346.166,278.464,339Zm179.022,52.587c-8.5,11.256-38.894,8.936-81.311-6.209a516.751,516.751,0,0,1-49.447-20.893c3.029-21.46,5.136-44.439,6.252-68.3q17.952-15.187,34.161-30.481c52.351,44.43,88.189,87.111,92.462,112.821C460.531,384.1,459.818,388.492,457.486,391.583Z" style="fill:#b0b5ca"/><circle cx="402.93" cy="110.554" r="36" style="fill:#5fa8ed"/><circle cx="77.639" cy="188.641" r="36" style="fill:#5fa8ed"/><circle cx="298.935" cy="453.383" r="36" style="fill:#5fa8ed"/><circle cx="261.46" cy="260.89" r="33" style="fill:#4ca987"/><circle cx="402.93" cy="110.55" r="11" style="fill:#4689d3"/><circle cx="298.94" cy="453.38" r="11" style="fill:#4689d3"/><circle cx="77.64" cy="188.64" r="11" style="fill:#4689d3"/><path d="M254.46,260.89a33.008,33.008,0,0,1,20-30.336,33,33,0,1,0,0,60.673A33,33,0,0,1,254.46,260.89Z" style="fill:#3c8265"/><path d="M169.462,112.848a5.983,5.983,0,0,1-2.312-.466c-7.965-3.33-15.789-6.37-23.255-9.036a310.9,310.9,0,0,0-34.518-10.3,6,6,0,1,1,2.686-11.7,322.843,322.843,0,0,1,35.867,10.7c7.666,2.737,15.689,5.854,23.849,9.266a6,6,0,0,1-2.317,11.537Z" style="fill:#d4e1f4"/><path d="M87.344,89.292c-.188,0-.377-.009-.568-.027-1.556-.146-3.1-.263-4.579-.346a6,6,0,0,1,.675-11.981c1.631.092,3.322.219,5.026.379a6,6,0,0,1-.554,11.975Z" style="fill:#d4e1f4"/></svg>