<svg id="Layer_1" data-name="Layer 1" xmlns="http://www.w3.org/2000/svg" viewBox="0 0 512 512"><path d="M152.324,75c21.229,0,38.5,19.271,38.5,40.5h12c0-27.846-22.654-52.5-50.5-52.5a50.558,50.558,0,0,0-50.5,50.5v285a50.558,50.558,0,0,0,50.5,50.5c27.846,0,50.5-24.654,50.5-52.5h-12c0,21.229-17.271,40.5-38.5,40.5a38.544,38.544,0,0,1-38.5-38.5v-285A38.544,38.544,0,0,1,152.324,75Z" style="fill:#ccd3df"/><path d="M359.324,4a109.688,109.688,0,0,0-103.5,73.746,109.5,109.5,0,0,0-213,35.754v285a109.5,109.5,0,0,0,213,35.754,109.5,109.5,0,0,0,213-35.754v-285A109.624,109.624,0,0,0,359.324,4Zm97.5,394.5a97.61,97.61,0,0,1-97.5,97.5c-53.762,0-97.5-45.738-97.5-99.5h-12c0,53.762-43.738,99.5-97.5,99.5a97.61,97.61,0,0,1-97.5-97.5v-285a97.61,97.61,0,0,1,97.5-97.5c53.762,0,97.5,45.738,97.5,99.5h12c0-53.762,43.738-99.5,97.5-99.5a97.61,97.61,0,0,1,97.5,97.5Z" style="fill:#ccd3df"/><path d="M359.324,63c-27.845,0-50.5,24.654-50.5,52.5h12c0-21.229,17.271-40.5,38.5-40.5a38.544,38.544,0,0,1,38.5,38.5v285a38.544,38.544,0,0,1-38.5,38.5c-21.229,0-38.5-19.271-38.5-40.5h-12c0,27.846,22.655,52.5,50.5,52.5a50.557,50.557,0,0,0,50.5-50.5v-285A50.557,50.557,0,0,0,359.324,63Z" style="fill:#ccd3df"/><path d="M62.324,199a5.984,5.984,0,0,1-4.243-1.757l-9.757-9.758-9.757,9.758a6,6,0,0,1-8.485-8.486l14-14a6,6,0,0,1,8.486,0l14,14A6,6,0,0,1,62.324,199Z" style="fill:#80aaff"/><path d="M62.324,269a5.984,5.984,0,0,1-4.243-1.757l-9.757-9.758-9.757,9.758a6,6,0,0,1-8.485-8.486l14-14a6,6,0,0,1,8.486,0l14,14A6,6,0,0,1,62.324,269Z" style="fill:#80aaff"/><path d="M62.324,339a5.984,5.984,0,0,1-4.243-1.757l-9.757-9.758-9.757,9.758a6,6,0,0,1-8.485-8.486l14-14a6,6,0,0,1,8.486,0l14,14A6,6,0,0,1,62.324,339Z" style="fill:#80aaff"/><path d="M62.324,199a5.984,5.984,0,0,1-4.243-1.757l-9.757-9.758-9.757,9.758a6,6,0,0,1-8.485-8.486l14-14a6,6,0,0,1,8.486,0l14,14A6,6,0,0,1,62.324,199Z" style="fill:#80aaff"/><path d="M62.324,269a5.984,5.984,0,0,1-4.243-1.757l-9.757-9.758-9.757,9.758a6,6,0,0,1-8.485-8.486l14-14a6,6,0,0,1,8.486,0l14,14A6,6,0,0,1,62.324,269Z" style="fill:#80aaff"/><path d="M62.324,339a5.984,5.984,0,0,1-4.243-1.757l-9.757-9.758-9.757,9.758a6,6,0,0,1-8.485-8.486l14-14a6,6,0,0,1,8.486,0l14,14A6,6,0,0,1,62.324,339Z" style="fill:#80aaff"/><path d="M121.324,199a5.982,5.982,0,0,1-4.242-1.757l-9.758-9.758-9.757,9.758a6,6,0,0,1-8.485-8.486l14-14a6,6,0,0,1,8.485,0l14,14A6,6,0,0,1,121.324,199Z" style="fill:#80aaff"/><path d="M121.324,269a5.982,5.982,0,0,1-4.242-1.757l-9.758-9.758-9.757,9.758a6,6,0,0,1-8.485-8.486l14-14a6,6,0,0,1,8.485,0l14,14A6,6,0,0,1,121.324,269Z" style="fill:#80aaff"/><path d="M121.324,339a5.982,5.982,0,0,1-4.242-1.757l-9.758-9.758-9.757,9.758a6,6,0,0,1-8.485-8.486l14-14a6,6,0,0,1,8.485,0l14,14A6,6,0,0,1,121.324,339Z" style="fill:#80aaff"/><path d="M462.9,353.147a5.982,5.982,0,0,1-4.264-1.778L444.708,337.3a6,6,0,1,1,8.528-8.442l9.708,9.806,9.806-9.708a6,6,0,1,1,8.442,8.528l-14.07,13.93A5.983,5.983,0,0,1,462.9,353.147Z" style="fill:#80aaff"/><path d="M463.253,283.148a5.98,5.98,0,0,1-4.263-1.778L445.06,267.3a6,6,0,1,1,8.527-8.442l9.709,9.806,9.807-9.708a6,6,0,0,1,8.442,8.527l-14.07,13.93A5.982,5.982,0,0,1,463.253,283.148Z" style="fill:#80aaff"/><path d="M463.605,213.149h-.03a6,6,0,0,1-4.234-1.778L445.412,197.3a6,6,0,0,1,8.528-8.442l9.708,9.806,9.807-9.708a6,6,0,0,1,8.442,8.527l-14.07,13.93A6,6,0,0,1,463.605,213.149Z" style="fill:#80aaff"/><path d="M403.9,352.851a5.983,5.983,0,0,1-4.264-1.779L385.708,337a6,6,0,0,1,8.528-8.442l9.708,9.806,9.807-9.708a6,6,0,1,1,8.442,8.528l-14.07,13.929A5.981,5.981,0,0,1,403.9,352.851Z" style="fill:#80aaff"/><path d="M404.254,282.851a5.979,5.979,0,0,1-4.264-1.779L386.061,267a6,6,0,0,1,8.527-8.442l9.708,9.806,9.807-9.708a6,6,0,1,1,8.442,8.528l-14.07,13.929A5.98,5.98,0,0,1,404.254,282.851Z" style="fill:#80aaff"/><path d="M404.606,212.852a5.981,5.981,0,0,1-4.264-1.779L386.413,197a6,6,0,0,1,8.528-8.442l9.708,9.806,9.807-9.708a6,6,0,1,1,8.442,8.528l-14.07,13.929A5.982,5.982,0,0,1,404.606,212.852Z" style="fill:#80aaff"/><polygon points="182.61 262.93 182.61 398.08 329.04 398.08 329.04 262.89 182.61 262.93" style="fill:#4ca987"/><rect x="182.61" y="238.95" width="146.43" height="23.96" style="fill:#4689d3"/><polygon points="182.61 113.92 182.61 238.97 329.04 238.93 329.04 113.92 182.61 113.92" style="fill:#e87187"/><polygon points="182.61 398.08 212.61 398.08 212.61 262.922 182.61 262.93 182.61 398.08" style="fill:#3e7f65"/><rect x="182.61" y="238.966" width="30" height="23.96" style="fill:#3573aa"/><polygon points="212.61 113.92 182.61 113.92 182.61 238.97 212.61 238.962 212.61 113.92" style="fill:#ba5d71"/><path d="M267.937,164.112h-6.113V158a6,6,0,0,0-12,0v6.112h-6.112a6,6,0,0,0,0,12h6.112v6.113a6,6,0,0,0,12,0v-6.113h6.113a6,6,0,0,0,0-12Z" style="fill:#f9d438"/><path d="M267.937,347.888H243.712a6,6,0,1,1,0-12h24.225a6,6,0,0,1,0,12Z" style="fill:#f9d438"/><g id="_Path_3-2" data-name=" Path 3-2"><path d="M205.19,146.5h-.016a6,6,0,0,1-5.985-6.016l.014-5.327a6,6,0,0,1,12,.031l-.014,5.328A6,6,0,0,1,205.19,146.5Z" style="fill:#f4f8fc"/></g><g id="_Path_3-2-2" data-name=" Path 3-2-2"><path d="M204.478,219.521h-.059a6,6,0,0,1-5.941-6.057l.514-53.542a6,6,0,0,1,6-5.943h.058a6,6,0,0,1,5.942,6.057l-.514,53.542A6,6,0,0,1,204.478,219.521Z" style="fill:#f4f8fc"/></g></svg>