<svg id="Layer_1" data-name="Layer 1" xmlns="http://www.w3.org/2000/svg" viewBox="0 0 512 512"><polygon points="129.26 60.97 119.14 127.78 80.39 127.78 96.73 85.08 75.3 85.08 113.97 11 111.68 60.97 129.26 60.97" style="fill:#4689d3"/><polygon points="398.03 11 436.7 85.08 415.27 85.08 431.61 127.78 392.86 127.78 382.74 60.97 400.32 60.97 398.03 11" style="fill:#4689d3"/><path d="M443.34,201.72V313.66C443.34,416.96,359.3,501,256,501V429.09A115.567,115.567,0,0,0,371.44,313.66V201.72Z" style="fill:#c16175"/><path d="M443.34,168.91v32.81h-71.9V168.91a4,4,0,0,1,4-4h63.9A4,4,0,0,1,443.34,168.91Z" style="fill:#f3ce7d"/><path d="M256,429.1V501h-.09c-103-.05-187.25-85.97-187.25-188.96V201.72h71.9V312.39c0,63.7,51.06,116.34,114.76,116.7H256Z" style="fill:#eb7288"/><path d="M140.56,168.91v32.81H68.66V168.91a4,4,0,0,1,4-4h63.9A4,4,0,0,1,140.56,168.91Z" style="fill:#f3ce7d"/><path d="M99,312.04V202H69V312.04C69,415.03,152.91,500.95,255.91,501H256v-2.475C167.09,483.8,99,404.856,99,312.04Z" style="fill:#bc5e72"/><path d="M102.66,165h-30A3.646,3.646,0,0,0,69,168.91V202H99V168.91A3.646,3.646,0,0,1,102.66,165Z" style="fill:#c6a76a"/><path d="M89.523,232.04a6,6,0,0,1-6-6v-2.666a6,6,0,0,1,12,0v2.666A6,6,0,0,1,89.523,232.04Z" style="fill:#f4f8fc"/><path d="M89.523,305.505a6,6,0,0,1-6-6V245.67a6,6,0,0,1,12,0v53.835A6,6,0,0,1,89.523,305.505Z" style="fill:#f4f8fc"/></svg>